mtllib model_0.mtl
o model_0
v 0.5999997854232788 0 0.1050001010298729 
v 0.5999997854232788 0 -0.10499999672174454 
v 0.562169075012207 0.029999898746609688 0.000003253760041843634 
v 0 0 -0.10499999672174454 
v 0.04590592905879021 0.029999898746609688 0.000003253760041843634 
v 0 0 0.1050001010298729 
v 0.014337590895593166 0.3763074576854706 -0.05482479929924011 
v 0.04590592905879021 0.029999898746609688 0.000003253760041843634 
v 0.017303990200161934 0.4170036315917969 -0.04441676288843155 
v 0.01994078792631626 0.4580017924308777 -0.03521359711885452 
v 0.022229675203561783 0.49925166368484497 -0.027215301990509033 
v 0.02415234036743641 0.5407028794288635 -0.020441105589270592 
v 0.011334571056067944 0.3353344202041626 -0.06530974060297012 
v 0.008697772398591042 0.2940593957901001 -0.07457699626684189 
v 0.006390573922544718 0.2525075376033783 -0.08262656629085541 
v 0 0 -0.10499999672174454 
v 0.004449597094208002 0.21077948808670044 -0.08945203572511673 
v 0.0028382204473018646 0.1688249260187149 -0.09504058212041855 
v 0.0015930656809359789 0.12674453854560852 -0.09939862787723541 
v 0.0007141329115256667 0.0845634713768959 -0.10250694304704666 
v 0.00018311099847778678 0.04230690374970436 -0.10437833517789841 
v 0.02574540674686432 0.5823554396629333 -0.014891006983816624 
v 0.04590592905879021 0.029999898746609688 0.000003253760041843634 
v 0.026972251012921333 0.6241337656974792 -0.010565006174147129 
v 0.027869494631886482 0.6660380363464355 -0.007475920952856541 
v 0.028400516137480736 0.7079925537109375 -0.0056173428893089294 
v 0.029993582516908646 0.8144016265869141 0.000003253760041843634 
v 0.028565315529704094 0.7499974370002747 -0.0020668176002800465 
v 0.028565315529704094 0.8246700167655945 -0.005002089310437441 
v 0.028565315529704094 0.8246700167655945 0.00500218803063035 
v 0.029993582516908646 0.8144016265869141 0.000003253760041843634 
v 0.028565315529704094 0.7499974370002747 0.0020669163204729557 
v 0.028400516137480736 0.7079925537109375 0.005617441609501839 
v 0.04590592905879021 0.029999898746609688 0.000003253760041843634 
v 0.027869494631886482 0.6660380363464355 0.00747601967304945 
v 0.026972251012921333 0.6241337656974792 0.010565104894340038 
v 0.02574540674686432 0.5823554396629333 0.014891104772686958 
v 0.02415234036743641 0.5407028794288635 0.0204412043094635 
v 0.04590592905879021 0.029999898746609688 0.000003253760041843634 
v 0.022229675203561783 0.49925166368484497 0.027215400710701942 
v 0.01994078792631626 0.4580017924308777 0.03521369397640228 
v 0.017303990200161934 0.4170036315917969 0.04441685974597931 
v 0.014337590895593166 0.3763074576854706 0.05482489988207817 
v 0.011334571056067944 0.3353344202041626 0.06530984491109848 
v 0.008697772398591042 0.2940593957901001 0.07457710057497025 
v 0.006390573922544718 0.2525075376033783 0.08262666314840317 
v 0 0 0.1050001010298729 
v 0.004449597094208002 0.21077948808670044 0.08945213258266449 
v 0.0028382204473018646 0.1688249260187149 0.0950406864285469 
v 0.0015930656809359789 0.12674453854560852 0.09939873218536377 
v 0.0007141329115256667 0.0845634713768959 0.10250703990459442 
v 0.00018311099847778678 0.04230690374970436 0.10437843948602676 
v 0.5998166799545288 0.04230690374970436 -0.10437833517789841 
v 0.5992856621742249 0.0845634713768959 -0.10250694304704666 
v 0.5999997854232788 0 -0.10499999672174454 
v 0.5984067320823669 0.12674453854560852 -0.09939862787723541 
v 0.597161591053009 0.1688249260187149 -0.09504058212041855 
v 0.5955502390861511 0.21077948808670044 -0.08945203572511673 
v 0.5936092138290405 0.2525075376033783 -0.08262656629085541 
v 0.562169075012207 0.029999898746609688 0.000003253760041843634 
v 0.5913020372390747 0.2940593957901001 -0.07457699626684189 
v 0.588665246963501 0.3353344202041626 -0.06530974060297012 
v 0.5856622457504272 0.3763074576854706 -0.05482479929924011 
v 0.5826958417892456 0.4170036315917969 -0.04441676288843155 
v 0.5800590515136719 0.4580017924308777 -0.03521359711885452 
v 0.5777701139450073 0.49925166368484497 -0.027215301990509033 
v 0.5758474469184875 0.5407028794288635 -0.020441105589270592 
v 0.562169075012207 0.029999898746609688 0.000003253760041843634 
v 0.5742543935775757 0.5823554396629333 -0.014891006983816624 
v 0.5730275511741638 0.6241337656974792 -0.010565006174147129 
v 0.5721303224563599 0.6660380363464355 -0.007475920952856541 
v 0.5715993046760559 0.7079925537109375 -0.0056173428893089294 
v 0.570006251335144 0.8144016265869141 0.000003253760041843634 
v 0.571434497833252 0.7499974370002747 -0.0026564355939626694 
v 0.571434497833252 0.8246700167655945 -0.005002089310437441 
v 0.571434497833252 0.8246700167655945 0.00500218803063035 
v 0.570006251335144 0.8144016265869141 0.000003253760041843634 
v 0.571434497833252 0.7499974370002747 0.0026565343141555786 
v 0.5715993046760559 0.7079925537109375 0.005617441609501839 
v 0.562169075012207 0.029999898746609688 0.000003253760041843634 
v 0.5721303224563599 0.6660380363464355 0.00747601967304945 
v 0.5730275511741638 0.6241337656974792 0.010565104894340038 
v 0.5742543935775757 0.5823554396629333 0.014891104772686958 
v 0.5758474469184875 0.5407028794288635 0.0204412043094635 
v 0.562169075012207 0.029999898746609688 0.000003253760041843634 
v 0.5777701139450073 0.49925166368484497 0.027215400710701942 
v 0.5800590515136719 0.4580017924308777 0.03521369397640228 
v 0.5826958417892456 0.4170036315917969 0.04441685974597931 
v 0.5856622457504272 0.3763074576854706 0.05482489988207817 
v 0.588665246963501 0.3353344202041626 0.06530984491109848 
v 0.5913020372390747 0.2940593957901001 0.07457710057497025 
v 0.5936092138290405 0.2525075376033783 0.08262666314840317 
v 0.5999997854232788 0 0.1050001010298729 
v 0.5955502390861511 0.21077948808670044 0.08945213258266449 
v 0.597161591053009 0.1688249260187149 0.0950406864285469 
v 0.5984067320823669 0.12674453854560852 0.09939873218536377 
v 0.5992856621742249 0.0845634713768959 0.10250703990459442 
v 0.5998166799545288 0.04230690374970436 0.10437843948602676 
v 0.588665246963501 0.3353344202041626 0.06530984491109848 
v 0.014337590895593166 0.3763074576854706 0.05482489988207817 
v 0.5856622457504272 0.3763074576854706 0.05482489988207817 
v 0.017303990200161934 0.4170036315917969 0.04441685974597931 
v 0.011334571056067944 0.3353344202041626 0.06530984491109848 
v 0.5913020372390747 0.2940593957901001 0.07457710057497025 
v 0.008697772398591042 0.2940593957901001 0.07457710057497025 
v 0.5936092138290405 0.2525075376033783 0.08262666314840317 
v 0.006390573922544718 0.2525075376033783 0.08262666314840317 
v 0.5955502390861511 0.21077948808670044 0.08945213258266449 
v 0.004449597094208002 0.21077948808670044 0.08945213258266449 
v 0.597161591053009 0.1688249260187149 0.0950406864285469 
v 0.0028382204473018646 0.1688249260187149 0.0950406864285469 
v 0.5984067320823669 0.12674453854560852 0.09939873218536377 
v 0.0015930656809359789 0.12674453854560852 0.09939873218536377 
v 0.5992856621742249 0.0845634713768959 0.10250703990459442 
v 0.0007141329115256667 0.0845634713768959 0.10250703990459442 
v 0.5998166799545288 0.04230690374970436 0.10437843948602676 
v 0.00018311099847778678 0.04230690374970436 0.10437843948602676 
v 0.5999997854232788 0 0.1050001010298729 
v 0 0 0.1050001010298729 
v 0.5999997854232788 0 0.1050001010298729 
v 0 0 0.1050001010298729 
v 0.014337590895593166 0.3763074576854706 -0.05482479929924011 
v 0.017303990200161934 0.4170036315917969 -0.04441676288843155 
v 0.5826958417892456 0.4170036315917969 -0.04441676288843155 
v 0.5800590515136719 0.4580017924308777 -0.03521359711885452 
v 0.01994078792631626 0.4580017924308777 -0.03521359711885452 
v 0.5777701139450073 0.49925166368484497 -0.027215301990509033 
v 0.022229675203561783 0.49925166368484497 -0.027215301990509033 
v 0.5758474469184875 0.5407028794288635 -0.020441105589270592 
v 0.02415234036743641 0.5407028794288635 -0.020441105589270592 
v 0.5742543935775757 0.5823554396629333 -0.014891006983816624 
v 0.02574540674686432 0.5823554396629333 -0.014891006983816624 
v 0.5730275511741638 0.6241337656974792 -0.010565006174147129 
v 0.026972251012921333 0.6241337656974792 -0.010565006174147129 
v 0.5721303224563599 0.6660380363464355 -0.007475920952856541 
v 0.027869494631886482 0.6660380363464355 -0.007475920952856541 
v 0.5715993046760559 0.7079925537109375 -0.0056173428893089294 
v 0.028400516137480736 0.7079925537109375 -0.0056173428893089294 
v 0.571434497833252 0.7499974370002747 -0.0026564355939626694 
v 0.028565315529704094 0.7499974370002747 -0.0020668176002800465 
v 0.028565315529704094 0.8246700167655945 -0.005002089310437441 
v 0.571434497833252 0.8246700167655945 -0.005002089310437441 
v 0.5856622457504272 0.3763074576854706 -0.05482479929924011 
v 0.011334571056067944 0.3353344202041626 -0.06530974060297012 
v 0.588665246963501 0.3353344202041626 -0.06530974060297012 
v 0.008697772398591042 0.2940593957901001 -0.07457699626684189 
v 0.5913020372390747 0.2940593957901001 -0.07457699626684189 
v 0.006390573922544718 0.2525075376033783 -0.08262656629085541 
v 0.5936092138290405 0.2525075376033783 -0.08262656629085541 
v 0.004449597094208002 0.21077948808670044 -0.08945203572511673 
v 0.5955502390861511 0.21077948808670044 -0.08945203572511673 
v 0.0028382204473018646 0.1688249260187149 -0.09504058212041855 
v 0.597161591053009 0.1688249260187149 -0.09504058212041855 
v 0.0015930656809359789 0.12674453854560852 -0.09939862787723541 
v 0.5984067320823669 0.12674453854560852 -0.09939862787723541 
v 0.0007141329115256667 0.0845634713768959 -0.10250694304704666 
v 0.5992856621742249 0.0845634713768959 -0.10250694304704666 
v 0.00018311099847778678 0.04230690374970436 -0.10437833517789841 
v 0.5998166799545288 0.04230690374970436 -0.10437833517789841 
v 0 0 -0.10499999672174454 
v 0.5999997854232788 0 -0.10499999672174454 
v 0 0 -0.10499999672174454 
v 0.5999997854232788 0 -0.10499999672174454 
v 0.5999997854232788 0 0.1050001010298729 
v 0.5999997854232788 0 -0.10499999672174454 
v 0.5999997854232788 0 0.1050001010298729 
v 0.5999997854232788 0 -0.10499999672174454 
v 0.5826958417892456 0.4170036315917969 0.04441685974597931 
v 0.01994078792631626 0.4580017924308777 0.03521369397640228 
v 0.5800590515136719 0.4580017924308777 0.03521369397640228 
v 0.022229675203561783 0.49925166368484497 0.027215400710701942 
v 0.5777701139450073 0.49925166368484497 0.027215400710701942 
v 0.02415234036743641 0.5407028794288635 0.0204412043094635 
v 0.5758474469184875 0.5407028794288635 0.0204412043094635 
v 0.02574540674686432 0.5823554396629333 0.014891104772686958 
v 0.5742543935775757 0.5823554396629333 0.014891104772686958 
v 0.026972251012921333 0.6241337656974792 0.010565104894340038 
v 0.5730275511741638 0.6241337656974792 0.010565104894340038 
v 0.027869494631886482 0.6660380363464355 0.00747601967304945 
v 0.5721303224563599 0.6660380363464355 0.00747601967304945 
v 0.028400516137480736 0.7079925537109375 0.005617441609501839 
v 0.5715993046760559 0.7079925537109375 0.005617441609501839 
v 0.028565315529704094 0.7499974370002747 0.0020669163204729557 
v 0.571434497833252 0.7499974370002747 0.0026565343141555786 
v 0.571434497833252 0.8246700167655945 0.00500218803063035 
v 0.028565315529704094 0.8246700167655945 0.00500218803063035 
v 0.571434497833252 0.8246700167655945 0.00500218803063035 
v 0.028565315529704094 0.8246700167655945 0.00500218803063035 
v 0.570006251335144 0.8144016265869141 0.000003253760041843634 
v 0.029993582516908646 0.8144016265869141 0.000003253760041843634 
v 0.571434497833252 0.8246700167655945 -0.005002089310437441 
v 0.028565315529704094 0.8246700167655945 -0.005002089310437441 
v 0.5999997854232788 0 -0.10499999672174454 
v 0 0 -0.10499999672174454 
v 0.5999997854232788 0 0.1050001010298729 
v 0 0 0.1050001010298729 
v 0 0 -0.10499999672174454 
v 0 0 -0.10499999672174454 
v 0 0 0.1050001010298729 
v 0 0 0.1050001010298729 
vn 0.6459943652153015 0.7633390426635742 0.002184694167226553 
vn 0.9698610901832581 -0.09789151698350906 0.22312943637371063 
vn 0.9614889621734619 0.022630445659160614 0.27391019463539124 
vn -0.7071051001548767 0.7071051001548767 0.002184694167226553 
vn -0.9651965498924255 0.011328992433845997 -0.2612801790237427 
vn -0.9860212206840515 -0.0339709147810936 -0.16312000155448914 
vn -0.9617478847503662 -0.0037720792461186647 0.27391019463539124 
vn -0.9617478847503662 0.0037720792461186647 0.27391019463539124 
vn -0.9617478847503662 0.0037720792461186647 0.27391019463539124 
vn -0.9617478847503662 0.0037720792461186647 0.27391019463539124 
vn -0.9617478847503662 -0.0037720792461186647 0.27391019463539124 
vn -0.9617478847503662 -0.0037720792461186647 0.27391019463539124 
vn -0.9617478847503662 0.0037720792461186647 0.27391019463539124 
vn -0.9617478847503662 -0.0037720792461186647 0.27391019463539124 
vn -0.9617478847503662 -0.0037720792461186647 0.27391019463539124 
vn -0.9617478847503662 -0.0037720792461186647 0.27391019463539124 
vn -0.9617478847503662 0.0037720792461186647 0.27391019463539124 
vn -0.9617478847503662 0.0037720792461186647 0.27391019463539124 
vn -0.9617478847503662 -0.0037720792461186647 0.27391019463539124 
vn -0.9617478847503662 0.0037720792461186647 0.27391019463539124 
vn -0.9617478847503662 0.0037720792461186647 0.27391019463539124 
vn -0.9617478847503662 0.0037720792461186647 0.27391019463539124 
vn -0.9617478847503662 0.0037720792461186647 0.27391019463539124 
vn -0.9617478847503662 0.0037720792461186647 0.27391019463539124 
vn -0.9617478847503662 0.0037720792461186647 0.27391019463539124 
vn -0.9593175053596497 -0.003771965391933918 0.28230419754981995 
vn -0.9542148113250732 0.007551176007837057 0.2990269064903259 
vn 0.9412670135498047 -0.030184602364897728 0.3363112509250641 
vn -0.9554230570793152 0.015084419399499893 0.2948545813560486 
vn -0.9554749727249146 0.01132775004953146 -0.2948545813560486 
vn -0.9542148113250732 0.007551176007837057 -0.2990269064903259 
vn 0.9397868514060974 -0.03021426498889923 -0.34042292833328247 
vn -0.9593249559402466 -1.9841056965799742e-13 -0.28230419754981995 
vn -0.9651965498924255 0.011328992433845997 -0.2612801790237427 
vn -0.9617552757263184 -1.9891321933768885e-13 -0.27391019463539124 
vn -0.9617552757263184 -1.9891321933768885e-13 -0.27391019463539124 
vn -0.9617552757263184 -1.9891321933768885e-13 -0.27391019463539124 
vn -0.9617552757263184 -1.9891321933768885e-13 -0.27391019463539124 
vn -0.9651965498924255 0.011328992433845997 -0.2612801790237427 
vn -0.9617552757263184 -1.9891321933768885e-13 -0.27391019463539124 
vn -0.9617552757263184 -1.9891321933768885e-13 -0.27391019463539124 
vn -0.9617552757263184 -1.9891321933768885e-13 -0.27391019463539124 
vn -0.9617552757263184 -1.9891321933768885e-13 -0.27391019463539124 
vn -0.9617552757263184 -1.9891321933768885e-13 -0.27391019463539124 
vn -0.9617552757263184 -1.9891321933768885e-13 -0.27391019463539124 
vn -0.9617552757263184 -1.9891321933768885e-13 -0.27391019463539124 
vn -0.9860212206840515 -0.0339709147810936 -0.16312000155448914 
vn -0.9617552757263184 -1.9891321933768885e-13 -0.27391019463539124 
vn -0.9617552757263184 -1.9891321933768885e-13 -0.27391019463539124 
vn -0.9617552757263184 -1.9891321933768885e-13 -0.27391019463539124 
vn -0.9617552757263184 -1.9891321933768885e-13 -0.27391019463539124 
vn -0.9617552757263184 -1.9891321933768885e-13 -0.27391019463539124 
vn 0.9617552757263184 0 0.27391019463539124 
vn 0.9617552757263184 0 0.27391019463539124 
vn 0.9698610901832581 -0.09789151698350906 0.22312943637371063 
vn 0.9617552757263184 0 0.27391019463539124 
vn 0.9617552757263184 0 0.27391019463539124 
vn 0.9617552757263184 0 0.27391019463539124 
vn 0.9617552757263184 0 0.27391019463539124 
vn 0.9614889621734619 0.022630445659160614 0.27391019463539124 
vn 0.9617552757263184 0 0.27391019463539124 
vn 0.9617552757263184 0 0.27391019463539124 
vn 0.9617552757263184 0 0.27391019463539124 
vn 0.9617552757263184 0 0.27391019463539124 
vn 0.9617552757263184 0 0.27391019463539124 
vn 0.9617552757263184 0 0.27391019463539124 
vn 0.9617552757263184 0 0.27391019463539124 
vn 0.9614889621734619 0.022630445659160614 0.27391019463539124 
vn 0.9617552757263184 0 0.27391019463539124 
vn 0.9617552757263184 0 0.27391019463539124 
vn 0.9617552757263184 0 0.27391019463539124 
vn 0.9605492949485779 0 0.2781098484992981 
vn 0.9555123448371887 0.007542444858700037 0.2948545813560486 
vn -0.8407673239707947 -0.04148130118846893 0.5398051738739014 
vn 0.9567916393280029 0.0075430660508573055 0.29067665338516235 
vn 0.9567915201187134 0.007552541792392731 -0.29067665338516235 
vn 0.955512285232544 0.007551931776106358 -0.2948545813560486 
vn -0.8409423828125 -0.03776676580309868 -0.5398051738739014 
vn 0.9605492949485779 0 -0.2781098484992981 
vn 0.5973303914070129 -0.045213960111141205 0.8007197380065918 
vn 0.9617552757263184 0 -0.27391019463539124 
vn 0.9617552757263184 0 -0.27391019463539124 
vn 0.9617552757263184 0 -0.27391019463539124 
vn 0.9617552757263184 0 -0.27391019463539124 
vn 0.5973303914070129 -0.045213960111141205 0.8007197380065918 
vn 0.9474545121192932 -0.007554769981652498 -0.3198012113571167 
vn 0.9502131342887878 -0.007548029068857431 -0.31150925159454346 
vn 0.9502131342887878 -0.007548029068857431 -0.31150925159454346 
vn 0.9515652060508728 -0.007549224887043238 -0.30735430121421814 
vn 0.9515652060508728 -0.007549224887043238 -0.30735430121421814 
vn 0.9502131342887878 -0.007548029068857431 -0.31150925159454346 
vn 0.9502131342887878 -0.007548029068857431 -0.31150925159454346 
vn 0.9488428831100464 -0.0075562503188848495 -0.31565824151039124 
vn 0.9617552757263184 0 -0.27391019463539124 
vn 0.9617552757263184 0 -0.27391019463539124 
vn 0.9617552757263184 0 -0.27391019463539124 
vn 0.9617552757263184 0 -0.27391019463539124 
vn 0.9617552757263184 0 -0.27391019463539124 
vn -2.417389849223e-14 0.23376400768756866 0.9722933769226074 
vn -2.7237398127948412e-14 0.26338833570480347 0.9646899104118347 
vn -2.7237398127948412e-14 0.26338833570480347 0.9646899104118347 
vn -2.417389849223e-14 0.23376400768756866 0.9722933769226074 
vn -2.417389849223e-14 0.23376400768756866 0.9722933769226074 
vn -0.0018731803866103292 0.2039123922586441 0.9789873361587524 
vn -0.0018731803866103292 0.2039123922586441 0.9789873361587524 
vn -0.003741374472156167 0.17384697496891022 0.9847655892372131 
vn 0.003741374472156167 0.17384697496891022 0.9847655892372131 
vn 0.0018599432660266757 0.1480017900466919 0.9889853596687317 
vn 0.0018599432660266757 0.1480017900466919 0.9889853596687317 
vn -0.0018674257444217801 0.11768529564142227 0.9930492043495178 
vn -0.0018674257444217801 0.11768529564142227 0.9930492043495178 
vn 0.003704126225784421 0.08719801157712936 0.9961841106414795 
vn 0.003704126225784421 0.08719801157712936 0.9961841106414795 
vn 0.0018196178134530783 0.056742385029792786 0.9983872175216675 
vn 0.0018196178134530783 0.056742385029792786 0.9983872175216675 
vn -0.0017781255301088095 0.030529234558343887 0.9995322823524475 
vn -0.0017781255301088095 0.030529234558343887 0.9995322823524475 
vn 0 0 1 
vn 0 0 1 
vn 0 0 1 
vn 0 0 1 
vn -0.0018891593208536506 0.26338157057762146 -0.9646899104118347 
vn 0.0037853566464036703 0.23373335599899292 -0.9722933769226074 
vn 0.0037853566464036703 0.23373335599899292 -0.9722933769226074 
vn 0.0018953474937006831 0.2039121836423874 -0.9789873361587524 
vn 0.0018953474937006831 0.2039121836423874 -0.9789873361587524 
vn -1.842673759346221e-14 0.17818838357925415 -0.9839963912963867 
vn -1.7981948734397714e-14 0.1738872230052948 -0.9847655892372131 
vn -0.0018901845905929804 0.14800140261650085 -0.9889853596687317 
vn -0.0018901845905929804 0.14800140261650085 -0.9889853596687317 
vn 0.0019059260375797749 0.11768467724323273 -0.9930492043495178 
vn 0.0019059260375797749 0.11768467724323273 -0.9930492043495178 
vn -9.02541387980127e-15 0.0872766524553299 -0.9961841106414795 
vn -9.02541387980127e-15 0.0872766524553299 -0.9961841106414795 
vn 0.0038385943043977022 0.06101270765066147 -0.9981296062469482 
vn 0.0038385943043977022 0.06101270765066147 -0.9981296062469482 
vn -0.0038385943043977022 0.06101270765066147 -0.9981296062469482 
vn -0.0038385943043977022 0.06101270765066147 -0.9981296062469482 
vn -0.0040505328215658665 0.012466258369386196 -0.9999141097068787 
vn -0.0040505328215658665 0.012466258369386196 -0.9999141097068787 
vn 0.001892047468572855 -0.03489676117897034 -0.999389111995697 
vn 0.001892047468572855 -0.03489676117897034 -0.999389111995697 
vn -0.0018891593208536506 0.26338157057762146 -0.9646899104118347 
vn 0.0037853566464036703 0.23373335599899292 -0.9722933769226074 
vn 0.0037853566464036703 0.23373335599899292 -0.9722933769226074 
vn 0.0018953474937006831 0.2039121836423874 -0.9789873361587524 
vn 0.0018953474937006831 0.2039121836423874 -0.9789873361587524 
vn -1.7981948734397714e-14 0.1738872230052948 -0.9847655892372131 
vn -1.7981948734397714e-14 0.1738872230052948 -0.9847655892372131 
vn -0.0018901845905929804 0.14800140261650085 -0.9889853596687317 
vn -0.0018901845905929804 0.14800140261650085 -0.9889853596687317 
vn 0.0019059260375797749 0.11768467724323273 -0.9930492043495178 
vn 0.0019059260375797749 0.11768467724323273 -0.9930492043495178 
vn -9.02541387980127e-15 0.0872766524553299 -0.9961841106414795 
vn -9.02541387980127e-15 0.0872766524553299 -0.9961841106414795 
vn -0.0018970201490446925 0.05673984810709953 -0.9983872175216675 
vn -0.0018970201490446925 0.05673984810709953 -0.9983872175216675 
vn 0.001920195179991424 0.03052062913775444 -0.9995322823524475 
vn 0.001920195179991424 0.03052062913775444 -0.9995322823524475 
vn 2.0682311115474694e-13 4.2775797696334704e-26 -1 
vn -2.0682311115474694e-13 0 -1 
vn -2.0682311115474694e-13 0 -1 
vn -2.0682311115474694e-13 0 -1 
vn 0.999997615814209 0 0.002184694167226553 
vn 0.999997615814209 0 0.002184694167226553 
vn 0.999997615814209 0 0.002184694167226553 
vn 0.999997615814209 0 0.002184694167226553 
vn -2.417389849223e-14 0.23376400768756866 0.9722933769226074 
vn -0.0018731803866103292 0.2039123922586441 0.9789873361587524 
vn -0.0018731803866103292 0.2039123922586441 0.9789873361587524 
vn -0.003741374472156167 0.17384697496891022 0.9847655892372131 
vn 0.0037316959351301193 0.1781492978334427 0.9839963912963867 
vn 0.0018599432660266757 0.1480017900466919 0.9889853596687317 
vn 0.0018599432660266757 0.1480017900466919 0.9889853596687317 
vn -0.0018674257444217801 0.11768529564142227 0.9930492043495178 
vn -0.0018674257444217801 0.11768529564142227 0.9930492043495178 
vn 0.003704126225784421 0.08719801157712936 0.9961841106414795 
vn 0.003704126225784421 0.08719801157712936 0.9961841106414795 
vn -6.321893929303515e-15 0.06113334000110626 0.9981296062469482 
vn -6.321893929303515e-15 0.06113334000110626 0.9981296062469482 
vn -6.321893929303515e-15 0.06113334000110626 0.9981296062469482 
vn -6.321893929303515e-15 0.06113334000110626 0.9981296062469482 
vn -1.3584084427309948e-15 0.013107799924910069 0.9999141097068787 
vn -1.3584084427309948e-15 0.013107799924910069 0.9999141097068787 
vn -0.0036530625075101852 -0.03475656732916832 0.999389111995697 
vn -0.0036530625075101852 -0.03475656732916832 0.999389111995697 
vn 0.0018889878410845995 0.4389342665672302 -0.8985171914100647 
vn 0.0018889878410845995 0.4389342665672302 -0.8985171914100647 
vn -1.0341130485562108e-13 0.999997615814209 0.002184694167226553 
vn -1.0341130485562108e-13 0.999997615814209 0.002184694167226553 
vn -0.003767618676647544 0.43892213702201843 0.8985171914100647 
vn -0.003767618676647544 0.43892213702201843 0.8985171914100647 
vn 3.097898456858039e-13 -0.999997615814209 0.002184694167226553 
vn 3.097898456858039e-13 -0.999997615814209 0.002184694167226553 
vn 3.097898456858039e-13 -0.999997615814209 0.002184694167226553 
vn 3.097898456858039e-13 -0.999997615814209 0.002184694167226553 
vn -0.999997615814209 -2.0682260971124217e-13 0.002184694167226553 
vn -0.999997615814209 -2.0682260971124217e-13 0.002184694167226553 
vn -0.999997615814209 -2.0682260971124217e-13 0.002184694167226553 
vn -0.999997615814209 -2.0682260971124217e-13 0.002184694167226553 
vt 0.7400445342063904 0.6069545745849609 
vt 0.7400445342063904 0.7625377178192139 
vt 0.708622932434082 0.6848071217536926 
vt 0.7415003776550293 0.45088329911231995 
vt 0.7099574208259583 0.5286138653755188 
vt 0.7415003776550293 0.6064664721488953 
vt 0.6580328941345215 0.7010365724563599 
vt 0.7023143172264099 0.4727259576320648 
vt 0.6644628047943115 0.7282484173774719 
vt 0.6700434684753418 0.7555822134017944 
vt 0.6747749447822571 0.7830380797386169 
vt 0.6786571145057678 0.8106159567832947 
vt 0.6516029834747314 0.6737027764320374 
vt 0.6459010243415833 0.6462469100952148 
vt 0.641169548034668 0.6185470223426819 
vt 0.6304934620857239 0.45088329911231995 
vt 0.6369233727455139 0.5907251238822937 
vt 0.6337690949440002 0.5629031658172607 
vt 0.6314640641212463 0.5349591970443726 
vt 0.6301295161247253 0.5068932175636292 
vt 0.6297655701637268 0.4827320873737335 
vt 0.6826606392860413 0.8384378552436829 
vt 0.7081376314163208 0.4730920195579529 
vt 0.6875134110450745 0.866381824016571 
vt 0.6934580206871033 0.8944478034973145 
vt 0.7003732323646545 0.9222697615623474 
vt 0.7081376314163208 0.9996342062950134 
vt 0.702193021774292 0.9500916600227356 
vt 0.7047407031059265 0.9997562766075134 
vt 0.8397687673568726 0.00024128099903464317 
vt 0.8511727452278137 0.00024128099903464317 
vt 0.8397687673568726 0.16473232209682465 
vt 0.8383129239082336 0.2572280466556549 
vt 0.8511727452278137 0.8646734356880188 
vt 0.8322469592094421 0.43965691328048706 
vt 0.8287287354469299 0.517753541469574 
vt 0.8260596990585327 0.5626591444015503 
vt 0.8235120177268982 0.5921894311904907 
vt 0.8464413285255432 0.8650395274162292 
vt 0.8207216858863831 0.6145201921463013 
vt 0.8172034025192261 0.636850893497467 
vt 0.8129572868347168 0.6589376330375671 
vt 0.8081045150756836 0.6810243129730225 
vt 0.8032517433166504 0.7032330632209778 
vt 0.7990055680274963 0.7254418134689331 
vt 0.7953659892082214 0.7478945851325989 
vt 0.7886934876441956 0.8835874795913696 
vt 0.7922117114067078 0.7735200524330139 
vt 0.7897853255271912 0.7985353469848633 
vt 0.7883294820785522 0.8228185176849365 
vt 0.7877228856086731 0.845881462097168 
vt 0.7878442406654358 0.8673580288887024 
vt 0.8517793416976929 0.8673580288887024 
vt 0.851658046245575 0.845881462097168 
vt 0.8525072336196899 0.8835874795913696 
vt 0.8522646427154541 0.8226965069770813 
vt 0.8537204265594482 0.7985353469848633 
vt 0.8560255169868469 0.7735200524330139 
vt 0.8593010902404785 0.7478945851325989 
vt 0.9102550745010376 0.8650395274162292 
vt 0.8628193736076355 0.7255638241767883 
vt 0.8670655488967896 0.7032330632209778 
vt 0.8720396161079407 0.6810243129730225 
vt 0.8768923878669739 0.6590596437454224 
vt 0.8810172080993652 0.636850893497467 
vt 0.8845354914665222 0.6146422028541565 
vt 0.8874471187591553 0.592311441898346 
vt 0.9151078462600708 0.8647955060005188 
vt 0.8898735046386719 0.5627811551094055 
vt 0.892663836479187 0.517753541469574 
vt 0.8960607647895813 0.43965691328048706 
vt 0.9021267294883728 0.25735005736351013 
vt 0.9151078462600708 0.00024128099903464317 
vt 0.9035825729370117 0.16473232209682465 
vt 0.9035825729370117 0.00024128099903464317 
vt 0.9905682802200317 0.5491142272949219 
vt 0.993965208530426 0.5489922165870667 
vt 0.9880205988883972 0.49944964051246643 
vt 0.9860794544219971 0.47162771224975586 
vt 0.993965208530426 0.02245001308619976 
vt 0.9792855978012085 0.4438057839870453 
vt 0.9733409881591797 0.4158618450164795 
vt 0.9683669209480286 0.3877958655357361 
vt 0.964484691619873 0.3599739372730255 
vt 0.9880205988883972 0.022205961868166924 
vt 0.9604811668395996 0.3323960602283478 
vt 0.9557497501373291 0.30494019389152527 
vt 0.950169026851654 0.27760636806488037 
vt 0.9438604712486267 0.2503945827484131 
vt 0.9373092651367188 0.2230607569217682 
vt 0.9317285418510437 0.19560490548610687 
vt 0.9269971251487732 0.16790500283241272 
vt 0.9163210391998291 0.00024128099903464317 
vt 0.9227509498596191 0.14008307456970215 
vt 0.9194753170013428 0.11226114630699158 
vt 0.9172915816307068 0.08431719243526459 
vt 0.9159570932388306 0.05625121667981148 
vt 0.915593147277832 0.032090067863464355 
vt 0.3691723644733429 0.8867601752281189 
vt 0.33762940764427185 0.4586929678916931 
vt 0.33762940764427185 0.8844416737556458 
vt 0.3063291311264038 0.46088942885398865 
vt 0.3691723644733429 0.45637446641921997 
vt 0.40071529150009155 0.8887125849723816 
vt 0.40071529150009155 0.4544220566749573 
vt 0.4322582483291626 0.8904209733009338 
vt 0.4322582483291626 0.4527136981487274 
vt 0.46380117535591125 0.8918852806091309 
vt 0.46380117535591125 0.4512493908405304 
vt 0.4953441321849823 0.8929834961891174 
vt 0.4953441321849823 0.45015114545822144 
vt 0.526887059211731 0.8939597010612488 
vt 0.526887059211731 0.4491749405860901 
vt 0.558430016040802 0.8945698142051697 
vt 0.558430016040802 0.4485647976398468 
vt 0.5899729132652283 0.8950579166412354 
vt 0.5899729132652283 0.44807669520378113 
vt 0.6213945746421814 0.8951799869537354 
vt 0.6215158700942993 0.4479546844959259 
vt 0.6292802691459656 0.8951799869537354 
vt 0.6292802691459656 0.44807669520378113 
vt 0.33762940764427185 0.43672826886177063 
vt 0.3063291311264038 0.4345318078994751 
vt 0.3063291311264038 0.01317603699862957 
vt 0.2750288248062134 0.015128453262150288 
vt 0.2750288248062134 0.4325793981552124 
vt 0.24372851848602295 0.01683681644499302 
vt 0.24372851848602295 0.43087103962898254 
vt 0.21242821216583252 0.01830112934112549 
vt 0.21242821216583252 0.4294067323207855 
vt 0.1811279058456421 0.019399363547563553 
vt 0.1811279058456421 0.42818647623062134 
vt 0.14982761442661285 0.02037557028234005 
vt 0.14982761442661285 0.4273322820663452 
vt 0.11852730810642242 0.02098570019006729 
vt 0.11852730810642242 0.4266001284122467 
vt 0.087227001786232 0.021351778879761696 
vt 0.087227001786232 0.42623403668403625 
vt 0.05592670291662216 0.021473804488778114 
vt 0.05592670291662216 0.42611202597618103 
vt 0.00024128099903464317 0.42611202597618103 
vt 0.00024128099903464317 0.021473804488778114 
vt 0.33762940764427185 0.01097956858575344 
vt 0.3691723644733429 0.43892475962638855 
vt 0.3691723644733429 0.008661074563860893 
vt 0.40071529150009155 0.44099918007850647 
vt 0.40071529150009155 0.00670865923166275 
vt 0.4322582483291626 0.4427075684070587 
vt 0.4322582483291626 0.005000295117497444 
vt 0.46380117535591125 0.44417187571525574 
vt 0.46380117535591125 0.003535982919856906 
vt 0.4953441321849823 0.4452700912952423 
vt 0.4953441321849823 0.002315723104402423 
vt 0.526887059211731 0.44624629616737366 
vt 0.526887059211731 0.0014615410473197699 
vt 0.558430016040802 0.44685643911361694 
vt 0.558430016040802 0.0007293850067071617 
vt 0.5899729132652283 0.4473445415496826 
vt 0.5899729132652283 0.00036330698640085757 
vt 0.6213945746421814 0.44746658205986023 
vt 0.6215158700942993 0.00024128099903464317 
vt 0.6292802691459656 0.44746658205986023 
vt 0.6292802691459656 0.00036330698640085757 
vt 0.7406511306762695 0.6100051999092102 
vt 0.7406511306762695 0.6126897931098938 
vt 0.7405298352241516 0.6100051999092102 
vt 0.7405298352241516 0.6126897931098938 
vt 0.3063291311264038 0.8822451829910278 
vt 0.2750288248062134 0.46284183859825134 
vt 0.2750288248062134 0.8802927732467651 
vt 0.24372851848602295 0.4645501971244812 
vt 0.24372851848602295 0.8785844445228577 
vt 0.21242821216583252 0.4660145342350006 
vt 0.21242821216583252 0.8771201372146606 
vt 0.1811279058456421 0.4671127498149872 
vt 0.1811279058456421 0.8760218620300293 
vt 0.14982761442661285 0.46808895468711853 
vt 0.14982761442661285 0.875045657157898 
vt 0.11852730810642242 0.4686990976333618 
vt 0.11852730810642242 0.874435544013977 
vt 0.087227001786232 0.4691872000694275 
vt 0.087227001786232 0.8739474415779114 
vt 0.05592670291662216 0.4693092107772827 
vt 0.05592670291662216 0.8738254308700562 
vt 0.00024128099903464317 0.8738254308700562 
vt 0.00024128099903464317 0.4693092107772827 
vt 0.7522977590560913 0.7474064826965332 
vt 0.7522977590560913 0.45088329911231995 
vt 0.7470810413360596 0.7466742992401123 
vt 0.7470810413360596 0.45234760642051697 
vt 0.7418643236160278 0.7481386065483093 
vt 0.7418643236160278 0.45161545276641846 
vt 0.7872376441955566 0.4503951966762543 
vt 0.7872376441955566 0.00024128099903464317 
vt 0.6297655701637268 0.4503951966762543 
vt 0.6297655701637268 0.00024128099903464317 
vt 0.7405298352241516 0.6095170974731445 
vt 0.7406511306762695 0.6095170974731445 
vt 0.7405298352241516 0.6069545745849609 
vt 0.7406511306762695 0.6069545745849609 
s on 
f 1/1/1 2/2/2 3/3/3 
f 2/2/2 3/3/3 3/3/3 
f 3/3/3 3/3/3 4/4/4 
f 3/3/3 4/4/4 4/4/4 
f 4/4/4 4/4/4 5/5/5 
f 4/4/4 6/6/6 5/5/5 
f 5/5/5 6/6/6 6/6/6 
f 6/6/6 7/7/7 6/6/6 
f 6/6/6 7/7/7 7/7/7 
f 7/7/7 8/8/8 7/7/7 
f 7/7/7 8/8/8 9/9/9 
f 8/8/8 8/8/8 9/9/9 
f 9/9/9 8/8/8 10/10/10 
f 8/8/8 8/8/8 10/10/10 
f 10/10/10 8/8/8 11/11/11 
f 8/8/8 12/12/12 11/11/11 
f 11/11/11 12/12/12 12/12/12 
f 12/12/12 7/7/7 12/12/12 
f 12/12/12 7/7/7 7/7/7 
f 7/7/7 13/13/13 7/7/7 
f 7/7/7 13/13/13 8/8/8 
f 13/13/13 14/14/14 8/8/8 
f 8/8/8 14/14/14 8/8/8 
f 14/14/14 15/15/15 8/8/8 
f 8/8/8 15/15/15 16/16/16 
f 15/15/15 17/17/17 16/16/16 
f 16/16/16 17/17/17 16/16/16 
f 17/17/17 18/18/18 16/16/16 
f 16/16/16 18/18/18 16/16/16 
f 18/18/18 19/19/19 16/16/16 
f 16/16/16 19/19/19 16/16/16 
f 19/19/19 20/20/20 16/16/16 
f 16/16/16 20/20/20 21/21/21 
f 20/20/20 21/21/21 21/21/21 
f 21/21/21 21/21/21 12/12/12 
f 21/21/21 12/12/12 12/12/12 
f 12/12/12 12/12/12 22/22/22 
f 12/12/12 23/23/23 22/22/22 
f 22/22/22 23/23/23 24/24/24 
f 23/23/23 23/23/23 24/24/24 
f 24/24/24 23/23/23 25/25/25 
f 23/23/23 23/23/23 25/25/25 
f 25/25/25 23/23/23 26/26/26 
f 23/23/23 27/27/27 26/26/26 
f 26/26/26 27/27/27 28/28/28 
f 27/27/27 29/29/29 28/28/28 
f 28/28/28 29/29/29 29/29/29 
f 29/29/29 30/30/30 29/29/29 
f 29/29/29 30/30/30 30/30/30 
f 30/30/30 31/31/31 30/30/30 
f 30/30/30 31/31/31 32/32/32 
f 31/31/31 31/31/31 32/32/32 
f 32/32/32 31/31/31 33/33/33 
f 31/31/31 34/34/34 33/33/33 
f 33/33/33 34/34/34 35/35/35 
f 34/34/34 34/34/34 35/35/35 
f 35/35/35 34/34/34 36/36/36 
f 34/34/34 34/34/34 36/36/36 
f 36/36/36 34/34/34 37/37/37 
f 34/34/34 38/38/38 37/37/37 
f 37/37/37 38/38/38 38/38/38 
f 38/38/38 38/38/38 38/38/38 
f 38/38/38 38/38/38 38/38/38 
f 38/38/38 39/39/39 38/38/38 
f 38/38/38 39/39/39 40/40/40 
f 39/39/39 39/39/39 40/40/40 
f 40/40/40 39/39/39 41/41/41 
f 39/39/39 39/39/39 41/41/41 
f 41/41/41 39/39/39 42/42/42 
f 39/39/39 39/39/39 42/42/42 
f 42/42/42 39/39/39 43/43/43 
f 39/39/39 39/39/39 43/43/43 
f 43/43/43 39/39/39 44/44/44 
f 39/39/39 39/39/39 44/44/44 
f 44/44/44 39/39/39 45/45/45 
f 39/39/39 39/39/39 45/45/45 
f 45/45/45 39/39/39 46/46/46 
f 39/39/39 47/47/47 46/46/46 
f 46/46/46 47/47/47 48/48/48 
f 47/47/47 47/47/47 48/48/48 
f 48/48/48 47/47/47 49/49/49 
f 47/47/47 47/47/47 49/49/49 
f 49/49/49 47/47/47 50/50/50 
f 47/47/47 47/47/47 50/50/50 
f 50/50/50 47/47/47 51/51/51 
f 47/47/47 52/52/52 51/51/51 
f 51/51/51 52/52/52 52/52/52 
f 52/52/52 53/53/53 52/52/52 
f 52/52/52 53/53/53 53/53/53 
f 53/53/53 54/54/54 53/53/53 
f 53/53/53 54/54/54 55/55/55 
f 54/54/54 56/56/56 55/55/55 
f 55/55/55 56/56/56 55/55/55 
f 56/56/56 57/57/57 55/55/55 
f 55/55/55 57/57/57 55/55/55 
f 57/57/57 58/58/58 55/55/55 
f 55/55/55 58/58/58 55/55/55 
f 58/58/58 59/59/59 55/55/55 
f 55/55/55 59/59/59 60/60/60 
f 59/59/59 61/61/61 60/60/60 
f 60/60/60 61/61/61 60/60/60 
f 61/61/61 62/62/62 60/60/60 
f 60/60/60 62/62/62 60/60/60 
f 62/62/62 63/63/63 60/60/60 
f 60/60/60 63/63/63 60/60/60 
f 63/63/63 64/64/64 60/60/60 
f 60/60/60 64/64/64 60/60/60 
f 64/64/64 65/65/65 60/60/60 
f 60/60/60 65/65/65 60/60/60 
f 65/65/65 66/66/66 60/60/60 
f 60/60/60 66/66/66 67/67/67 
f 66/66/66 67/67/67 67/67/67 
f 67/67/67 67/67/67 67/67/67 
f 67/67/67 67/67/67 67/67/67 
f 67/67/67 67/67/67 68/68/68 
f 67/67/67 69/69/69 68/68/68 
f 68/68/68 69/69/69 68/68/68 
f 69/69/69 70/70/70 68/68/68 
f 68/68/68 70/70/70 68/68/68 
f 70/70/70 71/71/71 68/68/68 
f 68/68/68 71/71/71 68/68/68 
f 71/71/71 72/72/72 68/68/68 
f 68/68/68 72/72/72 73/73/73 
f 72/72/72 74/74/74 73/73/73 
f 73/73/73 74/74/74 75/75/75 
f 74/74/74 75/75/75 75/75/75 
f 75/75/75 75/75/75 76/76/76 
f 75/75/75 76/76/76 76/76/76 
f 76/76/76 76/76/76 77/77/77 
f 76/76/76 78/78/78 77/77/77 
f 77/77/77 78/78/78 77/77/77 
f 78/78/78 79/79/79 77/77/77 
f 77/77/77 79/79/79 80/80/80 
f 79/79/79 81/81/81 80/80/80 
f 80/80/80 81/81/81 80/80/80 
f 81/81/81 82/82/82 80/80/80 
f 80/80/80 82/82/82 80/80/80 
f 82/82/82 83/83/83 80/80/80 
f 80/80/80 83/83/83 84/84/84 
f 83/83/83 84/84/84 84/84/84 
f 84/84/84 84/84/84 84/84/84 
f 84/84/84 84/84/84 84/84/84 
f 84/84/84 84/84/84 85/85/85 
f 84/84/84 86/86/86 85/85/85 
f 85/85/85 86/86/86 85/85/85 
f 86/86/86 87/87/87 85/85/85 
f 85/85/85 87/87/87 85/85/85 
f 87/87/87 88/88/88 85/85/85 
f 85/85/85 88/88/88 85/85/85 
f 88/88/88 89/89/89 85/85/85 
f 85/85/85 89/89/89 85/85/85 
f 89/89/89 90/90/90 85/85/85 
f 85/85/85 90/90/90 85/85/85 
f 90/90/90 91/91/91 85/85/85 
f 85/85/85 91/91/91 85/85/85 
f 91/91/91 92/92/92 85/85/85 
f 85/85/85 92/92/92 93/93/93 
f 92/92/92 94/94/94 93/93/93 
f 93/93/93 94/94/94 93/93/93 
f 94/94/94 95/95/95 93/93/93 
f 93/93/93 95/95/95 93/93/93 
f 95/95/95 96/96/96 93/93/93 
f 93/93/93 96/96/96 93/93/93 
f 96/96/96 97/97/97 93/93/93 
f 93/93/93 97/97/97 98/98/98 
f 97/97/97 98/98/98 98/98/98 
f 98/98/98 98/98/98 99/99/99 
f 98/98/98 99/99/99 99/99/99 
f 99/99/99 99/99/99 100/100/100 
f 99/99/99 101/101/101 100/100/100 
f 100/100/100 101/101/101 102/102/102 
f 101/101/101 102/102/102 102/102/102 
f 102/102/102 102/102/102 100/100/100 
f 102/102/102 100/100/100 100/100/100 
f 100/100/100 100/100/100 99/99/99 
f 100/100/100 103/103/103 99/99/99 
f 99/99/99 103/103/103 104/104/104 
f 103/103/103 105/105/105 104/104/104 
f 104/104/104 105/105/105 106/106/106 
f 105/105/105 107/107/107 106/106/106 
f 106/106/106 107/107/107 108/108/108 
f 107/107/107 109/109/109 108/108/108 
f 108/108/108 109/109/109 110/110/110 
f 109/109/109 111/111/111 110/110/110 
f 110/110/110 111/111/111 112/112/112 
f 111/111/111 113/113/113 112/112/112 
f 112/112/112 113/113/113 114/114/114 
f 113/113/113 115/115/115 114/114/114 
f 114/114/114 115/115/115 116/116/116 
f 115/115/115 117/117/117 116/116/116 
f 116/116/116 117/117/117 118/118/118 
f 117/117/117 119/119/119 118/118/118 
f 118/118/118 119/119/119 120/120/120 
f 119/119/119 121/121/121 120/120/120 
f 120/120/120 121/121/121 121/121/121 
f 121/121/121 122/122/122 121/121/121 
f 121/121/121 122/122/122 122/122/122 
f 122/122/122 123/123/123 122/122/122 
f 122/122/122 123/123/123 124/124/124 
f 123/123/123 123/123/123 124/124/124 
f 124/124/124 123/123/123 125/125/125 
f 123/123/123 126/126/126 125/125/125 
f 125/125/125 126/126/126 127/127/127 
f 126/126/126 128/128/128 127/127/127 
f 127/127/127 128/128/128 129/129/129 
f 128/128/128 130/130/130 129/129/129 
f 129/129/129 130/130/130 131/131/131 
f 130/130/130 132/132/132 131/131/131 
f 131/131/131 132/132/132 133/133/133 
f 132/132/132 134/134/134 133/133/133 
f 133/133/133 134/134/134 135/135/135 
f 134/134/134 136/136/136 135/135/135 
f 135/135/135 136/136/136 137/137/137 
f 136/136/136 138/138/138 137/137/137 
f 137/137/137 138/138/138 139/139/139 
f 138/138/138 140/140/140 139/139/139 
f 139/139/139 140/140/140 139/139/139 
f 140/140/140 141/141/141 139/139/139 
f 139/139/139 141/141/141 142/142/142 
f 141/141/141 142/142/142 142/142/142 
f 142/142/142 142/142/142 124/124/124 
f 142/142/142 124/124/124 124/124/124 
f 124/124/124 124/124/124 122/122/122 
f 124/124/124 143/143/143 122/122/122 
f 122/122/122 143/143/143 144/144/144 
f 143/143/143 145/145/145 144/144/144 
f 144/144/144 145/145/145 146/146/146 
f 145/145/145 147/147/147 146/146/146 
f 146/146/146 147/147/147 148/148/148 
f 147/147/147 149/149/149 148/148/148 
f 148/148/148 149/149/149 150/150/150 
f 149/149/149 151/151/151 150/150/150 
f 150/150/150 151/151/151 152/152/152 
f 151/151/151 153/153/153 152/152/152 
f 152/152/152 153/153/153 154/154/154 
f 153/153/153 155/155/155 154/154/154 
f 154/154/154 155/155/155 156/156/156 
f 155/155/155 157/157/157 156/156/156 
f 156/156/156 157/157/157 158/158/158 
f 157/157/157 159/159/159 158/158/158 
f 158/158/158 159/159/159 160/160/160 
f 159/159/159 161/161/161 160/160/160 
f 160/160/160 161/161/161 162/162/162 
f 161/161/161 163/163/163 162/162/162 
f 162/162/162 163/163/163 163/163/163 
f 163/163/163 164/164/164 163/163/163 
f 163/163/163 164/164/164 164/164/164 
f 164/164/164 165/165/165 164/164/164 
f 164/164/164 165/165/165 166/166/166 
f 165/165/165 167/167/167 166/166/166 
f 166/166/166 167/167/167 167/167/167 
f 167/167/167 101/101/101 167/167/167 
f 167/167/167 101/101/101 101/101/101 
f 101/101/101 168/168/168 101/101/101 
f 101/101/101 168/168/168 102/102/102 
f 168/168/168 168/168/168 102/102/102 
f 102/102/102 168/168/168 169/169/169 
f 168/168/168 170/170/170 169/169/169 
f 169/169/169 170/170/170 171/171/171 
f 170/170/170 172/172/172 171/171/171 
f 171/171/171 172/172/172 173/173/173 
f 172/172/172 174/174/174 173/173/173 
f 173/173/173 174/174/174 175/175/175 
f 174/174/174 176/176/176 175/175/175 
f 175/175/175 176/176/176 177/177/177 
f 176/176/176 178/178/178 177/177/177 
f 177/177/177 178/178/178 179/179/179 
f 178/178/178 180/180/180 179/179/179 
f 179/179/179 180/180/180 181/181/181 
f 180/180/180 182/182/182 181/181/181 
f 181/181/181 182/182/182 183/183/183 
f 182/182/182 184/184/184 183/183/183 
f 183/183/183 184/184/184 183/183/183 
f 184/184/184 185/185/185 183/183/183 
f 183/183/183 185/185/185 186/186/186 
f 185/185/185 186/186/186 186/186/186 
f 186/186/186 186/186/186 187/187/187 
f 186/186/186 187/187/187 187/187/187 
f 187/187/187 187/187/187 188/188/188 
f 187/187/187 189/189/189 188/188/188 
f 188/188/188 189/189/189 190/190/190 
f 189/189/189 191/191/191 190/190/190 
f 190/190/190 191/191/191 192/192/192 
f 191/191/191 192/192/192 192/192/192 
f 192/192/192 192/192/192 193/193/193 
f 192/192/192 193/193/193 193/193/193 
f 193/193/193 193/193/193 194/194/194 
f 193/193/193 195/195/195 194/194/194 
f 194/194/194 195/195/195 196/196/196 
f 195/195/195 196/196/196 196/196/196 
f 196/196/196 196/196/196 197/197/197 
f 196/196/196 197/197/197 197/197/197 
f 197/197/197 197/197/197 198/198/198 
f 197/197/197 199/199/199 198/198/198 
f 198/198/198 199/199/199 200/200/200 

