# Blender 4.3.0
# www.blender.org
mtllib crossbar_003.mtl
o crossbar.003
v -19.087078 0.076504 3.216502
v -19.511778 -0.037151 0.984935
v -19.040361 -0.254476 3.340350
v -19.014879 -0.576931 3.374408
v -19.006386 -0.878544 3.317127
v -19.019127 -1.148137 3.169284
v -19.048855 -1.374859 2.937846
v -19.099819 -1.550182 2.632098
v -19.163525 -1.667362 2.262103
v -19.239971 -1.721691 1.843349
v -19.329157 -1.711712 1.392085
v -19.422590 -1.637113 0.924556
v -19.520271 -1.501142 0.459361
v -19.617952 -1.308782 0.014285
v -19.711388 -1.067669 -0.392865
v -19.800573 -0.786915 -0.747380
v -19.872772 -0.477376 -1.035321
v -19.936478 -0.150806 -1.245862
v -19.978947 0.179873 -1.370480
v -20.004429 0.502337 -1.404538
v -20.012924 0.804241 -1.346486
v -20.000183 1.073544 -1.199422
v -19.970453 1.300259 -0.967976
v -19.923737 1.475590 -0.661458
v -19.860031 1.592770 -0.291463
v -19.779339 1.647388 0.127292
v -19.694399 1.637112 0.578563
v -19.596718 1.562519 1.046085
v -19.499037 1.426548 1.511287
v -19.401356 1.234188 1.955585
v -19.307922 0.993075 2.363506
v -19.222982 0.712315 2.718021
v -19.146536 0.402781 3.005962
v -19.554249 -4.184781 -0.573216
v -19.668917 -4.228536 -0.421506
v -19.528767 -4.228832 -0.451688
v -19.465061 -4.180965 -0.104146
v -19.605211 -4.180965 -0.074734
v -19.367380 -4.203281 0.396663
v -19.507530 -4.203281 0.424526
v -19.282440 -4.185071 0.846378
v -19.422590 -4.184781 0.873470
v -19.363132 -4.084928 1.200122
v -19.222982 -4.084928 1.173801
v -19.197500 -4.072887 1.325511
v -19.333405 -4.072887 1.351054
v -19.694399 -4.184490 -0.543027
v -19.617952 -3.926053 -0.810849
v -19.758104 -3.926342 -0.780659
v -19.715633 -3.623562 -1.211026
v -19.851538 -3.624439 -1.179295
v -19.796326 -3.321949 -1.545415
v -19.936478 -3.323711 -1.513676
v -19.851538 -3.035619 -1.734280
v -19.991688 -3.037968 -1.701771
v -19.966206 3.991245 0.676090
v -19.936478 4.003284 0.827800
v -19.830303 4.008274 0.648998
v -19.800573 4.020610 0.800708
v -19.741116 4.120464 1.128131
v -19.881268 4.103137 1.154453
v -19.796326 4.121341 1.603397
v -19.656176 4.138965 1.577853
v -19.698647 4.099025 2.102657
v -19.558495 4.116352 2.077884
v -19.634941 4.146602 2.449428
v -19.494789 4.164218 2.425426
v -19.469307 4.120464 2.547725
v -19.605211 4.102840 2.570949
v -19.545753 3.844699 2.807811
v -19.405603 3.861438 2.784587
v -19.448072 3.542797 3.207217
v -19.312168 3.558947 3.184764
v -19.367380 3.241771 3.541599
v -19.227228 3.257343 3.519931
v -19.312168 2.956028 3.729694
v -19.172018 2.971004 3.708797
v -18.709095 -1.226841 5.493739
v -18.687860 -1.578382 5.493739
v -18.547709 -1.573093 5.476711
v -18.692106 -1.718464 5.443431
v -18.547709 -1.713475 5.426402
v -18.577438 -1.984829 5.201923
v -18.717588 -1.989239 5.219730
v -18.743071 -2.343998 4.963519
v -18.602921 -2.340183 4.944942
v -18.649637 -2.690838 4.603587
v -18.789787 -2.694065 4.622943
v -18.840752 -2.911092 4.284686
v -18.700600 -2.908741 4.264560
v -18.857740 -3.018285 4.163936
v -18.717588 -3.016232 4.143810
v -18.568943 -1.220676 5.476711
v -18.734577 -0.789853 5.522380
v -18.590179 -0.782804 5.504580
v -18.628403 -0.294117 5.464328
v -18.772800 -0.302052 5.482127
v -18.679367 0.090014 5.342029
v -18.819517 0.081203 5.359828
v -18.692106 0.250064 5.317256
v -18.832258 0.240673 5.335063
v -20.267744 -1.066205 -3.261471
v -20.229521 -1.511417 -3.201871
v -20.204039 -1.454740 -3.040868
v -20.144581 -1.693212 -2.816395
v -20.170063 -1.759876 -2.968106
v -20.123346 -1.807744 -2.747502
v -20.148827 -1.878223 -2.897671
v -20.089371 -2.101421 -2.658490
v -20.110605 -2.183949 -2.804013
v -20.029911 -2.427701 -2.471173
v -20.051147 -2.523144 -2.608952
v -19.970453 -2.838558 -2.286175
v -19.953466 -2.730778 -2.160008
v -19.881268 -2.929302 -1.843419
v -19.894009 -3.045307 -1.956433
v -19.851538 -3.035619 -1.734280
v -19.864279 -3.155140 -1.843419
v -20.297474 -1.107609 -3.431760
v -20.344189 -0.690000 -3.529294
v -20.314461 -0.664745 -3.355130
v -20.365425 -0.325542 -3.516133
v -20.331448 -0.314388 -3.343518
v -18.993645 2.363086 4.444911
v -19.133795 2.349575 4.464259
v -18.934185 2.037106 4.632228
v -19.074337 2.023890 4.651584
v -18.900209 1.743130 4.722019
v -19.040361 1.730793 4.740596
v -18.878975 1.628887 4.790133
v -19.019127 1.616558 4.809482
v -18.819517 1.390124 5.014606
v -18.963915 1.378384 5.033183
v -18.755812 1.001887 5.235980
v -18.895962 0.991015 5.253787
v -18.853493 0.590443 5.346675
v -18.713341 0.600430 5.329646
v -18.692106 0.250064 5.317256
v -18.832258 0.240673 5.335063
v -19.070089 2.666164 4.134517
v -19.210241 2.651775 4.154643
v -19.282440 2.850299 3.838062
v -19.146536 2.864986 3.817157
v -19.312168 2.956028 3.729694
v -19.172018 2.971004 3.708797
v -20.365425 -0.325542 -3.516133
v -20.331448 -0.314388 -3.343518
v -20.378166 -0.159618 -3.541676
v -20.348436 -0.154622 -3.367512
v -20.395153 0.229511 -3.490590
v -20.429131 0.240077 -3.669393
v -20.467354 0.748142 -3.711194
v -20.433376 0.718189 -3.530835
v -20.488588 1.203640 -3.681775
v -20.454613 1.156063 -3.502203
v -20.475847 1.508480 -3.502972
v -20.514069 1.570446 -3.682553
v -20.475847 1.648860 -3.452664
v -20.514069 1.715816 -3.629918
v -20.450365 1.920216 -3.228184
v -20.484341 1.998043 -3.396931
v -20.454613 2.368076 -3.129887
v -20.420635 2.275859 -2.971204
v -20.378166 2.626514 -2.629079
v -20.407894 2.732830 -2.773823
v -20.322956 2.844135 -2.290823
v -20.356930 2.959255 -2.421635
vn 0.9805 0.0589 -0.1876
vn 0.9805 0.0589 -0.1877
vn 0.9804 0.0593 -0.1879
vn 0.9805 0.0590 -0.1876
vn 0.9802 0.0633 -0.1875
vn 0.9802 0.0632 -0.1876
vn 0.9805 0.0590 -0.1877
vn 0.9805 0.0591 -0.1876
vn 0.9805 0.0591 -0.1877
vn 0.9805 0.0589 -0.1875
vn 0.9804 0.0589 -0.1878
vn 0.1330 0.7739 0.6192
vn -0.0019 1.0000 -0.0085
vn -0.0019 1.0000 -0.0084
vn -0.0057 0.9995 -0.0300
vn 0.0043 1.0000 -0.0000
vn -0.0022 1.0000 0.0038
vn -0.0244 0.9890 -0.1460
vn -0.0395 0.9743 -0.2218
vn 0.0113 0.9976 0.0688
vn 0.1341 0.7738 0.6190
vn 0.1367 0.7598 0.6357
vn 0.1368 0.7598 0.6357
vn 0.1313 0.7820 0.6093
vn 0.1557 0.6780 0.7184
vn 0.1686 0.6181 0.7678
vn 0.1068 -0.9902 -0.0894
vn 0.1068 -0.9902 -0.0895
vn 0.1615 -0.9670 0.1972
vn 0.1453 -0.9816 0.1241
vn 0.1184 -0.9925 -0.0295
vn 0.1262 -0.9920 0.0074
vn 0.1211 -0.9925 -0.0150
vn 0.1214 -0.9925 -0.0150
vn -0.0151 -0.7655 -0.6432
vn -0.0188 -0.7512 -0.6598
vn -0.0076 -0.7738 -0.6334
vn -0.0075 -0.7738 -0.6334
vn -0.0376 -0.6683 -0.7430
vn -0.0547 -0.6112 -0.7896
vn -0.1205 0.0284 -0.9923
vn -0.1260 0.0938 -0.9876
vn -0.1261 0.0938 -0.9876
vn -0.1242 0.5580 -0.8205
vn -0.1167 0.6112 -0.7828
vn -0.1186 0.6486 -0.7519
vn -0.1186 0.6485 -0.7519
vn -0.1035 0.7710 -0.6284
vn -0.1035 0.7710 -0.6283
vn -0.0960 0.8186 -0.5662
vn -0.1166 0.6586 -0.7434
vn -0.1166 0.6585 -0.7435
vn -0.1205 -0.0196 -0.9925
vn -0.1111 -0.1932 -0.9748
vn -0.1017 -0.2697 -0.9576
vn -0.1205 -0.0329 -0.9922
vn 0.9816 0.0633 -0.1801
vn 0.9813 0.0677 -0.1802
vn 0.9816 0.0633 -0.1799
vn 0.9813 0.0676 -0.1803
vn 0.9813 0.0677 -0.1803
vn 0.9799 0.0677 -0.1877
vn -0.0490 -0.6249 -0.7792
vn -0.0885 -0.4172 -0.9045
vn -0.0490 -0.6250 -0.7791
vn -0.0942 -0.3690 -0.9246
vn -0.0434 -0.6452 -0.7628
vn -0.0433 -0.6452 -0.7628
vn -0.0546 -0.5867 -0.8079
vn -0.0546 -0.5868 -0.8079
vn -0.0848 -0.3771 -0.9223
vn -0.1148 -0.1155 -0.9867
vn -0.1205 -0.0328 -0.9922
vn -0.0076 -0.7820 -0.6232
vn 0.0019 -0.8136 -0.5814
vn -0.0547 -0.6114 -0.7894
vn -0.0547 -0.6112 -0.7895
vn 0.9816 0.0636 -0.1802
vn 0.9819 0.0590 -0.1802
vn 0.9819 0.0590 -0.1801
vn 0.9819 0.0589 -0.1801
vn 0.9805 0.0591 -0.1875
vn 0.9807 0.0546 -0.1876
vt 0.432988 0.617241
vt 0.428728 0.621375
vt 0.416434 0.583073
vt 0.423981 0.624050
vt 0.418991 0.625144
vt 0.413878 0.624658
vt 0.408888 0.622591
vt 0.404262 0.618943
vt 0.400002 0.613958
vt 0.396351 0.607756
vt 0.393551 0.600704
vt 0.391604 0.592922
vt 0.390630 0.584654
vt 0.390630 0.576507
vt 0.391604 0.568482
vt 0.393551 0.561065
vt 0.396351 0.554499
vt 0.400002 0.549027
vt 0.404262 0.544893
vt 0.408888 0.542218
vt 0.413878 0.541002
vt 0.418991 0.541610
vt 0.423981 0.543677
vt 0.428728 0.547325
vt 0.432988 0.552310
vt 0.436640 0.558390
vt 0.439440 0.565563
vt 0.441387 0.573345
vt 0.442361 0.581492
vt 0.442361 0.589761
vt 0.441387 0.597786
vt 0.439440 0.605203
vt 0.436640 0.611769
vt 0.596093 0.824921
vt 0.598284 0.822611
vt 0.598284 0.824921
vt 0.604248 0.824800
vt 0.604248 0.822490
vt 0.612769 0.824678
vt 0.612769 0.822246
vt 0.620437 0.824435
vt 0.620315 0.822125
vt 0.626158 0.821882
vt 0.626158 0.824192
vt 0.628714 0.824192
vt 0.628714 0.821760
vt 0.596093 0.822611
vt 0.590129 0.824800
vt 0.590251 0.822368
vt 0.581608 0.824557
vt 0.581730 0.822246
vt 0.574062 0.824435
vt 0.574062 0.822003
vt 0.568219 0.824192
vt 0.568341 0.821760
vt 0.216083 0.822976
vt 0.215962 0.820544
vt 0.218639 0.822854
vt 0.218518 0.820544
vt 0.224360 0.820301
vt 0.224360 0.822611
vt 0.232029 0.822490
vt 0.231907 0.820058
vt 0.240427 0.822246
vt 0.240427 0.819936
vt 0.246392 0.822125
vt 0.246392 0.819815
vt 0.248583 0.819815
vt 0.248583 0.822125
vt 0.254547 0.822368
vt 0.254547 0.819936
vt 0.263067 0.822490
vt 0.263067 0.820179
vt 0.270614 0.822733
vt 0.270736 0.820301
vt 0.276456 0.822976
vt 0.276456 0.820544
vt 0.409375 0.665878
vt 0.406819 0.660041
vt 0.409253 0.660041
vt 0.409253 0.657488
vt 0.406819 0.657488
vt 0.407062 0.651651
vt 0.409375 0.651651
vt 0.409496 0.644356
vt 0.407184 0.644356
vt 0.407427 0.636209
vt 0.409740 0.636209
vt 0.410105 0.629400
vt 0.407792 0.629400
vt 0.410227 0.626725
vt 0.407792 0.626725
vt 0.407062 0.665878
vt 0.409496 0.673173
vt 0.407184 0.673173
vt 0.407427 0.681442
vt 0.409740 0.681320
vt 0.407792 0.688129
vt 0.410105 0.688129
vt 0.407792 0.690926
vt 0.410227 0.690804
vt 0.767962 0.659555
vt 0.767962 0.652016
vt 0.770883 0.652624
vt 0.766745 0.646666
vt 0.769544 0.647031
vt 0.766745 0.644356
vt 0.769544 0.644721
vt 0.767962 0.639370
vt 0.770761 0.639492
vt 0.767962 0.633048
vt 0.770761 0.632926
vt 0.768814 0.625509
vt 0.766014 0.625995
vt 0.763093 0.620280
vt 0.765771 0.619672
vt 0.762484 0.617849
vt 0.765041 0.617119
vt 0.770761 0.660528
vt 0.768570 0.667337
vt 0.765893 0.666121
vt 0.765284 0.672444
vt 0.762728 0.671106
vt 0.925467 0.826502
vt 0.919138 0.826502
vt 0.925467 0.824192
vt 0.919138 0.824192
vt 0.914026 0.826380
vt 0.914026 0.824070
vt 0.911835 0.826380
vt 0.911835 0.824070
vt 0.906236 0.826502
vt 0.906236 0.824192
vt 0.898689 0.826502
vt 0.898689 0.824192
vt 0.891873 0.824070
vt 0.891751 0.826380
vt 0.885908 0.826137
vt 0.886030 0.823827
vt 0.932892 0.826380
vt 0.932892 0.824070
vt 0.939222 0.823827
vt 0.939222 0.826137
vt 0.941778 0.823827
vt 0.941778 0.826137
vt 0.001856 0.814951
vt 0.004412 0.813613
vt 0.002952 0.817626
vt 0.005386 0.816288
vt 0.010742 0.812276
vt 0.010011 0.809357
vt 0.017801 0.805831
vt 0.018288 0.808993
vt 0.025105 0.803886
vt 0.025348 0.807047
vt 0.030947 0.805102
vt 0.030947 0.801819
vt 0.033382 0.805102
vt 0.033503 0.801940
vt 0.038859 0.807290
vt 0.039224 0.804129
vt 0.046406 0.806439
vt 0.045797 0.809479
vt 0.053222 0.813005
vt 0.054074 0.810087
vt 0.058456 0.817261
vt 0.059551 0.814586
s 1
f 1/1/1 3/2/2 2/3/3
f 3/2/2 4/4/1 2/3/3
f 4/4/1 5/5/4 2/3/3
f 5/5/4 6/6/4 2/3/3
f 6/6/4 7/7/4 2/3/3
f 7/7/4 8/8/1 2/3/3
f 8/8/1 9/9/5 2/3/3
f 9/9/5 10/10/6 2/3/3
f 10/10/6 11/11/5 2/3/3
f 11/11/5 12/12/5 2/3/3
f 12/12/5 13/13/5 2/3/3
f 13/13/5 14/14/5 2/3/3
f 14/14/5 15/15/4 2/3/3
f 15/15/4 16/16/4 2/3/3
f 16/16/4 17/17/1 2/3/3
f 17/17/1 18/18/7 2/3/3
f 18/18/7 19/19/1 2/3/3
f 19/19/1 20/20/8 2/3/3
f 20/20/8 21/21/9 2/3/3
f 21/21/9 22/22/1 2/3/3
f 22/22/1 23/23/1 2/3/3
f 23/23/1 24/24/8 2/3/3
f 24/24/8 25/25/4 2/3/3
f 25/25/4 26/26/1 2/3/3
f 26/26/1 27/27/4 2/3/3
f 27/27/4 28/28/4 2/3/3
f 28/28/4 29/29/7 2/3/3
f 29/29/7 30/30/10 2/3/3
f 30/30/10 31/31/11 2/3/3
f 31/31/11 32/32/4 2/3/3
f 32/32/4 33/33/4 2/3/3
f 2/3/3 33/33/4 1/1/1
f 34/34/12 35/35/13 36/36/14
f 36/36/14 35/35/13 37/37/15
f 35/35/13 38/38/15 37/37/15
f 37/37/15 38/38/15 39/39/16
f 38/38/15 40/40/17 39/39/16
f 39/39/16 40/40/17 41/41/18
f 40/40/17 42/42/18 41/41/18
f 42/42/18 43/43/19 41/41/18
f 41/41/18 43/43/19 44/44/19
f 44/44/19 43/43/19 45/45/20
f 43/43/19 46/46/20 45/45/20
f 35/35/13 34/34/12 47/47/21
f 34/34/12 48/48/22 47/47/21
f 47/47/21 48/48/22 49/49/23
f 48/48/22 50/50/24 49/49/23
f 49/49/23 50/50/24 51/51/24
f 50/50/24 52/52/25 51/51/24
f 51/51/24 52/52/25 53/53/25
f 52/52/25 54/54/26 53/53/25
f 53/53/25 54/54/26 55/55/26
f 56/56/27 58/57/28 57/58/29
f 58/57/28 59/59/29 57/58/29
f 59/59/29 60/60/30 57/58/29
f 57/58/29 60/60/30 61/61/30
f 61/61/30 60/60/30 62/62/31
f 60/60/30 63/63/31 62/62/31
f 62/62/31 63/63/31 64/64/32
f 63/63/31 65/65/32 64/64/32
f 64/64/32 65/65/32 66/66/33
f 65/65/32 67/67/34 66/66/33
f 67/67/34 68/68/35 66/66/33
f 66/66/33 68/68/35 69/69/35
f 69/69/35 68/68/35 70/70/36
f 68/68/35 71/71/36 70/70/36
f 70/70/36 71/71/36 72/72/37
f 71/71/36 73/73/38 72/72/37
f 72/72/37 73/73/38 74/74/39
f 73/73/38 75/75/39 74/74/39
f 74/74/39 75/75/39 76/76/40
f 75/75/39 77/77/40 76/76/40
f 78/78/41 80/79/42 79/80/43
f 79/80/43 80/79/42 81/81/44
f 80/79/42 82/82/44 81/81/44
f 82/82/44 83/83/45 81/81/44
f 81/81/44 83/83/45 84/84/45
f 84/84/45 83/83/45 85/85/46
f 83/83/45 86/86/47 85/85/46
f 86/86/47 87/87/48 85/85/46
f 85/85/46 87/87/48 88/88/49
f 88/88/49 87/87/48 89/89/50
f 87/87/48 90/90/50 89/89/50
f 89/89/50 90/90/50 91/91/51
f 90/90/50 92/92/52 91/91/51
f 80/79/42 78/78/41 93/93/41
f 78/78/41 94/94/53 93/93/41
f 93/93/41 94/94/53 95/95/53
f 95/95/53 94/94/53 96/96/54
f 94/94/53 97/97/54 96/96/54
f 96/96/54 97/97/54 98/98/55
f 97/97/54 99/99/55 98/98/55
f 98/98/55 99/99/55 100/100/56
f 99/99/55 101/101/56 100/100/56
f 102/102/57 104/103/58 103/104/59
f 104/103/58 105/105/57 103/104/59
f 103/104/59 105/105/57 106/106/60
f 105/105/57 107/107/57 106/106/60
f 106/106/60 107/107/57 108/108/57
f 107/107/57 109/109/57 108/108/57
f 108/108/57 109/109/57 110/110/57
f 109/109/57 111/111/61 110/110/57
f 110/110/57 111/111/61 112/112/57
f 112/112/57 111/111/61 113/113/62
f 111/111/61 114/114/62 113/113/62
f 114/114/62 115/115/62 113/113/62
f 113/113/62 115/115/62 116/116/62
f 115/115/62 117/117/61 116/116/62
f 116/116/62 117/117/61 118/118/61
f 103/104/59 119/119/57 102/102/57
f 119/119/57 120/120/57 102/102/57
f 102/102/57 120/120/57 121/121/57
f 120/120/57 122/122/57 121/121/57
f 121/121/57 122/122/57 123/123/57
f 124/124/63 126/125/64 125/126/65
f 125/126/65 126/125/64 127/127/64
f 126/125/64 128/128/66 127/127/64
f 127/127/64 128/128/66 129/129/66
f 128/128/66 130/130/67 129/129/66
f 129/129/66 130/130/67 131/131/68
f 130/130/67 132/132/69 131/131/68
f 131/131/68 132/132/69 133/133/70
f 132/132/69 134/134/71 133/133/70
f 133/133/70 134/134/71 135/135/71
f 135/135/71 134/134/71 136/136/72
f 134/134/71 137/137/72 136/136/72
f 137/137/72 138/138/73 136/136/72
f 136/136/72 138/138/73 139/139/73
f 124/124/63 125/126/65 140/140/74
f 125/126/65 141/141/74 140/140/74
f 141/141/74 142/142/75 140/140/74
f 140/140/74 142/142/75 143/143/75
f 142/142/75 144/144/76 143/143/75
f 143/143/75 144/144/76 145/145/77
f 146/146/57 148/147/57 147/148/57
f 147/148/57 148/147/57 149/149/57
f 149/149/57 148/147/57 150/150/78
f 148/147/57 151/151/57 150/150/78
f 151/151/57 152/152/79 150/150/78
f 150/150/78 152/152/79 153/153/79
f 152/152/79 154/154/80 153/153/79
f 153/153/79 154/154/80 155/155/80
f 155/155/80 154/154/80 156/156/81
f 154/154/80 157/157/79 156/156/81
f 156/156/81 157/157/79 158/158/1
f 157/157/79 159/159/82 158/158/1
f 158/158/1 159/159/82 160/160/83
f 159/159/82 161/161/83 160/160/83
f 161/161/83 162/162/83 160/160/83
f 160/160/83 162/162/83 163/163/83
f 163/163/83 162/162/83 164/164/83
f 162/162/83 165/165/83 164/164/83
f 164/164/83 165/165/83 166/166/83
f 165/165/83 167/167/83 166/166/83
