# Blender 4.3.0
# www.blender.org
mtllib hiltdeco.mtl
o hiltdeco
v 102.997574 4.642726 -10.111287
v 102.147675 4.599133 -9.966672
v 102.136780 4.654270 -10.124738
v 101.926117 4.573481 -9.934720
v 101.984238 4.494625 -9.746938
v 102.194885 4.537792 -9.817571
v 102.082291 4.409984 -9.578221
v 102.271164 4.473246 -9.683042
v 102.213058 4.325138 -9.434728
v 102.376495 4.409557 -9.567571
v 102.372864 4.246280 -9.320935
v 102.503616 4.350788 -9.476209
v 102.558105 4.179386 -9.240224
v 102.648895 4.301631 -9.410626
v 102.329285 4.168697 -9.300199
v 102.158569 4.253543 -9.417912
v 102.016922 4.344379 -9.567571
v 101.915222 4.434352 -9.744137
v 101.853485 4.517704 -9.941449
v 101.911591 4.642726 -10.134267
v 101.835327 4.590152 -10.151647
v 101.933380 4.700222 -10.336621
v 101.864380 4.649356 -10.365209
v 101.933380 4.695095 -10.572606
v 101.998764 4.745533 -10.533368
v 102.205780 4.740184 -10.439755
v 102.154938 4.701503 -10.285054
v 102.289322 4.770533 -10.583249
v 102.104095 4.779514 -10.715535
v 102.045975 4.728862 -10.764867
v 102.191254 4.753223 -10.933026
v 102.242111 4.804515 -10.874730
v 102.409180 4.823108 -11.005330
v 102.532669 4.811359 -10.810826
v 102.398285 4.793613 -10.708814
v 102.372864 4.770961 -11.070912
v 102.598053 4.837429 -11.100621
v 102.572617 4.785067 -11.172368
v 102.794174 4.796825 -11.232907
v 102.805069 4.848972 -11.157796
v 103.015732 4.857944 -11.174054
v 103.019363 4.807079 -11.250279
v 103.226395 4.863506 -11.148824
v 103.244553 4.814136 -11.223935
v 103.429779 4.863079 -11.083249
v 103.462479 4.815845 -11.155553
v 103.658615 4.808574 -11.047933
v 103.615021 4.854099 -10.980107
v 103.778458 4.833156 -10.845021
v 103.832947 4.788913 -10.904996
v 103.909210 4.797679 -10.682469
v 103.970963 4.753437 -10.734593
v 104.007278 4.746173 -10.501416
v 104.076294 4.700435 -10.544019
v 104.065399 4.678852 -10.309155
v 104.138031 4.630336 -10.341664
v 104.152557 4.544849 -10.137074
v 104.079926 4.597850 -10.114087
v 104.058136 4.507442 -9.924069
v 104.127136 4.448459 -9.937520
v 103.989120 4.412982 -9.746381
v 104.054489 4.347155 -9.750867
v 103.887421 4.320865 -9.586072
v 103.941910 4.248416 -9.583264
v 103.745773 4.237941 -9.448743
v 103.792999 4.159290 -9.439214
v 103.578705 4.170406 -9.336637
v 103.615021 4.086627 -9.322621
v 103.389832 4.123386 -9.253675
v 103.411621 4.036190 -9.235181
v 103.182816 4.100521 -9.200986
v 103.190079 4.011402 -9.179685
v 102.972153 4.102870 -9.180249
v 102.964890 4.014179 -9.157262
v 102.761490 4.130016 -9.193135
v 102.739700 4.043453 -9.169599
v 102.525406 4.096675 -9.217244
v 102.808701 4.265941 -9.372510
v 102.975784 4.246494 -9.361295
v 103.146484 4.245426 -9.377553
v 103.306290 4.262737 -9.419591
v 103.458847 4.297786 -9.486295
v 103.593231 4.348011 -9.575978
v 103.702194 4.409984 -9.686406
v 103.785721 4.479023 -9.814763
v 103.836578 4.550403 -9.957143
v 103.858368 4.619861 -10.109044
v 103.843842 4.682697 -10.264310
v 103.796616 4.736339 -10.416211
v 103.720352 4.778873 -10.559712
v 103.615021 4.809642 -10.686948
v 103.487900 4.829525 -10.793454
v 103.338989 4.840206 -10.873609
v 103.179184 4.843196 -10.924619
v 103.012100 4.840847 -10.944234
v 102.845032 4.834438 -10.930783
v 102.681580 4.824604 -10.885938
v 101.831696 4.381137 -10.216107
v 101.853485 4.517704 -9.941449
v 101.849854 4.312961 -10.018796
v 101.915222 4.434352 -9.744137
v 101.907959 4.234951 -9.833821
v 102.016922 4.344379 -9.567571
v 102.006027 4.150531 -9.669026
v 102.158569 4.253543 -9.417912
v 102.144043 4.065685 -9.530019
v 102.329285 4.168697 -9.300199
v 102.314743 3.986606 -9.420712
v 102.525406 4.096675 -9.217244
v 102.510880 3.919498 -9.344480
v 102.739700 4.043453 -9.169599
v 102.725174 3.870128 -9.301877
v 102.964890 4.014179 -9.157262
v 102.950363 3.843196 -9.292912
v 103.190079 4.011402 -9.179685
v 103.175537 3.841274 -9.316458
v 101.835327 4.590152 -10.151647
v 103.665863 4.592075 -11.078198
v 103.462479 4.815845 -11.155553
v 103.469742 4.598064 -11.177976
v 103.244553 4.814136 -11.223935
v 103.658615 4.808574 -11.047933
v 103.836578 4.573909 -10.946477
v 103.832947 4.788913 -10.904996
v 103.974594 4.540997 -10.787282
v 103.970963 4.753437 -10.734593
v 104.076294 4.491626 -10.609036
v 104.076294 4.700435 -10.544019
v 104.134399 4.425800 -10.419576
v 104.138031 4.630336 -10.341664
v 104.148941 4.345448 -10.227315
v 104.152557 4.544849 -10.137074
v 103.251816 4.595928 -11.239636
v 103.019363 4.807079 -11.250279
v 103.026627 4.588443 -11.262052
v 104.152557 4.544849 -10.137074
v 104.127136 4.448459 -9.937520
v 104.119873 4.254825 -10.039540
v 104.047241 4.159503 -9.862973
v 104.054489 4.347155 -9.750867
v 103.931015 4.066326 -9.704343
v 103.941910 4.248416 -9.583264
v 103.782104 3.982119 -9.567571
v 103.792999 4.159290 -9.439214
v 103.600494 3.913303 -9.455464
v 103.615021 4.086627 -9.322621
v 103.397095 3.865215 -9.371388
v 103.411621 4.036190 -9.235181
v 103.175537 3.841274 -9.316458
v 103.190079 4.011402 -9.179685
v 104.148941 4.345448 -10.227315
vn 0.0133 0.9365 0.3504
vn -0.0189 0.9523 0.3047
vn -0.0114 0.9334 0.3586
vn -0.2320 0.8931 0.3854
vn -0.2076 0.8522 0.4802
vn -0.0038 0.9133 0.4072
vn -0.1768 0.8085 0.5613
vn 0.0208 0.8927 0.4502
vn -0.1387 0.7625 0.6319
vn 0.0359 0.8743 0.4841
vn -0.0867 0.7185 0.6901
vn 0.0566 0.8613 0.5050
vn -0.0415 0.6843 0.7280
vn 0.0659 0.8522 0.5190
vn -0.2984 0.4092 0.8623
vn -0.3979 0.4911 0.7749
vn -0.4776 0.5725 0.6664
vn -0.5415 0.6486 0.5349
vn -0.5807 0.7156 0.3882
vn -0.2452 0.9253 0.2892
vn -0.6028 0.7653 0.2256
vn -0.2421 0.9509 0.1927
vn -0.5952 0.8007 0.0679
vn -0.5634 0.8212 -0.0904
vn -0.2286 0.9681 0.1028
vn -0.0076 0.9762 0.2166
vn -0.0151 0.9670 0.2545
vn -0.0019 0.9816 0.1910
vn -0.2065 0.9781 0.0264
vn -0.5154 0.8261 -0.2278
vn -0.4412 0.8261 -0.3505
vn -0.1793 0.9832 -0.0340
vn -0.1478 0.9855 -0.0832
vn 0.0019 0.9855 0.1695
vn 0.0076 0.9848 0.1737
vn -0.3523 0.8237 -0.4444
vn -0.1090 0.9869 -0.1185
vn -0.2520 0.8212 -0.5121
vn -0.1367 0.8237 -0.5503
vn -0.0740 0.9890 -0.1282
vn -0.0301 0.9914 -0.1272
vn -0.0189 0.8310 -0.5560
vn 0.0114 0.9935 -0.1130
vn 0.0977 0.8453 -0.5253
vn 0.0617 0.9950 -0.0791
vn 0.2157 0.8590 -0.4643
vn 0.3215 0.8678 -0.3788
vn 0.1094 0.9935 -0.0299
vn 0.1565 0.9870 0.0377
vn 0.4242 0.8678 -0.2587
vn 0.2031 0.9723 0.1158
vn 0.5036 0.8545 -0.1271
vn 0.2397 0.9496 0.2022
vn 0.5666 0.8237 0.0227
vn 0.2632 0.9168 0.3004
vn 0.6078 0.7737 0.1788
vn 0.6244 0.7063 0.3336
vn 0.2770 0.8764 0.3940
vn 0.2782 0.8310 0.4817
vn 0.6222 0.6248 0.4717
vn 0.2670 0.7820 0.5632
vn 0.5872 0.5397 0.6033
vn 0.2475 0.7365 0.6295
vn 0.5320 0.4526 0.7156
vn 0.2159 0.6970 0.6838
vn 0.4618 0.3731 0.8047
vn 0.1850 0.6682 0.7206
vn 0.3745 0.3073 0.8748
vn 0.1446 0.6485 0.7474
vn 0.2647 0.2655 0.9271
vn 0.1016 0.6418 0.7601
vn 0.1542 0.2486 0.9563
vn 0.0585 0.6452 0.7618
vn 0.0396 0.2528 0.9667
vn 0.0113 0.6584 0.7526
vn -0.0811 0.2865 0.9546
vn -0.1913 0.3404 0.9206
vn 0.0697 0.8476 0.5260
vn 0.0622 0.8476 0.5269
vn 0.0528 0.8453 0.5317
vn 0.0378 0.8453 0.5330
vn 0.0321 0.8476 0.5296
vn 0.0340 0.8499 0.5258
vn 0.0340 0.8590 0.5108
vn 0.0435 0.8743 0.4835
vn 0.0510 0.8947 0.4438
vn 0.0509 0.9151 0.4000
vn 0.0434 0.9365 0.3480
vn 0.0283 0.9549 0.2956
vn 0.0076 0.9681 0.2506
vn -0.0151 0.9762 0.2162
vn -0.0264 0.9807 0.1936
vn -0.0394 0.9824 0.1826
vn -0.0376 0.9840 0.1741
vn -0.0302 0.9848 0.1712
vn -0.0207 0.9855 0.1683
vn -0.0057 0.9855 0.1695
vn -0.9996 0.0153 -0.0226
vn -0.9832 -0.0459 0.1765
vn -0.9832 -0.0458 0.1765
vn -0.9275 -0.1286 0.3510
vn -0.8321 -0.2274 0.5058
vn -0.7064 -0.3322 0.6251
vn -0.7064 -0.3322 0.6250
vn -0.5539 -0.4291 0.7135
vn -0.3836 -0.5175 0.7649
vn -0.2069 -0.5832 0.7855
vn -0.0170 -0.6181 0.7859
vn -0.0169 -0.6181 0.7859
vn 0.1611 -0.6250 0.7638
vn -0.9996 0.0154 -0.0226
vn 0.5500 0.1329 -0.8245
vn 0.3809 0.1068 -0.9184
vn 0.3810 0.1068 -0.9184
vn 0.1970 0.0808 -0.9771
vn 0.5501 0.1329 -0.8245
vn 0.7042 0.1458 -0.6949
vn 0.7042 0.1459 -0.6949
vn 0.8283 0.1415 -0.5421
vn 0.8283 0.1416 -0.5421
vn 0.9257 0.1111 -0.3616
vn 0.9257 0.1112 -0.3615
vn 0.9837 0.0502 -0.1729
vn 0.9837 0.0503 -0.1728
vn 0.9994 -0.0327 0.0150
vn 0.9994 -0.0327 0.0151
vn 0.0132 0.0590 -0.9982
vn 0.9993 -0.0328 0.0152
vn 0.9727 -0.1371 0.1874
vn 0.9712 -0.1372 0.1949
vn 0.9031 -0.2528 0.3471
vn 0.9031 -0.2528 0.3470
vn 0.8009 -0.3649 0.4748
vn 0.8009 -0.3649 0.4747
vn 0.6687 -0.4643 0.5808
vn 0.5134 -0.5471 0.6611
vn 0.3463 -0.6008 0.7205
vn 0.1611 -0.6249 0.7639
vn 0.1612 -0.6249 0.7639
vt 0.341694 0.752734
vt 0.330131 0.756362
vt 0.329644 0.754044
vt 0.326479 0.754447
vt 0.326479 0.751423
vt 0.329644 0.751726
vt 0.326966 0.748501
vt 0.330009 0.749408
vt 0.328061 0.745679
vt 0.330983 0.747190
vt 0.329765 0.743159
vt 0.332200 0.745175
vt 0.331835 0.741042
vt 0.333904 0.743562
vt 0.328670 0.742353
vt 0.326966 0.745175
vt 0.325749 0.748198
vt 0.325140 0.751323
vt 0.325140 0.754548
vt 0.327088 0.757370
vt 0.325749 0.757672
vt 0.328183 0.760091
vt 0.326966 0.760696
vt 0.328792 0.763417
vt 0.329887 0.762611
vt 0.332322 0.760595
vt 0.330983 0.758579
vt 0.334026 0.762207
vt 0.331956 0.764727
vt 0.331104 0.765735
vt 0.333782 0.767650
vt 0.334513 0.766440
vt 0.337312 0.767650
vt 0.338164 0.764425
vt 0.335973 0.763518
vt 0.336825 0.768859
vt 0.340233 0.768255
vt 0.340112 0.769565
vt 0.343520 0.769565
vt 0.343276 0.768154
vt 0.346319 0.767549
vt 0.346684 0.768859
vt 0.349119 0.766340
vt 0.349727 0.767549
vt 0.351675 0.764626
vt 0.352527 0.765634
vt 0.354840 0.763316
vt 0.353744 0.762510
vt 0.355326 0.759990
vt 0.356544 0.760595
vt 0.356544 0.757168
vt 0.357761 0.757571
vt 0.357031 0.754245
vt 0.358369 0.754346
vt 0.357031 0.751222
vt 0.358369 0.751121
vt 0.357639 0.747997
vt 0.356422 0.748299
vt 0.355326 0.745578
vt 0.356422 0.744973
vt 0.353622 0.743058
vt 0.354718 0.742252
vt 0.351553 0.740942
vt 0.352405 0.739934
vt 0.348997 0.739228
vt 0.349606 0.738120
vt 0.346198 0.738120
vt 0.346563 0.736809
vt 0.343155 0.737515
vt 0.343398 0.736104
vt 0.340112 0.737515
vt 0.339990 0.736104
vt 0.337190 0.738120
vt 0.336703 0.736809
vt 0.334391 0.739329
vt 0.333660 0.738120
vt 0.330983 0.740035
vt 0.335851 0.742151
vt 0.338164 0.741244
vt 0.340477 0.740740
vt 0.342911 0.740740
vt 0.345224 0.741244
vt 0.347536 0.742151
vt 0.349484 0.743461
vt 0.351188 0.745074
vt 0.352527 0.747090
vt 0.353379 0.749307
vt 0.353866 0.751524
vt 0.353866 0.753943
vt 0.353501 0.756261
vt 0.352527 0.758478
vt 0.351188 0.760494
vt 0.349606 0.762107
vt 0.347536 0.763518
vt 0.345345 0.764425
vt 0.343033 0.764929
vt 0.340598 0.764929
vt 0.477532 0.557914
vt 0.476924 0.560837
vt 0.473881 0.560333
vt 0.473516 0.563457
vt 0.476680 0.563760
vt 0.473394 0.566683
vt 0.476437 0.566783
vt 0.473272 0.569908
vt 0.476437 0.569807
vt 0.473394 0.573032
vt 0.476559 0.572831
vt 0.473637 0.576257
vt 0.476802 0.576056
vt 0.473881 0.579482
vt 0.477045 0.579180
vt 0.474246 0.582708
vt 0.477289 0.582405
vt 0.474489 0.585933
vt 0.477654 0.585630
vt 0.474489 0.557209
vt 0.841594 0.493210
vt 0.841837 0.496334
vt 0.838794 0.496636
vt 0.839038 0.499861
vt 0.838551 0.493411
vt 0.841472 0.490186
vt 0.838429 0.490186
vt 0.841472 0.487062
vt 0.838307 0.487062
vt 0.841594 0.484139
vt 0.838551 0.483837
vt 0.841959 0.481115
vt 0.838794 0.480712
vt 0.842446 0.478192
vt 0.839403 0.477588
vt 0.842202 0.499458
vt 0.839403 0.503087
vt 0.842446 0.502683
vt 0.611910 0.677043
vt 0.611667 0.673818
vt 0.614710 0.673617
vt 0.614588 0.670593
vt 0.611423 0.670694
vt 0.614588 0.667469
vt 0.611423 0.667469
vt 0.614588 0.664344
vt 0.611545 0.664243
vt 0.614831 0.661220
vt 0.611667 0.661018
vt 0.614953 0.657995
vt 0.611788 0.657793
vt 0.615075 0.654770
vt 0.612032 0.654568
vt 0.615075 0.676640
s 1
f 1/1/1 3/2/2 2/3/3
f 3/2/2 4/4/4 2/3/3
f 4/4/4 5/5/5 2/3/3
f 2/3/3 5/5/5 6/6/6
f 5/5/5 7/7/7 6/6/6
f 6/6/6 7/7/7 8/8/8
f 7/7/7 9/9/9 8/8/8
f 8/8/8 9/9/9 10/10/10
f 9/9/9 11/11/11 10/10/10
f 10/10/10 11/11/11 12/12/12
f 11/11/11 13/13/13 12/12/12
f 13/13/13 14/14/14 12/12/12
f 14/14/14 1/1/1 12/12/12
f 12/12/12 1/1/1 10/10/10
f 10/10/10 1/1/1 8/8/8
f 8/8/8 1/1/1 6/6/6
f 1/1/1 2/3/3 6/6/6
f 13/13/13 11/11/11 15/15/15
f 11/11/11 9/9/9 15/15/15
f 15/15/15 9/9/9 16/16/16
f 16/16/16 9/9/9 17/17/17
f 9/9/9 7/7/7 17/17/17
f 17/17/17 7/7/7 18/18/18
f 7/7/7 5/5/5 18/18/18
f 5/5/5 4/4/4 18/18/18
f 18/18/18 4/4/4 19/19/19
f 4/4/4 20/20/20 19/19/19
f 19/19/19 20/20/20 21/21/21
f 20/20/20 22/22/22 21/21/21
f 21/21/21 22/22/22 23/23/23
f 23/23/23 22/22/22 24/24/24
f 24/24/24 22/22/22 25/25/25
f 25/25/25 22/22/22 26/26/26
f 22/22/22 27/27/27 26/26/26
f 26/26/26 27/27/27 1/1/1
f 1/1/1 27/27/27 3/2/2
f 27/27/27 20/20/20 3/2/2
f 3/2/2 20/20/20 4/4/4
f 20/20/20 27/27/27 22/22/22
f 1/1/1 28/28/28 26/26/26
f 26/26/26 28/28/28 25/25/25
f 28/28/28 29/29/29 25/25/25
f 25/25/25 29/29/29 24/24/24
f 24/24/24 29/29/29 30/30/30
f 30/30/30 29/29/29 31/31/31
f 29/29/29 32/32/32 31/31/31
f 31/31/31 32/32/32 33/33/33
f 33/33/33 32/32/32 34/34/34
f 32/32/32 35/35/35 34/34/34
f 34/34/34 35/35/35 1/1/1
f 1/1/1 35/35/35 28/28/28
f 28/28/28 35/35/35 29/29/29
f 35/35/35 32/32/32 29/29/29
f 31/31/31 33/33/33 36/36/36
f 33/33/33 37/37/37 36/36/36
f 36/36/36 37/37/37 38/38/38
f 38/38/38 37/37/37 39/39/39
f 37/37/37 40/40/40 39/39/39
f 40/40/40 41/41/41 39/39/39
f 39/39/39 41/41/41 42/42/42
f 41/41/41 43/43/43 42/42/42
f 42/42/42 43/43/43 44/44/44
f 43/43/43 45/45/45 44/44/44
f 44/44/44 45/45/45 46/46/46
f 46/46/46 45/45/45 47/47/47
f 45/45/45 48/48/48 47/47/47
f 48/48/48 49/49/49 47/47/47
f 47/47/47 49/49/49 50/50/50
f 49/49/49 51/51/51 50/50/50
f 50/50/50 51/51/51 52/52/52
f 51/51/51 53/53/53 52/52/52
f 52/52/52 53/53/53 54/54/54
f 53/53/53 55/55/55 54/54/54
f 54/54/54 55/55/55 56/56/56
f 56/56/56 55/55/55 57/57/57
f 55/55/55 58/58/58 57/57/57
f 58/58/58 59/59/59 57/57/57
f 57/57/57 59/59/59 60/60/60
f 59/59/59 61/61/61 60/60/60
f 60/60/60 61/61/61 62/62/62
f 61/61/61 63/63/63 62/62/62
f 62/62/62 63/63/63 64/64/64
f 63/63/63 65/65/65 64/64/64
f 64/64/64 65/65/65 66/66/66
f 65/65/65 67/67/67 66/66/66
f 66/66/66 67/67/67 68/68/68
f 67/67/67 69/69/69 68/68/68
f 68/68/68 69/69/69 70/70/70
f 69/69/69 71/71/71 70/70/70
f 70/70/70 71/71/71 72/72/72
f 71/71/71 73/73/73 72/72/72
f 72/72/72 73/73/73 74/74/74
f 73/73/73 75/75/75 74/74/74
f 74/74/74 75/75/75 76/76/76
f 75/75/75 13/13/13 76/76/76
f 76/76/76 13/13/13 77/77/77
f 13/13/13 15/15/15 77/77/77
f 13/13/13 75/75/75 14/14/14
f 75/75/75 78/78/78 14/14/14
f 14/14/14 78/78/78 1/1/1
f 78/78/78 79/79/79 1/1/1
f 1/1/1 79/79/79 80/80/80
f 79/79/79 71/71/71 80/80/80
f 71/71/71 69/69/69 80/80/80
f 80/80/80 69/69/69 81/81/81
f 69/69/69 67/67/67 81/81/81
f 81/81/81 67/67/67 82/82/82
f 67/67/67 65/65/65 82/82/82
f 82/82/82 65/65/65 83/83/83
f 65/65/65 63/63/63 83/83/83
f 63/63/63 84/84/84 83/83/83
f 84/84/84 1/1/1 83/83/83
f 83/83/83 1/1/1 82/82/82
f 82/82/82 1/1/1 81/81/81
f 1/1/1 80/80/80 81/81/81
f 75/75/75 73/73/73 78/78/78
f 78/78/78 73/73/73 79/79/79
f 73/73/73 71/71/71 79/79/79
f 63/63/63 61/61/61 84/84/84
f 61/61/61 85/85/85 84/84/84
f 84/84/84 85/85/85 1/1/1
f 85/85/85 86/86/86 1/1/1
f 1/1/1 86/86/86 87/87/87
f 86/86/86 58/58/58 87/87/87
f 58/58/58 55/55/55 87/87/87
f 87/87/87 55/55/55 88/88/88
f 55/55/55 53/53/53 88/88/88
f 88/88/88 53/53/53 89/89/89
f 53/53/53 51/51/51 89/89/89
f 89/89/89 51/51/51 90/90/90
f 51/51/51 49/49/49 90/90/90
f 49/49/49 91/91/91 90/90/90
f 91/91/91 1/1/1 90/90/90
f 90/90/90 1/1/1 89/89/89
f 89/89/89 1/1/1 88/88/88
f 1/1/1 87/87/87 88/88/88
f 61/61/61 59/59/59 85/85/85
f 85/85/85 59/59/59 86/86/86
f 59/59/59 58/58/58 86/86/86
f 49/49/49 48/48/48 91/91/91
f 48/48/48 92/92/92 91/91/91
f 91/91/91 92/92/92 1/1/1
f 92/92/92 93/93/93 1/1/1
f 1/1/1 93/93/93 94/94/94
f 93/93/93 43/43/43 94/94/94
f 43/43/43 41/41/41 94/94/94
f 94/94/94 41/41/41 95/95/95
f 41/41/41 40/40/40 95/95/95
f 95/95/95 40/40/40 96/96/96
f 40/40/40 37/37/37 96/96/96
f 96/96/96 37/37/37 97/97/97
f 37/37/37 33/33/33 97/97/97
f 33/33/33 34/34/34 97/97/97
f 34/34/34 1/1/1 97/97/97
f 97/97/97 1/1/1 96/96/96
f 96/96/96 1/1/1 95/95/95
f 1/1/1 94/94/94 95/95/95
f 48/48/48 45/45/45 92/92/92
f 92/92/92 45/45/45 93/93/93
f 45/45/45 43/43/43 93/93/93
f 98/98/98 100/99/99 99/100/100
f 99/100/100 100/99/99 101/101/101
f 100/99/99 102/102/101 101/101/101
f 101/101/101 102/102/101 103/103/102
f 102/102/101 104/104/102 103/103/102
f 103/103/102 104/104/102 105/105/103
f 104/104/102 106/106/104 105/105/103
f 105/105/103 106/106/104 107/107/105
f 106/106/104 108/108/105 107/107/105
f 107/107/105 108/108/105 109/109/106
f 108/108/105 110/110/106 109/109/106
f 109/109/106 110/110/106 111/111/107
f 110/110/106 112/112/107 111/111/107
f 111/111/107 112/112/107 113/113/108
f 112/112/107 114/114/109 113/113/108
f 113/113/108 114/114/109 115/115/110
f 114/114/109 116/116/110 115/115/110
f 98/98/98 99/100/100 117/117/111
f 118/118/112 120/119/113 119/120/114
f 119/120/114 120/119/113 121/121/115
f 119/120/114 122/122/116 118/118/112
f 118/118/112 122/122/116 123/123/117
f 122/122/116 124/124/118 123/123/117
f 123/123/117 124/124/118 125/125/119
f 124/124/118 126/126/120 125/125/119
f 125/125/119 126/126/120 127/127/121
f 126/126/120 128/128/122 127/127/121
f 127/127/121 128/128/122 129/129/123
f 128/128/122 130/130/124 129/129/123
f 129/129/123 130/130/124 131/131/125
f 130/130/124 132/132/126 131/131/125
f 120/119/113 133/133/115 121/121/115
f 121/121/115 133/133/115 134/134/127
f 133/133/115 135/135/127 134/134/127
f 136/136/128 137/137/129 138/138/130
f 138/138/130 137/137/129 139/139/131
f 137/137/129 140/140/132 139/139/131
f 139/139/131 140/140/132 141/141/133
f 140/140/132 142/142/134 141/141/133
f 141/141/133 142/142/134 143/143/135
f 142/142/134 144/144/135 143/143/135
f 143/143/135 144/144/135 145/145/136
f 144/144/135 146/146/136 145/145/136
f 145/145/136 146/146/136 147/147/137
f 146/146/136 148/148/137 147/147/137
f 147/147/137 148/148/137 149/149/138
f 148/148/137 150/150/139 149/149/138
f 138/138/130 151/151/128 136/136/128
