# Blender 4.3.0
# www.blender.org
mtllib hiltribbon_005.mtl
o hiltribbon.005
v 4.253302 -0.839214 0.088680
v 4.275097 0.917575 0.718150
v 4.325945 -0.980053 0.303920
v 4.914335 -0.575910 1.883495
v 4.892540 -1.184582 1.590343
v 4.805372 -1.400440 1.234966
v 4.830797 0.450809 1.898067
v 4.910701 0.017597 2.020824
v -2.346112 -0.282467 3.131793
v -2.349746 0.128306 2.989986
v -2.342483 -0.875973 2.994464
v -2.186302 0.557240 1.832485
v -2.106398 -1.244854 1.285411
v -1.957484 -0.971081 1.076335
v -2.248048 -1.690250 2.347614
v -2.295264 -1.503675 2.714763
v 9.192877 0.830807 0.427799
v 8.226755 0.784214 0.551120
v 8.212227 0.889361 0.435085
v 7.431337 0.749804 0.641925
v 7.413177 0.855166 0.525333
v 5.041456 0.734844 0.844272
v 7.391384 0.759418 0.323543
v 5.019663 0.638882 0.643604
v 1.347671 0.537150 1.370052
v 1.325880 0.440975 1.169383
v 5.063248 0.629695 0.960864
v 1.365832 0.431788 1.486644
v 8.197699 0.793186 0.234416
v 9.203773 0.935314 0.312892
v 9.207405 0.838497 0.114467
v 10.344233 0.912876 -0.083966
v 10.300650 1.013752 0.103252
v 10.257065 0.912448 0.208629
v 10.344233 0.912876 -0.083966
v 9.207405 0.838497 0.114467
v 10.351498 0.314030 -0.394498
v 9.196510 0.244564 -0.209523
v 10.347866 -0.392109 -0.560979
v 9.211037 -0.466480 -0.362546
v 8.183170 0.199687 -0.090687
v 8.201330 -0.511791 -0.242596
v 7.391384 -0.545559 -0.153471
v 7.373224 0.166133 -0.002125
v 5.019663 -0.666096 0.166591
v 5.001505 0.045375 0.317935
v 5.019663 0.638882 0.643604
v 1.325880 0.440975 1.169383
v 1.307717 -0.152524 0.844272
v 1.325880 -0.864002 0.692371
v 8.197699 0.793186 0.234416
v 7.391384 0.759418 0.323543
v 1.369462 -0.967228 0.975436
v 5.066881 -0.097385 0.709186
v 5.063248 -0.769321 0.449664
v 7.434969 0.022724 0.390247
v 7.434969 -0.649212 0.130718
v 8.226755 -0.614803 0.039913
v 8.226755 0.057133 0.299442
v 9.196510 0.103939 0.176120
v 8.226755 0.784214 0.551120
v 9.192877 0.830807 0.427799
v 10.257065 0.912448 0.208629
v 10.253433 0.186007 -0.044728
v 9.196510 -0.568424 -0.083401
v 10.257065 -0.486568 -0.302571
v 7.431337 0.749804 0.641925
v 5.063248 0.629695 0.960864
v 1.369462 -0.295292 1.234966
v 1.365832 0.431788 1.486644
v 10.257065 -0.486568 -0.302571
v 10.569422 0.178951 -0.023984
v 10.580317 -0.495762 -0.276227
v 10.558523 0.112057 0.159305
v 10.569422 -0.566288 -0.082844
v 10.238905 0.043453 0.345966
v 10.246168 -0.637249 0.109416
v 9.679569 -0.652204 0.148097
v 9.675940 0.028919 0.382961
v 8.964060 0.028277 0.381839
v 9.675940 0.747027 0.659297
v 10.242537 0.761990 0.620624
v 10.565788 0.832728 0.428363
v 10.576685 0.903255 0.234981
v 10.253433 0.186007 -0.044728
v 10.257065 0.912448 0.208629
v 8.967691 -0.652844 0.146976
v 7.507610 0.001354 0.449100
v 7.507610 -0.679775 0.214237
v 4.685516 -0.130085 0.797191
v 4.685516 -0.811214 0.562328
v 1.264134 -0.314953 1.299983
v 1.275030 -0.995441 1.063999
v 1.256869 0.402081 1.578006
v 4.685516 0.587802 1.073528
v 7.507610 0.719456 0.725444
v 8.964060 0.746173 0.658176
v -3.577374 -1.223699 1.692920
v 1.275030 -0.995441 1.063999
v -3.620960 -0.546200 1.933383
v 1.264134 -0.314953 1.299983
v -3.664542 0.169125 2.217571
v 1.256869 0.402081 1.578006
v -4.805004 -0.291874 3.382915
v -4.754156 -1.022800 3.121150
v -2.302529 -0.023441 2.714198
v -2.288001 -0.751156 2.460285
v 1.692715 0.202679 2.114993
v 1.696346 -0.524189 1.863315
v -2.280738 -1.422460 2.199634
v 1.692715 -1.196340 1.603793
v -4.714205 -1.691319 2.856014
vn 0.9575 0.0851 -0.2757
vn 0.9244 0.0981 -0.3686
vn 0.9246 0.1199 -0.3615
vn 0.9206 0.1068 -0.3757
vn 0.9109 0.1717 -0.3752
vn 0.9043 0.2274 -0.3613
vn 0.9174 0.0807 -0.3896
vn 0.9443 0.0807 -0.3191
vn -1.0000 -0.0066 0.0074
vn -0.9918 -0.0066 -0.1280
vn -0.9908 -0.0066 -0.1355
vn -0.9822 0.0109 -0.1877
vn -0.9835 0.0109 -0.1803
vn -0.8701 0.1068 -0.4812
vn -0.9908 -0.0065 -0.1355
vn -0.9933 -0.0240 -0.1130
vn 0.1746 -0.1631 0.9710
vn -0.0389 0.9988 0.0283
vn 0.1242 -0.1588 0.9795
vn 0.1317 -0.1545 0.9792
vn -0.0468 0.9984 0.0322
vn -0.0495 0.9981 0.0360
vn -0.1279 0.6077 -0.7838
vn -0.1445 0.6043 -0.7835
vn -0.0468 0.9984 0.0323
vn -0.1371 0.6043 -0.7849
vn 0.1467 -0.1545 0.9770
vn 0.1411 -0.1502 0.9785
vn -0.1148 0.6043 -0.7884
vn -0.0566 0.9984 0.0038
vn -0.1447 0.5902 -0.7941
vn -0.0113 0.5725 -0.8198
vn -0.0057 0.9994 -0.0345
vn 0.1485 -0.1761 0.9731
vn -0.0114 0.5725 -0.8199
vn 0.0019 0.3445 -0.9388
vn -0.1447 0.5902 -0.7942
vn -0.1542 0.3404 -0.9275
vn -0.0057 0.0938 -0.9956
vn -0.1522 0.0633 -0.9863
vn -0.1243 0.3404 -0.9320
vn -0.1149 0.0459 -0.9923
vn -0.1279 0.0416 -0.9909
vn -0.1392 0.3404 -0.9299
vn -0.1429 0.0415 -0.9889
vn -0.1467 0.3404 -0.9288
vn -0.1446 0.6042 -0.7836
vn -0.1371 0.6042 -0.7849
vn -0.1467 0.3404 -0.9287
vn -0.1354 0.0415 -0.9899
vn -0.1148 0.6043 -0.7885
vn -0.1280 0.6077 -0.7838
vn 0.1407 -0.5137 0.8463
vn 0.1427 -0.5100 0.8483
vn 0.1484 -0.3404 0.9285
vn 0.1334 -0.3404 0.9308
vn 0.1353 -0.5100 0.8495
vn 0.1278 -0.5100 0.8506
vn 0.1261 -0.3404 0.9318
vn 0.1800 -0.3363 0.9244
vn 0.1242 -0.1590 0.9794
vn 0.1746 -0.1632 0.9710
vn 0.1486 -0.1761 0.9731
vn 0.1760 -0.4987 0.8487
vn 0.1447 -0.4911 0.8590
vn 0.1317 -0.1546 0.9792
vn 0.1467 -0.1546 0.9770
vn 0.1409 -0.3404 0.9297
vn 0.1410 -0.1503 0.9785
vn 0.1446 -0.4911 0.8590
vn -0.5919 -0.4758 0.6506
vn -0.5888 -0.2781 0.7589
vn -0.7722 0.2189 -0.5965
vn -0.7631 0.0284 -0.6456
vn -0.2645 0.3281 -0.9069
vn -0.2648 0.1546 -0.9518
vn -0.0302 0.1676 -0.9854
vn -0.0283 0.3445 -0.9384
vn -0.0358 0.3445 -0.9381
vn -0.0283 0.5063 -0.8619
vn -0.2620 0.4949 -0.8285
vn -0.7590 0.3972 -0.5159
vn -0.5879 -0.0546 0.8071
vn 0.1484 -0.1761 0.9731
vn -0.0358 0.1633 -0.9859
vn -0.1018 0.3404 -0.9347
vn -0.1017 0.1590 -0.9820
vn -0.1392 0.1546 -0.9781
vn -0.1393 0.1545 -0.9781
vn -0.1391 0.5137 -0.8466
vn -0.1374 0.5100 -0.8491
vn -0.1017 0.5138 -0.8519
vn -0.0321 0.5100 -0.8596
vn -0.1242 0.1589 -0.9794
vn -0.1393 0.1546 -0.9781
vn -0.1241 0.5138 -0.8489
vn -0.1390 0.5138 -0.8466
vn 0.2899 -0.1459 0.9459
vn 0.2985 -0.3198 0.8992
vn 0.2005 -0.1502 0.9681
vn 0.2041 -0.3322 0.9209
vn 0.1485 -0.1503 0.9774
vn 0.1559 -0.3404 0.9273
vn 0.2055 -0.5063 0.8375
vn 0.1481 -0.5138 0.8450
vn 0.2977 -0.4911 0.8186
vt 0.776596 0.321369
vt 0.777205 0.345558
vt 0.773309 0.320765
vt 0.754565 0.333061
vt 0.755295 0.324393
vt 0.758703 0.320059
vt 0.759312 0.345558
vt 0.755660 0.340922
vt 0.475463 0.595003
vt 0.479236 0.590871
vt 0.474246 0.602865
vt 0.495303 0.591476
vt 0.492991 0.615765
vt 0.497373 0.613649
vt 0.478019 0.615765
vt 0.474489 0.611734
vt 0.255760 0.546929
vt 0.269515 0.544610
vt 0.269636 0.546828
vt 0.280956 0.546525
vt 0.280956 0.544308
vt 0.314794 0.544207
vt 0.280956 0.541184
vt 0.314794 0.540982
vt 0.367742 0.544409
vt 0.367742 0.541184
vt 0.314916 0.546425
vt 0.367864 0.546626
vt 0.269393 0.541385
vt 0.255273 0.544711
vt 0.254908 0.541587
vt 0.238476 0.541083
vt 0.239450 0.544006
vt 0.240302 0.546021
vt 0.556284 0.587041
vt 0.565779 0.586840
vt 0.556163 0.603469
vt 0.565779 0.603469
vt 0.576125 0.587041
vt 0.576125 0.603469
vt 0.565779 0.617983
vt 0.576125 0.617882
vt 0.576125 0.629472
vt 0.565779 0.629472
vt 0.576125 0.663336
vt 0.565779 0.663437
vt 0.556163 0.663336
vt 0.556163 0.716350
vt 0.565779 0.716350
vt 0.576125 0.716350
vt 0.556163 0.617882
vt 0.556163 0.629472
vt 0.912313 0.582808
vt 0.912313 0.635822
vt 0.902088 0.635822
vt 0.902088 0.669787
vt 0.912313 0.669787
vt 0.912313 0.681075
vt 0.902088 0.681075
vt 0.902088 0.694882
vt 0.891133 0.681075
vt 0.891133 0.694983
vt 0.891133 0.710403
vt 0.902088 0.710303
vt 0.912313 0.694983
vt 0.912313 0.710403
vt 0.891133 0.669787
vt 0.891133 0.635822
vt 0.902088 0.582808
vt 0.891133 0.582808
vt 0.838673 0.549045
vt 0.838673 0.553580
vt 0.828448 0.553681
vt 0.828448 0.556503
vt 0.838673 0.556503
vt 0.828448 0.561845
vt 0.838673 0.561946
vt 0.838673 0.570009
vt 0.828448 0.570009
vt 0.828448 0.580087
vt 0.817493 0.570009
vt 0.817372 0.561946
vt 0.817372 0.556503
vt 0.817372 0.553580
vt 0.828448 0.549146
vt 0.817493 0.549045
vt 0.838551 0.580087
vt 0.828448 0.600748
vt 0.838551 0.600748
vt 0.828448 0.641063
vt 0.838551 0.641063
vt 0.828326 0.690045
vt 0.838551 0.689944
vt 0.817493 0.690145
vt 0.817493 0.641063
vt 0.817493 0.600748
vt 0.817493 0.580087
vt 0.683359 0.775713
vt 0.673135 0.776317
vt 0.683359 0.706271
vt 0.673135 0.706473
vt 0.662302 0.777023
vt 0.662302 0.706574
vt 0.798262 0.726832
vt 0.787185 0.726227
vt 0.798384 0.689944
vt 0.787429 0.689843
vt 0.798140 0.632597
vt 0.787307 0.632697
vt 0.777205 0.689742
vt 0.777083 0.632697
vt 0.777083 0.725723
s 1
f 1/1/1 2/2/2 3/3/3
f 2/2/2 4/4/4 3/3/3
f 4/4/4 5/5/5 3/3/3
f 3/3/3 5/5/5 6/6/6
f 2/2/2 7/7/7 4/4/4
f 4/4/4 7/7/7 8/8/8
f 9/9/9 10/10/10 11/11/11
f 10/10/10 12/12/12 11/11/11
f 11/11/11 12/12/12 13/13/13
f 12/12/12 14/14/14 13/13/13
f 13/13/13 15/15/15 11/11/11
f 15/15/15 16/16/16 11/11/11
f 17/17/17 19/18/18 18/19/19
f 18/19/19 19/18/18 20/20/20
f 19/18/18 21/21/21 20/20/20
f 20/20/20 21/21/21 22/22/22
f 21/21/21 23/23/23 22/22/22
f 23/23/23 24/24/24 22/22/22
f 22/22/22 24/24/24 25/25/25
f 24/24/24 26/26/26 25/25/25
f 20/20/20 22/22/22 27/27/27
f 27/27/27 22/22/22 28/28/28
f 22/22/22 25/25/25 28/28/28
f 21/21/21 19/18/18 23/23/23
f 23/23/23 19/18/18 29/29/29
f 19/18/18 30/30/30 29/29/29
f 29/29/29 30/30/30 31/31/31
f 31/31/31 30/30/30 32/32/32
f 32/32/32 30/30/30 33/33/33
f 30/30/30 17/17/17 33/33/33
f 33/33/33 17/17/17 34/34/34
f 19/18/18 17/17/17 30/30/30
f 35/35/35 37/36/36 36/37/37
f 36/37/37 37/36/36 38/38/38
f 37/36/36 39/39/39 38/38/38
f 39/39/39 40/40/40 38/38/38
f 38/38/38 40/40/40 41/41/41
f 40/40/40 42/42/42 41/41/41
f 42/42/42 43/43/43 41/41/41
f 41/41/41 43/43/43 44/44/44
f 43/43/43 45/45/45 44/44/44
f 45/45/45 46/46/46 44/44/44
f 44/44/44 46/46/46 47/47/47
f 47/47/47 46/46/46 48/48/48
f 48/48/48 46/46/46 49/49/49
f 46/46/46 45/45/45 49/49/49
f 49/49/49 45/45/45 50/50/50
f 36/37/37 38/38/38 51/51/51
f 38/38/38 41/41/41 51/51/51
f 51/51/51 41/41/41 52/52/52
f 41/41/41 44/44/44 52/52/52
f 52/52/52 44/44/44 47/47/47
f 53/53/53 55/54/54 54/55/55
f 54/55/55 55/54/54 56/56/56
f 55/54/54 57/57/57 56/56/56
f 57/57/57 58/58/58 56/56/56
f 56/56/56 58/58/58 59/59/59
f 58/58/58 60/60/60 59/59/59
f 59/59/59 60/60/60 61/61/61
f 61/61/61 60/60/60 62/62/62
f 62/62/62 60/60/60 63/63/63
f 63/63/63 60/60/60 64/64/55
f 60/60/60 65/65/64 64/64/55
f 64/64/55 65/65/64 66/66/65
f 58/58/58 65/65/64 60/60/60
f 59/59/59 61/61/61 56/56/56
f 61/61/61 67/67/66 56/56/56
f 56/56/56 67/67/66 54/55/55
f 67/67/66 68/68/67 54/55/55
f 54/55/55 68/68/67 69/69/68
f 68/68/67 70/70/69 69/69/68
f 54/55/55 69/69/68 53/53/53
f 71/71/70 73/72/71 72/73/72
f 72/73/72 73/72/71 74/74/73
f 73/72/71 75/75/74 74/74/73
f 74/74/73 75/75/74 76/76/75
f 75/75/74 77/77/76 76/76/75
f 77/77/76 78/78/77 76/76/75
f 76/76/75 78/78/77 79/79/78
f 78/78/77 80/80/79 79/79/78
f 80/80/79 81/81/80 79/79/78
f 79/79/78 81/81/80 76/76/75
f 81/81/80 82/82/81 76/76/75
f 76/76/75 82/82/81 74/74/73
f 82/82/81 83/83/82 74/74/73
f 74/74/73 83/83/82 72/73/72
f 83/83/82 84/84/83 72/73/72
f 72/73/72 84/84/83 85/85/55
f 84/84/83 86/86/84 85/85/55
f 78/78/77 87/87/85 80/80/79
f 80/80/79 87/87/85 88/88/86
f 87/87/85 89/89/87 88/88/86
f 88/88/86 89/89/87 90/90/46
f 89/89/87 91/91/88 90/90/46
f 90/90/46 91/91/88 92/92/46
f 91/91/88 93/93/89 92/92/46
f 72/73/72 85/85/55 71/71/70
f 92/92/46 94/94/90 90/90/46
f 94/94/90 95/95/91 90/90/46
f 90/90/46 95/95/91 88/88/86
f 95/95/91 96/96/92 88/88/86
f 88/88/86 96/96/92 80/80/79
f 96/96/92 97/97/93 80/80/79
f 80/80/79 97/97/93 81/81/80
f 98/98/94 100/99/41 99/100/95
f 99/100/95 100/99/41 101/101/46
f 100/99/41 102/102/96 101/101/46
f 101/101/46 102/102/96 103/103/97
f 104/104/98 105/105/99 106/106/100
f 105/105/99 107/107/101 106/106/100
f 106/106/100 107/107/101 108/108/102
f 108/108/102 107/107/101 109/109/103
f 107/107/101 110/110/104 109/109/103
f 109/109/103 110/110/104 111/111/105
f 105/105/99 112/112/106 107/107/101
f 107/107/101 112/112/106 110/110/104
