# Blender 4.3.0
# www.blender.org
mtllib model_5.mtl
o model_5
v -0.134959 0.004539 -0.119694
v -0.132100 0.022400 -0.043612
v -0.019519 0.004539 -0.123998
v -0.016740 0.022400 -0.048010
v 0.020099 0.004539 -0.125496
v 0.022877 0.022400 -0.049507
v -0.132100 0.022400 -0.043612
v -0.129877 0.022400 0.015532
v -0.016740 0.022400 -0.048010
v -0.014517 0.022400 0.011227
v 0.022877 0.022400 -0.049507
v 0.025100 0.022400 0.009730
v -0.012612 0.022400 0.061200
v 0.027006 0.022400 0.059703
v -0.012612 0.022246 0.061574
v 0.027006 0.022246 0.060077
v -0.128051 0.022400 0.065505
v -0.128051 0.022246 0.065879
v -0.132100 -0.022406 -0.043612
v -0.129877 -0.022406 0.015532
v -0.016740 -0.022406 -0.048010
v -0.014517 -0.022406 0.011227
v 0.022877 -0.022406 -0.049507
v 0.025100 -0.022406 0.009730
v -0.012612 -0.022406 0.061200
v 0.027006 -0.022406 0.059703
v 0.027006 -0.022253 0.060077
v -0.012612 -0.022253 0.061574
v -0.128051 -0.022406 0.065505
v -0.128051 -0.022253 0.065879
v -0.134959 -0.004545 -0.119694
v -0.019519 -0.004545 -0.123998
v -0.132100 -0.022406 -0.043612
v -0.016740 -0.022406 -0.048010
v 0.020099 -0.004545 -0.125496
v 0.022877 -0.022406 -0.049507
v -0.016740 -0.015446 -0.048010
v -0.014517 -0.015446 0.011227
v -0.016740 0.000008 -0.048010
v -0.014517 0.000008 0.011227
v -0.016740 0.015439 -0.048010
v -0.014517 0.015439 0.011227
v -0.012612 0.000008 0.061200
v -0.012612 0.015439 0.061200
v -0.012771 0.015592 0.061574
v -0.012771 0.000008 0.061574
v -0.012612 -0.015446 0.061200
v -0.012771 -0.015599 0.061574
v -0.019281 0.000008 -0.117541
v 0.023354 -0.022253 -0.049507
v 0.022877 -0.022406 -0.049507
v 0.020496 -0.004020 -0.124934
v 0.020099 -0.004545 -0.125496
v 0.020099 0.004539 -0.125496
v 0.020496 0.004013 -0.124934
v 0.023354 0.022246 -0.049507
v 0.022877 0.022400 -0.049507
v 0.023354 -0.015621 -0.049507
v 0.023512 -0.016015 -0.049601
v 0.020734 0.000008 -0.119787
v 0.020813 0.000008 -0.121565
v 0.020654 -0.003713 -0.124653
v 0.020654 0.003707 -0.124653
v 0.020496 -0.004020 -0.124934
v 0.020496 0.004013 -0.124934
v 0.023512 0.021852 -0.049414
v 0.023354 0.022246 -0.049507
v 0.023354 -0.022253 -0.049507
v 0.023512 -0.021859 -0.049414
v 0.023512 0.015986 -0.049601
v 0.023354 0.015592 -0.049507
v 0.020734 0.000008 -0.119787
v 0.027006 -0.022253 0.060077
v 0.027006 -0.021859 0.060264
v 0.027323 -0.022166 0.059983
v 0.027403 -0.021859 0.060077
v 0.027006 -0.015993 0.060264
v 0.027403 -0.015993 0.060077
v 0.027323 -0.015687 0.059983
v 0.027006 -0.015599 0.060077
v 0.023354 -0.022253 -0.049507
v 0.025497 -0.022253 0.009730
v 0.023512 -0.021859 -0.049414
v 0.025736 -0.021859 0.009730
v 0.025736 -0.015993 0.009730
v 0.027562 -0.021859 0.059703
v 0.027403 -0.022253 0.059703
v 0.027323 -0.022166 0.059983
v 0.027403 -0.021859 0.060077
v 0.027403 -0.015993 0.060077
v 0.027562 -0.015993 0.059703
v 0.027323 -0.015687 0.059983
v 0.027403 -0.015599 0.059703
v 0.025497 -0.015599 0.009730
v 0.023354 -0.015621 -0.049507
v 0.023512 -0.016015 -0.049601
v 0.027006 -0.022253 0.060077
v 0.027006 -0.021859 0.060264
v -0.012612 -0.022253 0.061574
v -0.012612 -0.021859 0.061762
v -0.013168 -0.015993 0.061762
v 0.027006 -0.015993 0.060264
v 0.027006 -0.015599 0.060077
v -0.012771 -0.015599 0.061574
v 0.023512 0.021852 -0.049414
v 0.025736 0.021852 0.009730
v 0.023354 0.022246 -0.049507
v 0.025497 0.022246 0.009730
v 0.027562 0.021852 0.059703
v 0.027403 0.022246 0.059703
v 0.027323 0.022159 0.059983
v 0.027403 0.021852 0.060077
v 0.027562 0.015986 0.059703
v 0.027403 0.015986 0.060077
v 0.027323 0.015680 0.059983
v 0.027403 0.015592 0.059703
v 0.025736 0.015986 0.009730
v 0.025497 0.015592 0.009730
v 0.023512 0.015986 -0.049601
v 0.023354 0.015592 -0.049507
v 0.023354 0.022246 -0.049507
v 0.025497 0.022246 0.009730
v 0.022877 0.022400 -0.049507
v 0.025100 0.022400 0.009730
v 0.027403 0.022246 0.059703
v 0.027006 0.022400 0.059703
v 0.027323 0.022159 0.059983
v 0.027006 0.022246 0.060077
v 0.027006 -0.015599 0.060077
v 0.027006 -0.015446 0.059703
v -0.012771 -0.015599 0.061574
v -0.012612 -0.015446 0.061200
v -0.014517 -0.015446 0.011227
v 0.025100 -0.015446 0.009730
v -0.016740 -0.015446 -0.048010
v 0.022877 -0.015446 -0.049507
v 0.022877 0.015439 -0.049507
v 0.023354 0.015592 -0.049507
v 0.025100 0.015439 0.009730
v 0.025497 0.015592 0.009730
v 0.027006 0.015439 0.059703
v 0.027403 0.015592 0.059703
v 0.027323 0.015680 0.059983
v 0.027006 0.015592 0.060077
v 0.027006 0.015592 0.060077
v 0.027006 0.015986 0.060264
v 0.027323 0.015680 0.059983
v 0.027403 0.015986 0.060077
v 0.027006 0.021852 0.060264
v 0.027403 0.021852 0.060077
v 0.027323 0.022159 0.059983
v 0.027006 0.022246 0.060077
v -0.128051 0.022246 0.065879
v -0.012612 0.022246 0.061574
v -0.128051 0.021852 0.066066
v -0.012612 0.021852 0.061762
v -0.013168 0.015986 0.061762
v -0.128051 0.015702 0.066066
v -0.013168 0.000008 0.061762
v -0.128051 0.000008 0.066066
v -0.013168 -0.015993 0.061762
v -0.128051 -0.015446 0.066066
v -0.128051 -0.021859 0.066066
v -0.012612 -0.021859 0.061762
v -0.128051 -0.022253 0.065879
v -0.012612 -0.022253 0.061574
v -0.012771 -0.015599 0.061574
v -0.012771 0.000008 0.061574
v -0.012771 0.015592 0.061574
v -0.019519 -0.004545 -0.123998
v -0.019519 0.004539 -0.123998
v 0.020099 -0.004545 -0.125496
v 0.020099 0.004539 -0.125496
v -0.019519 -0.004545 -0.123998
v -0.134959 -0.004545 -0.119694
v -0.019519 0.004539 -0.123998
v -0.134959 0.004539 -0.119694
v -0.012612 0.022246 0.061574
v -0.012612 0.021852 0.061762
v 0.027006 0.022246 0.060077
v 0.027006 0.021852 0.060264
v 0.027006 0.015986 0.060264
v -0.013168 0.015986 0.061762
v -0.012771 0.015592 0.061574
v 0.027006 0.015592 0.060077
v -0.012771 0.015592 0.061574
v 0.027006 0.015592 0.060077
v -0.012612 0.015439 0.061200
v 0.027006 0.015439 0.059703
v 0.025100 0.015439 0.009730
v -0.014517 0.015439 0.011227
v 0.022877 0.015439 -0.049507
v -0.016740 0.015439 -0.048010
v 0.022877 0.015439 -0.049507
v -0.016740 0.015439 -0.048010
v 0.020337 0.000008 -0.118945
v -0.019281 0.000008 -0.117541
v -0.016740 -0.015446 -0.048010
v 0.022877 -0.015446 -0.049507
v -0.019281 0.000008 -0.117541
v 0.020337 0.000008 -0.118945
v 0.022877 -0.022406 -0.049507
v 0.023354 -0.022253 -0.049507
v 0.025100 -0.022406 0.009730
v 0.025497 -0.022253 0.009730
v 0.027006 -0.022406 0.059703
v 0.027403 -0.022253 0.059703
v 0.027323 -0.022166 0.059983
v 0.027006 -0.022253 0.060077
v 0.020734 0.000008 -0.119787
v 0.023354 -0.015621 -0.049507
v 0.020337 0.000008 -0.118945
v 0.022877 -0.015446 -0.049507
v 0.023354 -0.015621 -0.049507
v 0.025497 -0.015599 0.009730
v 0.022877 -0.015446 -0.049507
v 0.025100 -0.015446 0.009730
v 0.027403 -0.015599 0.059703
v 0.027006 -0.015446 0.059703
v 0.027323 -0.015687 0.059983
v 0.027006 -0.015599 0.060077
v 0.020337 0.000008 -0.118945
v 0.020734 0.000008 -0.119787
v 0.022877 0.015439 -0.049507
v 0.023354 0.015592 -0.049507
vn -0.0076 0.9733 -0.2293
vn -0.0075 0.9733 -0.2294
vn -0.0076 0.9733 -0.2294
vn 0.3784 -0.9061 0.1894
vn 0.3667 0.9302 -0.0150
vn 0.3249 0.8966 0.3010
vn -0.0000 1.0000 -0.0000
vn 0.0013 1.0000 0.0042
vn 0.0001 1.0000 0.0042
vn 0.0131 0.9302 0.3668
vn 0.3786 0.9061 0.1889
vn 0.3787 0.9061 0.1889
vn 0.0014 1.0000 0.0042
vn 0.3787 0.9060 0.1889
vn 0.3667 -0.9302 -0.0151
vn 0.3237 -0.8966 0.3023
vn -0.0000 -1.0000 -0.0000
vn -0.0000 -1.0000 0.0037
vn -0.0022 -1.0000 0.0038
vn 0.0170 -0.9302 0.3666
vn 0.0003 -1.0000 0.0037
vn 0.0112 0.9762 0.2164
vn 0.0075 -0.9762 0.2166
vn 0.0075 -0.9762 0.2168
vn -0.0095 -0.9733 -0.2293
vn -0.0094 -0.9733 -0.2293
vn -0.0095 -0.9733 -0.2294
vn 0.0376 -0.0284 0.9989
vn 0.0359 -0.3973 0.9170
vn 0.0378 -0.0022 0.9993
vn 0.0377 0.0284 0.9989
vn 0.9993 0.0021 -0.0377
vn 0.9993 0.0022 -0.0377
vn 0.9993 0.0022 -0.0378
vn 0.9995 -0.0000 -0.0302
vn 0.9995 0.0022 -0.0302
vn 0.0377 0.3973 0.9169
vn 0.9377 0.0022 0.3476
vn 0.9377 0.0022 0.3475
vn -0.0378 0.0022 -0.9993
vn -0.0378 0.0021 -0.9993
vn 0.4173 0.0022 0.9088
vn 0.0378 0.0022 0.9993
vn 0.0377 -0.0284 0.9989
vn 0.0377 -0.0240 0.9990
vn 0.6935 -0.6939 -0.1940
vn 0.7331 -0.6317 -0.2520
vn 0.7236 -0.6452 -0.2451
vn 0.7239 0.6452 -0.2443
vn 0.7332 0.6317 -0.2517
vn 0.6936 0.6939 -0.1936
vn 0.0373 0.0285 0.9989
vn 0.9213 0.3852 0.0528
vn 0.9993 0.0240 -0.0302
vn 0.9993 -0.0022 -0.0378
vn 0.9971 -0.0546 -0.0528
vn 0.9971 0.0546 -0.0528
vn 0.9143 -0.3730 -0.1578
vn 0.9143 0.3731 -0.1576
vn 0.9983 0.0372 -0.0453
vn 0.9087 0.3973 -0.1279
vn 0.4186 0.0153 0.9080
vn 0.3534 0.3363 0.8729
vn 0.4172 0.0153 0.9087
vn 0.4172 -0.0153 0.9087
vn 0.9087 -0.3972 -0.1280
vn 0.3534 -0.3363 0.8729
vn 0.9983 -0.0372 -0.0453
vn 0.9993 -0.0241 -0.0302
vn 0.9213 -0.3852 0.0528
vn 0.4172 -0.0154 0.9087
vn 0.4185 0.0153 0.9081
vn 0.9169 -0.3973 -0.0378
vn 0.9989 -0.0284 -0.0377
vn 0.9989 0.0284 -0.0367
vn 0.9172 -0.3973 -0.0302
vn 0.8945 -0.3404 0.2898
vn 0.9376 -0.0153 0.3475
vn 0.9375 0.0153 0.3475
vn 0.9989 0.0284 -0.0377
vn 0.8946 0.3404 0.2895
vn 0.9989 -0.0284 -0.0378
vn 0.9172 0.3973 -0.0301
vn 0.9169 0.3973 -0.0377
vn 0.9169 0.3972 -0.0377
vn 0.9990 -0.0241 -0.0377
vn 0.9990 0.0241 -0.0377
vn 0.9989 0.0285 -0.0377
vn 0.8945 -0.3404 0.2899
vn 0.9376 0.0153 0.3475
vn 0.0375 -0.0284 0.9989
vt 0.388570 0.602466
vt 0.387086 0.562054
vt 0.452721 0.602725
vt 0.450082 0.563738
vt 0.476798 0.604409
vt 0.471191 0.563220
vt 0.479849 0.605057
vt 0.474901 0.563479
vt 0.475066 0.563479
vt 0.480096 0.605057
vt 0.467645 0.705050
vt 0.467480 0.705180
vt 0.467398 0.705180
vt 0.467398 0.705050
vt 0.386921 0.530839
vt 0.448103 0.532652
vt 0.472015 0.679404
vt 0.468057 0.530709
vt 0.445959 0.505582
vt 0.464924 0.503380
vt 0.445959 0.505323
vt 0.464924 0.503121
vt 0.471768 0.679404
vt 0.475314 0.646246
vt 0.475066 0.646246
vt 0.388488 0.504804
vt 0.388488 0.504545
vt 0.464264 0.706086
vt 0.464677 0.706475
vt 0.464264 0.706216
vt 0.464512 0.706086
vt 0.468387 0.679145
vt 0.386921 0.647541
vt 0.450082 0.645987
vt 0.386756 0.678756
vt 0.448021 0.677073
vt 0.471356 0.646505
vt 0.468140 0.679016
vt 0.445712 0.703884
vt 0.471603 0.646505
vt 0.445629 0.704143
vt 0.388323 0.704661
vt 0.388405 0.704921
vt 0.501452 0.613346
vt 0.495845 0.651945
vt 0.495020 0.558428
vt 0.502194 0.594824
vt 0.492217 0.525917
vt 0.471933 0.530450
vt 0.487599 0.499105
vt 0.468222 0.504416
vt 0.388570 0.607129
vt 0.452638 0.607129
vt 0.468140 0.504157
vt 0.476633 0.605704
vt 0.487599 0.498846
vt 0.468057 0.504027
vt 0.487682 0.498587
vt 0.486280 0.495608
vt 0.522066 0.521125
vt 0.536001 0.521125
vt 0.521819 0.574359
vt 0.535754 0.574489
vt 0.549854 0.521254
vt 0.465914 0.502343
vt 0.549606 0.574489
vt 0.535506 0.619434
vt 0.549359 0.619434
vt 0.465831 0.502084
vt 0.549524 0.619952
vt 0.486198 0.495349
vt 0.535506 0.619823
vt 0.521654 0.619305
vt 0.521489 0.619693
vt 0.536248 0.458564
vt 0.549854 0.620341
vt 0.535506 0.620211
vt 0.521077 0.620211
vt 0.515882 0.619564
vt 0.514975 0.723572
vt 0.515469 0.619564
vt 0.515387 0.723572
vt 0.521077 0.723572
vt 0.477045 0.605575
vt 0.535012 0.723572
vt 0.477210 0.604409
vt 0.471438 0.563220
vt 0.549111 0.723702
vt 0.554636 0.723702
vt 0.555131 0.619823
vt 0.474901 0.646116
vt 0.555543 0.619823
vt 0.477292 0.605575
vt 0.477457 0.604409
vt 0.555048 0.723702
vt 0.471685 0.563220
vt 0.465336 0.502862
vt 0.465584 0.502862
vt 0.467892 0.504157
vt 0.468057 0.504286
vt 0.471850 0.646505
vt 0.471768 0.530450
vt 0.474654 0.563609
vt 0.492464 0.684715
vt 0.465007 0.707252
vt 0.465171 0.706993
vt 0.464924 0.706475
vt 0.467315 0.705309
vt 0.467233 0.705180
vt 0.486033 0.711915
vt 0.485950 0.712174
vt 0.465171 0.503380
vt 0.468552 0.679145
vt 0.471603 0.679275
vt 0.464677 0.706086
vt 0.468305 0.530709
vt 0.467233 0.705050
vt 0.471521 0.530450
vt 0.465336 0.503380
vt 0.467892 0.504286
vt 0.468552 0.530709
vt 0.484219 0.715542
vt 0.484301 0.715283
vt 0.486033 0.712433
s 1
f 1/1/1 2/2/2 3/3/2
f 2/2/2 4/4/1 3/3/2
f 3/3/2 4/4/1 5/5/2
f 4/4/1 6/6/3 5/5/2
f 223/7/4 225/8/4 224/9/4
f 222/10/4 223/7/4 224/9/4
f 219/11/5 221/12/6 220/13/6
f 218/14/5 219/11/5 220/13/6
f 7/2/7 8/15/7 9/4/7
f 8/15/7 10/16/7 9/4/7
f 9/4/7 10/16/7 11/6/7
f 217/17/5 219/11/5 218/14/5
f 11/6/7 10/16/7 12/18/7
f 10/16/7 13/19/8 12/18/7
f 12/18/7 13/19/8 14/20/9
f 13/19/8 15/21/10 14/20/9
f 14/20/9 15/21/10 16/22/10
f 215/23/5 217/17/5 218/14/5
f 216/24/5 217/17/5 215/23/5
f 214/25/5 216/24/5 215/23/5
f 211/25/11 212/10/11 213/24/12
f 8/15/7 17/26/13 10/16/7
f 10/16/7 17/26/13 13/19/8
f 17/26/13 18/27/10 13/19/8
f 13/19/8 18/27/10 15/21/10
f 210/7/14 212/10/11 211/25/11
f 206/28/15 208/29/16 209/30/16
f 207/31/15 208/29/16 206/28/15
f 205/32/15 207/31/15 206/28/15
f 19/33/17 21/34/17 20/35/17
f 20/35/17 21/34/17 22/36/17
f 21/34/17 23/37/17 22/36/17
f 204/38/15 205/32/15 206/28/15
f 23/37/17 24/38/17 22/36/17
f 22/36/17 24/38/17 25/39/18
f 24/38/17 26/28/19 25/39/18
f 203/40/15 205/32/15 204/38/15
f 26/28/19 27/30/20 25/39/18
f 202/37/15 203/40/15 204/38/15
f 27/30/20 28/41/20 25/39/18
f 25/39/18 28/41/20 29/42/21
f 28/41/20 30/43/20 29/42/21
f 199/24/22 201/10/22 200/44/22
f 198/45/22 199/24/22 200/44/22
f 195/46/23 197/47/24 196/10/23
f 194/9/23 195/46/23 196/10/23
f 25/39/18 29/42/21 22/36/17
f 29/42/21 20/35/17 22/36/17
f 191/48/17 193/46/17 192/9/17
f 190/49/17 191/48/17 192/9/17
f 188/50/18 191/48/17 190/49/17
f 189/51/19 188/50/18 190/49/17
f 31/52/25 32/53/26 33/33/25
f 187/54/20 188/50/18 189/51/19
f 33/33/25 32/53/26 34/34/26
f 32/53/26 35/55/27 34/34/26
f 34/34/26 35/55/27 36/37/27
f 186/56/20 188/50/18 187/54/20
f 182/57/28 184/56/29 185/54/29
f 183/58/30 184/56/29 182/57/28
f 179/59/31 183/58/30 182/57/28
f 37/60/32 39/61/33 38/62/34
f 38/62/34 39/61/33 40/63/34
f 39/61/33 41/64/32 40/63/34
f 181/65/31 179/59/31 182/57/28
f 41/64/32 42/66/34 40/63/34
f 40/63/34 42/66/34 43/67/35
f 42/66/34 44/68/36 43/67/35
f 180/69/37 179/59/31 181/65/31
f 44/68/36 45/70/38 43/67/35
f 178/71/37 179/59/31 180/69/37
f 45/70/38 46/72/39 43/67/35
f 43/67/35 46/72/39 47/73/35
f 46/72/39 48/74/38 47/73/35
f 175/52/40 177/1/40 176/3/40
f 174/53/40 175/52/40 176/3/40
f 171/3/40 173/5/41 172/55/40
f 170/53/41 171/3/40 172/55/40
f 37/60/32 49/75/33 39/61/33
f 49/75/33 41/64/32 39/61/33
f 168/72/42 169/70/42 157/76/30
f 159/77/43 168/72/42 157/76/30
f 167/74/42 168/72/42 159/77/43
f 161/78/43 167/74/42 159/77/43
f 43/67/35 47/73/35 40/63/34
f 47/73/35 38/62/34 40/63/34
f 164/79/44 165/80/29 166/81/29
f 163/82/45 165/80/29 164/79/44
f 161/78/43 163/82/45 164/79/44
f 162/83/43 163/82/45 161/78/43
f 50/40/46 51/37/46 52/84/47
f 51/37/46 53/55/48 52/84/47
f 160/85/43 162/83/43 161/78/43
f 53/55/48 54/5/49 52/84/47
f 52/84/47 54/5/49 55/86/50
f 159/77/43 160/85/43 161/78/43
f 55/86/50 54/5/49 56/87/51
f 54/5/49 57/6/51 56/87/51
f 158/88/30 160/85/43 159/77/43
f 157/76/30 158/88/30 159/77/43
f 155/89/52 158/88/30 157/76/30
f 156/90/31 155/89/52 157/76/30
f 58/25/53 59/91/54 60/7/53
f 154/92/37 155/89/52 156/90/31
f 60/7/53 59/91/54 61/7/55
f 59/91/54 62/93/56 61/7/55
f 61/7/55 62/93/56 63/94/57
f 62/93/56 64/84/58 63/94/57
f 153/95/37 155/89/52 154/92/37
f 64/84/58 65/86/59 63/94/57
f 63/94/57 65/86/59 66/96/60
f 65/86/59 67/87/61 66/96/60
f 149/65/62 151/97/63 152/69/63
f 150/98/64 151/97/63 149/65/62
f 148/99/65 150/98/64 149/65/62
f 146/57/65 148/99/65 149/65/62
f 64/84/58 62/93/56 68/40/66
f 147/100/67 148/99/65 146/57/65
f 68/40/66 62/93/56 69/101/68
f 62/93/56 59/91/54 69/101/68
f 145/54/67 147/100/67 146/57/65
f 141/51/15 143/100/16 144/54/16
f 142/100/15 143/100/16 141/51/15
f 140/102/15 142/100/15 141/51/15
f 63/94/57 66/96/60 61/7/55
f 66/96/60 70/103/69 61/7/55
f 139/49/15 140/102/15 141/51/15
f 70/103/69 71/8/70 61/7/55
f 61/7/55 71/8/70 72/7/70
f 138/8/15 140/102/15 139/49/15
f 137/9/15 138/8/15 139/49/15
f 134/17/7 136/24/7 135/45/7
f 133/104/7 134/17/7 135/45/7
f 73/105/67 75/29/67 74/106/71
f 130/11/9 134/17/7 133/104/7
f 75/29/67 76/107/65 74/106/71
f 74/106/71 76/107/65 77/108/72
f 76/107/65 78/109/64 77/108/72
f 132/110/13 130/11/9 133/104/7
f 78/109/64 79/13/63 77/108/72
f 77/108/72 79/13/63 80/12/63
f 131/111/10 130/11/9 132/110/13
f 129/12/10 130/11/9 131/111/10
f 126/20/5 128/22/6 127/97/6
f 125/112/5 126/20/5 127/97/6
f 81/40/73 83/101/74 82/32/73
f 82/32/73 83/101/74 84/113/74
f 83/101/74 85/114/75 84/113/74
f 124/18/5 126/20/5 125/112/5
f 85/114/75 86/115/74 84/113/74
f 84/113/74 86/115/74 87/31/76
f 122/116/5 124/18/5 125/112/5
f 87/31/76 86/115/74 88/29/77
f 123/6/5 124/18/5 122/116/5
f 88/29/77 86/115/74 89/107/78
f 121/87/5 123/6/5 122/116/5
f 89/107/78 86/115/74 90/109/79
f 86/115/74 91/117/80 90/109/79
f 90/109/79 91/117/80 92/13/81
f 117/118/82 109/119/80 113/120/74
f 92/13/81 91/117/80 93/14/83
f 106/121/80 109/119/80 117/118/82
f 93/14/83 91/117/80 94/23/84
f 91/117/80 85/114/75 94/23/84
f 94/23/84 85/114/75 95/25/85
f 119/103/86 106/121/80 117/118/82
f 95/25/85 85/114/75 96/91/87
f 85/114/75 83/101/74 96/91/87
f 105/96/88 106/121/80 119/103/86
f 118/102/73 120/8/73 119/103/86
f 117/118/82 118/102/73 119/103/86
f 116/100/76 118/102/73 117/118/82
f 87/31/76 82/32/73 84/113/74
f 113/120/74 116/100/76 117/118/82
f 115/100/89 116/100/76 113/120/74
f 114/99/78 115/100/89 113/120/74
f 112/98/90 114/99/78 113/120/74
f 85/114/75 91/117/80 86/115/74
f 109/119/80 112/98/90 113/120/74
f 111/97/81 112/98/90 109/119/80
f 110/112/83 111/97/81 109/119/80
f 108/116/84 110/112/83 109/119/80
f 97/105/29 98/106/91 99/122/29
f 106/121/80 108/116/84 109/119/80
f 99/122/29 98/106/91 100/123/44
f 107/87/84 108/116/84 106/121/80
f 100/123/44 98/106/91 101/124/43
f 98/106/91 102/108/31 101/124/43
f 105/96/88 107/87/84 106/121/80
f 102/108/31 103/12/37 101/124/43
f 101/124/43 103/12/37 104/111/37
