# Blender 5.0.1
# www.blender.org
mtllib model_3.mtl
o model_3
v -0.655321 3.036768 -2.602976
v -0.655321 3.036768 -3.019257
v -0.655321 3.427048 -2.602976
v -0.655321 3.427048 -3.019257
v -0.655321 3.615488 -2.602976
v -0.655321 3.615488 -3.019257
v -0.655321 3.640614 -2.602976
v -0.655321 3.640614 -3.019257
v -0.655321 4.237760 -3.019257
v -0.655321 4.237760 -2.602976
v -0.655321 4.154846 -3.019257
v -0.655321 4.154846 -2.602976
v -0.655321 4.049320 -3.019257
v -0.655321 4.049319 -2.602976
v -0.655321 3.769591 -3.019257
v -0.655321 3.769590 -2.602976
v -0.702519 2.686688 -2.526831
v -0.702519 3.036768 -2.526831
v -0.702519 3.036768 -3.284327
v -0.702519 3.427048 -3.284327
v -0.702519 3.427048 -2.526831
v -0.702519 3.615488 -3.284327
v -0.702519 3.615488 -2.526831
v -0.702519 3.640614 -3.284327
v -0.702519 3.640614 -2.526831
v -0.702519 3.769591 -3.284326
v -0.702519 3.769590 -2.526831
v -0.702519 4.049319 -3.284326
v -0.702519 4.049319 -2.526831
v -0.702519 4.154846 -3.284326
v -0.702519 4.154846 -2.526831
v -0.702519 4.237759 -3.284326
v -0.702519 4.237760 -2.526831
v -0.702519 4.284660 -3.284326
v -0.702519 4.284660 -2.526831
v -0.702519 4.345798 -3.284326
v -0.702519 4.345798 -2.526831
v -0.702519 2.686688 -3.284327
v -0.702519 2.631412 -2.526831
v -0.702519 2.631412 -3.284327
vn 1.0000 -0.0022 -0.0000
vn -1.0000 -0.0022 -0.0000
vt 0.353486 0.300391
vt 0.578496 0.300391
vt 0.353486 0.479395
vt 0.578496 0.479395
vt 0.353486 0.565582
vt 0.578496 0.565582
vt 0.353486 0.577033
vt 0.578496 0.577033
vt 0.316237 0.145194
vt 0.316237 0.115059
vt 0.679162 0.115059
vt 0.680764 0.150016
vt 0.316237 0.306820
vt 0.680764 0.873364
vt 0.679741 0.936246
vt 0.316237 0.937853
vt 0.671463 0.891646
vt 0.444540 0.891646
vt 0.671463 0.830170
vt 0.444540 0.830170
vt 0.671463 0.772712
vt 0.444540 0.772712
vt 0.671463 0.620528
vt 0.444540 0.620528
vt 0.316237 0.876578
vt 0.680764 0.851867
vt 0.316237 0.854479
vt 0.680764 0.814098
vt 0.680764 0.309934
vt 0.316237 0.815705
vt 0.316237 0.485723
vt 0.680764 0.488938
vt 0.316237 0.576631
vt 0.680764 0.575125
vt 0.316237 0.588183
vt 0.680764 0.586576
vt 0.316237 0.645038
vt 0.680764 0.643431
vt 0.316237 0.768895
vt 0.680764 0.767287
s 1
f 1/1/1 2/2/1 3/3/1
f 2/2/1 4/4/1 3/3/1
f 3/3/1 4/4/1 5/5/1
f 4/4/1 6/6/1 5/5/1
f 5/5/1 6/6/1 7/7/1
f 6/6/1 8/8/1 7/7/1
f 38/9/2 40/10/2 39/11/2
f 17/12/2 38/9/2 39/11/2
f 19/13/2 38/9/2 17/12/2
f 35/14/2 37/15/2 36/16/2
f 9/17/1 10/18/1 11/19/1
f 10/18/1 12/20/1 11/19/1
f 11/19/1 12/20/1 13/21/1
f 12/20/1 14/22/1 13/21/1
f 13/21/1 14/22/1 15/23/1
f 14/22/1 16/24/1 15/23/1
f 34/25/2 35/14/2 36/16/2
f 33/26/2 35/14/2 34/25/2
f 32/27/2 33/26/2 34/25/2
f 31/28/2 33/26/2 32/27/2
f 17/12/2 18/29/2 19/13/2
f 30/30/2 31/28/2 32/27/2
f 19/13/2 18/29/2 20/31/2
f 18/29/2 21/32/2 20/31/2
f 20/31/2 21/32/2 22/33/2
f 21/32/2 23/34/2 22/33/2
f 22/33/2 23/34/2 24/35/2
f 23/34/2 25/36/2 24/35/2
f 24/35/2 25/36/2 26/37/2
f 25/36/2 27/38/2 26/37/2
f 26/37/2 27/38/2 28/39/2
f 27/38/2 29/40/2 28/39/2
f 28/39/2 29/40/2 30/30/2
f 29/40/2 31/28/2 30/30/2
