# Blender 5.0.1
# www.blender.org
mtllib model_1.mtl
o model_1
v 1.449125 0.000008 -3.264759
v 1.185777 0.000008 -3.264759
v 1.449125 0.000008 -3.457300
v 1.185777 0.000008 -3.457300
v 0.922429 0.000008 -3.264759
v 0.922429 0.000008 -3.457300
v 0.659081 0.000008 -3.264759
v 0.659081 0.000008 -3.457300
v 0.395733 0.000008 -3.264759
v 0.395733 0.000008 -3.457300
v 0.132384 0.000008 -3.264759
v 0.132384 0.000008 -3.457300
v -0.132380 0.000008 -3.264759
v -0.132380 0.000008 -3.457300
v -0.395728 0.000008 -3.264759
v -0.395728 0.000008 -3.457300
v -0.659076 0.000008 -3.264759
v -0.659076 0.000008 -3.457300
v -0.922424 0.000008 -3.264759
v -0.922424 0.000008 -3.457300
v -1.185772 0.000008 -3.264759
v -1.185772 0.000008 -3.457300
v -1.449120 0.000008 -3.264759
v -1.449120 0.000008 -3.457300
v 1.449125 0.000007 3.457302
v 1.449125 0.000007 3.264761
v 1.185777 0.000007 3.457302
v 1.185777 0.000007 3.264761
v 0.922429 0.000007 3.457302
v 0.922429 0.000007 3.264761
v 0.659081 0.000007 3.457302
v 0.659081 0.000007 3.264761
v 0.395733 0.000007 3.457302
v 0.395733 0.000007 3.264761
v 0.132384 0.000007 3.457302
v 0.132384 0.000007 3.264761
v -0.132380 0.000007 3.457302
v -0.132380 0.000007 3.264761
v -0.395728 0.000007 3.457302
v -0.395728 0.000007 3.264761
v -0.659076 0.000007 3.457302
v -0.659076 0.000007 3.264761
v -0.922424 0.000007 3.457302
v -0.922424 0.000007 3.264761
v -1.185772 0.000007 3.457302
v -1.185772 0.000007 3.264761
v -1.449120 0.000007 3.457302
v -1.449120 0.000007 3.264761
v -1.185772 2.500500 -3.457300
v -1.449120 2.500500 -3.457300
v -1.185772 0.163694 -3.457300
v -1.449120 0.163694 -3.457300
v -1.185772 0.000008 -3.457300
v -1.449120 0.000008 -3.457300
v -0.922424 0.000008 -3.457300
v -0.922424 0.163694 -3.457300
v -0.659076 0.000008 -3.457300
v -0.659076 0.163694 -3.457300
v -0.395728 0.000008 -3.457300
v -0.395728 0.163694 -3.457300
v -0.132380 0.000008 -3.457300
v -0.132380 0.163694 -3.457300
v 0.132384 0.000008 -3.457300
v 0.132384 0.163694 -3.457300
v 0.395733 0.000008 -3.457300
v 0.395733 0.163694 -3.457300
v 0.659081 0.000008 -3.457300
v 0.659081 0.163694 -3.457300
v 0.922429 0.000008 -3.457300
v 0.922429 0.163694 -3.457300
v 1.185777 0.000008 -3.457300
v 1.185777 0.163694 -3.457300
v 1.449125 0.000008 -3.457300
v 1.449125 0.163694 -3.457300
v 1.185777 2.500500 -3.457300
v 1.449125 2.500500 -3.457300
v -1.185772 0.163694 3.264761
v -1.185772 0.163694 3.457302
v -1.185772 2.500500 3.264761
v -1.185772 2.500500 3.457303
v -1.449120 2.500500 -3.457300
v -1.449120 2.500500 -3.264758
v -1.449120 0.163694 -3.457300
v -1.449120 0.163694 -3.264759
v -1.449120 0.000008 -3.457300
v -1.449120 0.000008 -3.264759
v 1.449125 2.500500 3.457303
v 1.449125 2.500500 3.264761
v 1.449125 0.163694 3.457302
v 1.449125 0.163694 3.264761
v 1.449125 0.000007 3.457302
v 1.449125 0.000007 3.264761
v 1.185777 0.163694 3.457302
v 1.185777 0.163694 3.264761
v 1.185777 2.500500 3.457303
v 1.185777 2.500500 3.264761
v 1.449125 2.500500 3.264761
v 1.185777 2.500500 3.264761
v 1.449125 0.163694 3.264761
v 1.185777 0.163694 3.264761
v 1.449125 0.000007 3.264761
v 1.185777 0.000007 3.264761
v 0.922429 0.163694 3.264761
v 0.922429 0.000007 3.264761
v 0.659081 0.163694 3.264761
v 0.659081 0.000007 3.264761
v 0.395733 0.163694 3.264761
v 0.395733 0.000007 3.264761
v 0.132384 0.163694 3.264761
v 0.132384 0.000007 3.264761
v -0.132380 0.163694 3.264761
v -0.132380 0.000007 3.264761
v -0.395728 0.163694 3.264761
v -0.395728 0.000007 3.264761
v -0.659076 0.163694 3.264761
v -0.659076 0.000007 3.264761
v -0.922424 0.163694 3.264761
v -0.922424 0.000007 3.264761
v -1.185772 0.163694 3.264761
v -1.185772 0.000007 3.264761
v -1.449120 0.163694 3.264761
v -1.449120 0.000007 3.264761
v -1.449120 2.500500 3.264761
v -1.185772 2.500500 3.264761
v -1.185772 0.163694 -3.457300
v -1.185772 2.500500 -3.457300
v -1.185772 0.163694 -3.264759
v -1.185772 2.500500 -3.264758
v -1.449120 2.500500 -3.264758
v -1.449120 0.163694 -3.264759
v -1.185772 2.500500 -3.264758
v -1.185772 0.163694 -3.264759
v -1.449120 0.000008 -3.264759
v -1.185772 0.000008 -3.264759
v -0.922424 0.163694 -3.264759
v -0.922424 0.000008 -3.264759
v -0.659076 0.163694 -3.264759
v -0.659076 0.000008 -3.264759
v -0.395728 0.163694 -3.264759
v -0.395728 0.000008 -3.264759
v -0.132380 0.163694 -3.264759
v -0.132380 0.000008 -3.264759
v 0.132384 0.163694 -3.264759
v 0.132384 0.000008 -3.264759
v 0.395733 0.163694 -3.264759
v 0.395733 0.000008 -3.264759
v 0.659081 0.163694 -3.264759
v 0.659081 0.000008 -3.264759
v 0.922429 0.163694 -3.264759
v 0.922429 0.000008 -3.264759
v 1.185777 0.163694 -3.264759
v 1.185777 0.000008 -3.264759
v 1.449125 0.163694 -3.264759
v 1.449125 0.000008 -3.264759
v 1.449125 2.500500 -3.264758
v 1.185777 2.500500 -3.264758
v -1.449120 2.500500 3.264761
v -1.449120 0.163694 3.264761
v -1.449120 2.500500 3.457303
v -1.449120 0.163694 3.457302
v -1.449120 0.000007 3.264761
v -1.449120 0.000007 3.457302
v 1.185777 0.163694 -3.264759
v 1.185777 0.163694 -3.457300
v 1.185777 2.500500 -3.264758
v 1.185777 2.500500 -3.457300
v 1.449125 2.500500 -3.264758
v 1.185777 2.500500 -3.264758
v 1.449125 2.500500 -3.457300
v 1.185777 2.500500 -3.457300
v 1.449125 2.500500 3.457303
v 1.185777 2.500500 3.457303
v 1.449125 2.500500 3.264761
v 1.185777 2.500500 3.264761
v -1.185772 2.500500 3.457303
v -1.449120 2.500500 3.457303
v -1.185772 2.500500 3.264761
v -1.449120 2.500500 3.264761
v -1.185772 2.500500 -3.264758
v -1.449120 2.500500 -3.264758
v -1.185772 2.500500 -3.457300
v -1.449120 2.500500 -3.457300
v -0.132380 0.000007 3.457302
v 0.132384 0.163694 3.457302
v 0.132384 0.000007 3.457302
v 0.395733 0.163694 3.457302
v 0.395733 0.000007 3.457302
v 0.659081 0.163694 3.457302
v 0.659081 0.000007 3.457302
v 0.922429 0.163694 3.457302
v 0.922429 0.000007 3.457302
v 1.185777 0.163694 3.457302
v 1.185777 0.000007 3.457302
v 1.449125 0.163694 3.457302
v 1.449125 0.000007 3.457302
v 1.449125 2.500500 3.457303
v 1.185777 2.500500 3.457303
v -0.132380 0.163694 3.457302
v -0.395728 0.000007 3.457302
v -0.395728 0.163694 3.457302
v -0.659076 0.000007 3.457302
v -0.659076 0.163694 3.457302
v -0.922424 0.000007 3.457302
v -0.922424 0.163694 3.457302
v -1.185772 0.000007 3.457302
v -1.185772 0.163694 3.457302
v -1.449120 0.000007 3.457302
v -1.449120 0.163694 3.457302
v -1.185772 2.500500 3.457303
v -1.449120 2.500500 3.457303
v 1.449125 0.000008 -3.457300
v 1.449125 0.000008 -3.264759
v 1.449125 0.163694 -3.457300
v 1.449125 0.163694 -3.264759
v 1.449125 2.500500 -3.457300
v 1.449125 2.500500 -3.264758
v 1.185777 0.163694 -3.264759
v 0.922429 0.163694 -3.264759
v 1.185777 0.163694 -3.457300
v 0.922429 0.163694 -3.457300
v 0.659081 0.163694 -3.264759
v 0.659081 0.163694 -3.457300
v 0.395733 0.163694 -3.264759
v 0.395733 0.163694 -3.457300
v 0.132384 0.163694 -3.264759
v 0.132384 0.163694 -3.457300
v -0.132380 0.163694 -3.264759
v -0.132380 0.163694 -3.457300
v -0.395728 0.163694 -3.264759
v -0.395728 0.163694 -3.457300
v -0.659076 0.163694 -3.264759
v -0.659076 0.163694 -3.457300
v -0.922424 0.163694 -3.264759
v -0.922424 0.163694 -3.457300
v -1.185772 0.163694 -3.264759
v -1.185772 0.163694 -3.457300
v 1.185777 0.163694 3.457302
v 1.185777 0.163694 3.264761
v 0.922429 0.163694 3.457302
v 0.922429 0.163694 3.264761
v 0.659081 0.163694 3.457302
v 0.659081 0.163694 3.264761
v 0.395733 0.163694 3.457302
v 0.395733 0.163694 3.264761
v 0.132384 0.163694 3.457302
v 0.132384 0.163694 3.264761
v -0.132380 0.163694 3.457302
v -0.132380 0.163694 3.264761
v -0.395728 0.163694 3.457302
v -0.395728 0.163694 3.264761
v -0.659076 0.163694 3.457302
v -0.659076 0.163694 3.264761
v -0.922424 0.163694 3.457302
v -0.922424 0.163694 3.264761
v -1.185772 0.163694 3.457302
v -1.185772 0.163694 3.264761
vn -0.0000 -1.0000 -0.0000
vn -0.0000 1.0000 -0.0000
vn -0.0000 -0.0022 -1.0000
vn 1.0000 -0.0022 -0.0000
vn -1.0000 -0.0022 -0.0000
vn -0.0000 -0.0022 1.0000
s 1
f 1//1 2//1 3//1
f 254//2 256//2 255//2
f 3//1 2//1 4//1
f 2//1 5//1 4//1
f 4//1 5//1 6//1
f 5//1 7//1 6//1
f 6//1 7//1 8//1
f 7//1 9//1 8//1
f 8//1 9//1 10//1
f 9//1 11//1 10//1
f 10//1 11//1 12//1
f 11//1 13//1 12//1
f 12//1 13//1 14//1
f 13//1 15//1 14//1
f 14//1 15//1 16//1
f 15//1 17//1 16//1
f 16//1 17//1 18//1
f 17//1 19//1 18//1
f 18//1 19//1 20//1
f 19//1 21//1 20//1
f 20//1 21//1 22//1
f 21//1 23//1 22//1
f 22//1 23//1 24//1
f 253//2 254//2 255//2
f 252//2 254//2 253//2
f 251//2 252//2 253//2
f 250//2 252//2 251//2
f 25//1 27//1 26//1
f 26//1 27//1 28//1
f 27//1 29//1 28//1
f 28//1 29//1 30//1
f 29//1 31//1 30//1
f 30//1 31//1 32//1
f 31//1 33//1 32//1
f 32//1 33//1 34//1
f 33//1 35//1 34//1
f 34//1 35//1 36//1
f 35//1 37//1 36//1
f 36//1 37//1 38//1
f 37//1 39//1 38//1
f 38//1 39//1 40//1
f 39//1 41//1 40//1
f 40//1 41//1 42//1
f 41//1 43//1 42//1
f 42//1 43//1 44//1
f 43//1 45//1 44//1
f 44//1 45//1 46//1
f 45//1 47//1 46//1
f 46//1 47//1 48//1
f 249//2 250//2 251//2
f 248//2 250//2 249//2
f 247//2 248//2 249//2
f 246//2 248//2 247//2
f 49//3 51//3 50//3
f 50//3 51//3 52//3
f 51//3 53//3 52//3
f 52//3 53//3 54//3
f 245//2 246//2 247//2
f 244//2 246//2 245//2
f 243//2 244//2 245//2
f 242//2 244//2 243//2
f 53//3 51//3 55//3
f 241//2 242//2 243//2
f 51//3 56//3 55//3
f 55//3 56//3 57//3
f 56//3 58//3 57//3
f 57//3 58//3 59//3
f 58//3 60//3 59//3
f 59//3 60//3 61//3
f 60//3 62//3 61//3
f 61//3 62//3 63//3
f 62//3 64//3 63//3
f 63//3 64//3 65//3
f 64//3 66//3 65//3
f 65//3 66//3 67//3
f 66//3 68//3 67//3
f 67//3 68//3 69//3
f 68//3 70//3 69//3
f 69//3 70//3 71//3
f 70//3 72//3 71//3
f 71//3 72//3 73//3
f 240//2 242//2 241//2
f 73//3 72//3 74//3
f 72//3 75//3 74//3
f 74//3 75//3 76//3
f 239//2 240//2 241//2
f 238//2 240//2 239//2
f 237//2 238//2 239//2
f 234//2 236//2 235//2
f 77//4 79//4 78//4
f 78//4 79//4 80//4
f 233//2 234//2 235//2
f 232//2 234//2 233//2
f 231//2 232//2 233//2
f 230//2 232//2 231//2
f 81//5 83//5 82//5
f 82//5 83//5 84//5
f 83//5 85//5 84//5
f 84//5 85//5 86//5
f 229//2 230//2 231//2
f 228//2 230//2 229//2
f 227//2 228//2 229//2
f 226//2 228//2 227//2
f 87//4 89//4 88//4
f 88//4 89//4 90//4
f 89//4 91//4 90//4
f 90//4 91//4 92//4
f 225//2 226//2 227//2
f 224//2 226//2 225//2
f 223//2 224//2 225//2
f 222//2 224//2 223//2
f 93//5 95//5 94//5
f 94//5 95//5 96//5
f 221//2 222//2 223//2
f 220//2 222//2 221//2
f 218//2 220//2 221//2
f 219//2 220//2 218//2
f 97//3 99//3 98//3
f 98//3 99//3 100//3
f 99//3 101//3 100//3
f 217//2 219//2 218//2
f 101//3 102//3 100//3
f 100//3 102//3 103//3
f 102//3 104//3 103//3
f 103//3 104//3 105//3
f 104//3 106//3 105//3
f 105//3 106//3 107//3
f 106//3 108//3 107//3
f 107//3 108//3 109//3
f 108//3 110//3 109//3
f 109//3 110//3 111//3
f 110//3 112//3 111//3
f 111//3 112//3 113//3
f 112//3 114//3 113//3
f 113//3 114//3 115//3
f 114//3 116//3 115//3
f 115//3 116//3 117//3
f 116//3 118//3 117//3
f 117//3 118//3 119//3
f 118//3 120//3 119//3
f 119//3 120//3 121//3
f 120//3 122//3 121//3
f 214//4 215//4 216//4
f 213//4 215//4 214//4
f 212//4 213//4 214//4
f 211//4 213//4 212//4
f 121//3 123//3 119//3
f 123//3 124//3 119//3
f 208//6 209//6 210//6
f 206//6 209//6 208//6
f 207//6 206//6 208//6
f 205//6 206//6 207//6
f 125//4 126//4 127//4
f 126//4 128//4 127//4
f 204//6 206//6 205//6
f 203//6 204//6 205//6
f 202//6 204//6 203//6
f 201//6 202//6 203//6
f 129//6 130//6 131//6
f 200//6 202//6 201//6
f 131//6 130//6 132//6
f 130//6 133//6 132//6
f 199//6 200//6 201//6
f 133//6 134//6 132//6
f 132//6 134//6 135//6
f 134//6 136//6 135//6
f 135//6 136//6 137//6
f 136//6 138//6 137//6
f 137//6 138//6 139//6
f 138//6 140//6 139//6
f 139//6 140//6 141//6
f 140//6 142//6 141//6
f 141//6 142//6 143//6
f 142//6 144//6 143//6
f 143//6 144//6 145//6
f 144//6 146//6 145//6
f 145//6 146//6 147//6
f 146//6 148//6 147//6
f 147//6 148//6 149//6
f 148//6 150//6 149//6
f 149//6 150//6 151//6
f 150//6 152//6 151//6
f 151//6 152//6 153//6
f 152//6 154//6 153//6
f 198//6 200//6 199//6
f 183//6 198//6 199//6
f 184//6 198//6 183//6
f 196//6 197//6 192//6
f 153//6 155//6 151//6
f 155//6 156//6 151//6
f 194//6 196//6 192//6
f 193//6 195//6 194//6
f 192//6 193//6 194//6
f 191//6 193//6 192//6
f 157//5 158//5 159//5
f 190//6 191//6 192//6
f 159//5 158//5 160//5
f 158//5 161//5 160//5
f 160//5 161//5 162//5
f 189//6 191//6 190//6
f 188//6 189//6 190//6
f 187//6 189//6 188//6
f 186//6 187//6 188//6
f 163//5 165//5 164//5
f 164//5 165//5 166//5
f 185//6 187//6 186//6
f 184//6 185//6 186//6
f 183//6 185//6 184//6
f 180//2 181//2 182//2
f 167//2 169//2 168//2
f 168//2 169//2 170//2
f 179//2 181//2 180//2
f 176//2 177//2 178//2
f 175//2 177//2 176//2
f 172//2 173//2 174//2
f 171//2 173//2 172//2
