# Blender 5.0.1
# www.blender.org
mtllib model_6.mtl
o model_6
v -0.957934 4.446470 0.261457
v -0.957934 3.057135 0.261457
v -0.170342 4.446469 2.609589
v -0.170342 3.057135 2.609589
v -0.573864 4.446470 -2.215763
v -0.573864 3.057135 -2.215764
v -0.951081 4.446469 0.232027
v -0.951081 3.057135 0.232027
vn -0.9481 -0.0021 0.3180
vn -0.9481 -0.0022 0.3180
vn -0.9883 -0.0022 -0.1523
vn -0.9883 -0.0021 -0.1523
vt 0.998188 0.995301
vt 0.999652 0.000969
vt 0.001813 0.995301
vt 0.000348 0.000969
s 1
f 1/1/1 2/2/2 3/3/2
f 2/2/2 4/4/1 3/3/2
f 6/2/3 8/4/3 7/3/3
f 5/1/4 6/2/3 7/3/3
