# Blender 5.0.1
# www.blender.org
mtllib model_12.mtl
o model_12
v 3.281677 1.893069 -0.400468
v 3.318007 1.868057 -0.264753
v 3.330321 1.780517 -0.462512
v 3.372653 1.775515 -0.261807
v 3.250279 1.868057 -0.046833
v 3.301784 1.775515 -0.031825
v 2.728866 1.868057 0.573611
v 2.750289 1.775515 0.624414
v 2.581126 1.868057 0.643987
v 2.594802 1.775515 0.698459
v 2.424911 1.893069 0.619021
v 2.372725 1.780517 0.676957
v 1.398020 1.893069 -0.243965
v 1.349934 1.780517 -0.182584
v 1.360198 1.868057 -0.382066
v 1.305551 1.775514 -0.385011
v 2.116881 1.775514 -1.317143
v 2.129191 1.868057 -1.263819
v 1.903217 1.775514 -1.207163
v 1.926184 1.868057 -1.159586
v 1.351722 1.775514 -0.550924
v 1.404771 1.868057 -0.539142
v 1.305551 1.775514 -0.385011
v 1.360198 1.868057 -0.382066
v 1.402331 1.632949 -0.189446
v 1.517643 1.599183 -0.326660
v 1.360198 1.655459 -0.382066
v 1.404771 1.655459 -0.539142
v 2.146570 1.599183 -1.075037
v 1.926184 1.655459 -1.159586
v 2.309790 1.632949 -1.269257
v 2.129191 1.655459 -1.263819
v 3.318007 1.868057 -0.264753
v 3.281677 1.893069 -0.400468
v 3.250279 1.868057 -0.046833
v 3.127927 1.924333 -0.217517
v 2.728866 1.868057 0.573611
v 2.534096 1.924333 0.489099
v 2.581126 1.868057 0.643987
v 2.424911 1.893069 0.619021
v 1.507205 1.924333 -0.373887
v 2.101036 1.924333 -1.080503
v 1.926184 1.868057 -1.159586
v 2.129191 1.868057 -1.263819
v 2.254786 1.893069 -1.263455
v 1.404771 1.868057 -0.539142
v 1.398020 1.893069 -0.243965
v 1.360198 1.868057 -0.382066
v 2.424911 1.893069 0.619021
v 1.398020 1.893069 -0.243965
v 2.372725 1.780517 0.676957
v 1.349934 1.780517 -0.182584
v 2.129191 1.868057 -1.263819
v 2.254786 1.893069 -1.263455
v 2.116881 1.775514 -1.317143
v 2.307529 1.780517 -1.322053
v 2.581126 1.655460 0.643987
v 2.371148 1.632949 0.624735
v 2.728866 1.655460 0.573611
v 2.486460 1.599184 0.487522
v 3.250279 1.655460 -0.046833
v 3.115387 1.599184 -0.260856
v 3.318007 1.655460 -0.264753
v 3.278607 1.632949 -0.455076
v 2.254786 1.893069 -1.263455
v 3.281677 1.893069 -0.400468
v 2.307529 1.780517 -1.322053
v 3.330321 1.780517 -0.462512
v 2.307529 1.780517 -1.322053
v 3.330321 1.780517 -0.462512
v 2.309790 1.632949 -1.269257
v 3.278607 1.632949 -0.455076
v 2.371148 1.632949 0.624735
v 2.581126 1.655460 0.643987
v 2.372725 1.780517 0.676957
v 2.594802 1.775515 0.698459
v 2.728866 1.655460 0.573611
v 2.750289 1.775515 0.624414
v 3.250279 1.655460 -0.046833
v 3.301784 1.775515 -0.031825
v 3.318007 1.655460 -0.264753
v 3.372653 1.775515 -0.261807
v 3.278607 1.632949 -0.455076
v 3.330321 1.780517 -0.462512
v 2.116881 1.775514 -1.317143
v 2.129191 1.655459 -1.263819
v 2.307529 1.780517 -1.322053
v 2.309790 1.632949 -1.269257
v 2.372725 1.780517 0.676957
v 2.371148 1.632949 0.624735
v 1.349934 1.780517 -0.182584
v 1.402331 1.632949 -0.189446
v 2.129191 1.655459 -1.263819
v 2.116881 1.775514 -1.317143
v 1.926184 1.655459 -1.159586
v 1.903217 1.775514 -1.207163
v 1.404771 1.655459 -0.539142
v 1.351722 1.775514 -0.550924
v 1.360198 1.655459 -0.382066
v 1.305551 1.775514 -0.385011
v 1.349934 1.780517 -0.182584
v 1.402331 1.632949 -0.189446
v 1.305551 1.775514 -0.385011
v 1.360198 1.655459 -0.382066
v 3.278607 1.632949 -0.455076
v 2.309790 1.632949 -1.269257
v 2.873801 1.599184 -0.302145
v 2.228835 1.599183 -0.844167
v 3.162895 3.751425 -0.732151
v 2.601965 3.751425 -1.203549
v 3.128914 3.758929 -0.691716
v 2.567984 3.758929 -1.163114
v 2.567984 3.758929 -1.163114
v 2.603079 4.159113 -1.204875
v 2.599350 3.793945 -1.100562
v 2.628318 4.124097 -1.135031
v 2.641301 3.828961 -1.050604
v 2.664140 4.089081 -1.077781
v 3.197990 4.151610 -0.773911
v 3.162895 3.751425 -0.732151
v 3.164009 4.159113 -0.733476
v 3.128914 3.758929 -0.691716
v 2.601965 3.751425 -1.203549
v 2.637060 4.151610 -1.245310
v 2.567984 3.758929 -1.163114
v 2.603079 4.159113 -1.204875
v 2.637060 4.151610 -1.245310
v 3.197990 4.151610 -0.773911
v 2.603079 4.159113 -1.204875
v 3.164009 4.159113 -0.733476
v 3.128914 3.758929 -0.691716
v 2.567984 3.758929 -1.163114
v 3.062579 3.793945 -0.711270
v 2.599350 3.793945 -1.100562
v 3.006145 3.828961 -0.743994
v 2.641301 3.828961 -1.050604
v 3.028984 4.089081 -0.771171
v 2.664140 4.089081 -1.077781
v 3.091546 4.124097 -0.745740
v 2.628318 4.124097 -1.135031
v 2.603079 4.159113 -1.204875
v 3.164009 4.159113 -0.733476
v 2.628318 4.124097 -1.135031
v 3.091546 4.124097 -0.745740
v 3.164009 4.159113 -0.733476
v 3.128914 3.758929 -0.691716
v 3.091546 4.124097 -0.745740
v 3.062579 3.793945 -0.711270
v 3.028984 4.089081 -0.771171
v 3.006145 3.828961 -0.743994
v 3.197086 3.671388 -0.795030
v 3.123700 3.442533 -0.693835
v 3.330282 3.671388 -0.738513
v 3.259073 3.442533 -0.634359
v 3.015067 3.442533 -0.785129
v 3.091185 3.671388 -0.884027
v 2.905751 3.442533 -0.876997
v 2.984602 3.671388 -0.973598
v 2.797118 3.442533 -0.968291
v 2.878701 3.671388 -1.062596
v 2.688484 3.442533 -1.059585
v 2.772801 3.671388 -1.151593
v 2.579851 3.442533 -1.150879
v 2.666901 3.671388 -1.240590
v 2.497274 3.442533 -1.274565
v 2.587614 3.671388 -1.362642
v 2.224920 2.508352 -1.029551
v 2.317872 2.508352 -0.896016
v 2.437437 2.508352 -0.795535
v 2.207199 2.364536 -1.019561
v 2.301517 2.364536 -0.884878
v 2.222270 2.249483 -1.055529
v 2.319322 2.249483 -0.918549
v 2.448780 1.996867 -1.125307
v 2.517136 1.996867 -1.012442
v 2.442986 2.249483 -0.814623
v 2.613471 1.996867 -0.931483
v 2.423131 2.364536 -0.782674
v 2.557685 2.508352 -0.694480
v 2.677933 2.508353 -0.593425
v 2.544746 2.364536 -0.680471
v 2.567333 2.249483 -0.710123
v 2.709123 1.996867 -0.851099
v 2.691681 2.249483 -0.605623
v 2.805458 1.996867 -0.770140
v 2.666360 2.364536 -0.578268
v 2.797498 2.508353 -0.492944
v 2.917746 2.508353 -0.391889
v 3.064607 2.508353 -0.323889
v 2.909590 2.364536 -0.373861
v 3.058500 2.364536 -0.304138
v 2.787975 2.364536 -0.476064
v 2.815345 2.249483 -0.501697
v 2.939692 2.249483 -0.397197
v 3.090653 2.249483 -0.325751
v 2.997445 1.996867 -0.608796
v 2.901793 1.996867 -0.689181
v 3.121076 1.996867 -0.560318
v 3.292355 3.592602 -0.865391
v 3.407138 3.592602 -0.768930
v 3.297086 3.442533 -0.855761
v 3.414601 3.442533 -0.757003
v 3.093180 2.508353 -0.552093
v 3.222993 2.508353 -0.443000
v 3.085707 2.364536 -0.533491
v 3.216887 2.364536 -0.423249
v 3.115810 2.249483 -0.556826
v 3.250406 2.249483 -0.443714
v 3.079650 2.128177 -0.666386
v 3.182817 2.128177 -0.579686
v 2.560397 2.128177 -1.102760
v 2.456546 2.128177 -1.190035
v 2.445564 2.249483 -1.120093
v 2.311651 2.249483 -1.232631
v 2.428442 2.364536 -1.085848
v 2.296580 2.364536 -1.196664
v 2.445480 2.508352 -1.096412
v 2.315667 2.508352 -1.205505
v 2.708827 3.442533 -1.350127
v 2.591311 3.442533 -1.448885
v 2.719127 3.592602 -1.347125
v 2.604345 3.592602 -1.443587
v 2.222270 2.249483 -1.055529
v 2.207199 2.364536 -1.019561
v 2.311651 2.249483 -1.232631
v 2.296580 2.364536 -1.196664
v 2.224920 2.508352 -1.029551
v 2.315667 2.508352 -1.205505
v 2.497274 3.442533 -1.274565
v 2.591311 3.442533 -1.448885
v 2.587614 3.671388 -1.362642
v 2.604345 3.592602 -1.443587
v 3.090653 2.249483 -0.325751
v 3.250406 2.249483 -0.443714
v 3.121076 1.996867 -0.560318
v 3.182817 2.128177 -0.579686
v 3.330282 3.671388 -0.738513
v 3.407138 3.592602 -0.768930
v 3.259073 3.442533 -0.634359
v 3.414601 3.442533 -0.757003
v 3.064607 2.508353 -0.323889
v 3.222993 2.508353 -0.443000
v 3.058500 2.364536 -0.304138
v 3.216887 2.364536 -0.423249
v 3.090653 2.249483 -0.325751
v 3.250406 2.249483 -0.443714
v 2.448780 1.996867 -1.125307
v 2.456546 2.128177 -1.190035
v 2.222270 2.249483 -1.055529
v 2.311651 2.249483 -1.232631
vn 0.8627 0.4797 -0.1600
vn 0.8658 0.4987 0.0411
vn 0.6142 0.5653 0.5507
vn 0.6142 0.5653 0.5506
vn 0.8649 0.4988 0.0562
vn 0.7609 0.4873 0.4284
vn 0.7709 0.4912 0.4056
vn 0.5424 0.4949 0.6788
vn 0.5198 0.4987 0.6936
vn 0.1390 0.5100 0.8488
vn 0.1613 0.5101 0.8449
vn -0.0661 0.4873 0.8707
vn 0.6142 0.5652 0.5507
vn -0.5988 -0.0546 -0.7990
vn -0.6013 -0.0240 -0.7987
vn -0.5987 -0.0590 -0.7988
vn -0.6009 -0.1155 -0.7909
vn -0.8596 0.4835 0.1654
vn -0.8642 0.5025 -0.0243
vn -0.8637 0.5025 -0.0394
vn -0.6032 -0.1068 -0.7904
vn -0.5937 -0.1415 -0.7921
vn -0.5790 -0.1502 -0.8014
vn -0.2333 0.4873 -0.8415
vn -0.5353 0.4874 -0.6899
vn -0.2260 0.4873 -0.8435
vn -0.5576 0.4835 -0.6747
vn -0.7761 0.4949 -0.3907
vn -0.7619 0.4911 -0.4222
vn -0.8637 0.5025 -0.0395
vn -0.8642 0.5025 -0.0244
vn -0.6482 0.5653 -0.5102
vn -0.6481 0.5653 -0.5102
vn 0.8825 -0.1416 0.4484
vn 0.8891 -0.1502 0.4324
vn -0.1463 -0.9883 0.0425
vn -0.3203 -0.9454 -0.0605
vn -0.1334 -0.9908 0.0209
vn 0.8825 -0.1415 0.4484
vn -0.2276 -0.9647 -0.1326
vn -0.0390 -0.9908 -0.1293
vn -0.1737 -0.9658 -0.1924
vn -0.0024 -0.9908 -0.1351
vn -0.1319 -0.9523 -0.2753
vn 0.8826 -0.1155 0.4557
vn 0.8825 -0.1068 0.4581
vn 0.8902 -0.0546 0.4524
vn 0.8899 -0.0589 0.4522
vn 0.3081 0.9468 0.0930
vn 0.1724 0.9848 -0.0226
vn 0.2399 0.9599 0.1450
vn 0.1522 0.9877 0.0372
vn 0.1813 0.9599 0.2137
vn 0.0471 0.9855 0.1629
vn 0.1221 0.9439 0.3067
vn 0.8903 -0.0240 0.4548
vn -0.0195 0.9772 0.2116
vn -0.1800 0.9832 -0.0306
vn -0.0733 0.9848 -0.1577
vn -0.2066 0.9509 -0.2303
vn -0.6296 0.2060 0.7491
vn -0.6431 0.0284 0.7653
vn -0.1729 0.9334 -0.3144
vn -0.6307 0.1975 0.7505
vn -0.0130 0.9832 -0.1820
vn -0.6238 0.2445 0.7423
vn -0.6232 0.2486 0.7415
vn -0.6400 -0.1025 0.7615
vn -0.6405 -0.0938 0.7622
vn -0.6010 -0.3567 0.7152
vn -0.5959 -0.3772 0.7090
vn -0.5775 -0.4409 0.6871
vn -0.2683 0.9509 -0.1542
vn -0.2157 0.9753 0.0481
vn -0.5959 -0.3771 0.7090
vn -0.3533 0.9318 -0.0830
vn -0.6238 0.2447 0.7423
vn -0.6296 0.2061 0.7491
vn -0.5275 0.5725 0.6277
vn -0.5275 0.5724 0.6277
vn -0.6431 0.0285 0.7652
vn 0.3674 0.4797 -0.7968
vn 0.3054 0.6585 -0.6879
vn 0.4143 0.6419 -0.6452
vn 0.6376 0.0938 -0.7646
vn 0.6434 0.0938 -0.7598
vn 0.6231 -0.2488 -0.7415
vn -0.2259 0.4873 -0.8435
vn -0.0585 0.4681 -0.8817
vn -0.2332 0.4873 -0.8415
vn 0.5197 -0.2486 -0.8174
vn 0.5411 0.0808 -0.8371
vn 0.5643 0.4720 -0.6773
vn 0.5057 0.6182 -0.6018
vn 0.5701 0.4720 -0.6725
vn 0.1028 -0.9536 0.2830
vn -0.0215 -0.9890 0.1465
vn 0.1549 -0.9702 0.1862
vn -0.0067 -0.9920 0.1262
vn 0.2050 -0.9713 0.1210
vn 0.1217 -0.9925 0.0090
vn 0.2711 -0.9599 0.0709
vn 0.1285 -0.9914 -0.0242
vn 0.4620 0.4758 -0.7485
vn 0.4221 0.0851 -0.9026
vn 0.5275 0.5725 -0.6277
vn 0.5275 0.5724 -0.6277
vn 0.6210 -0.2613 -0.7390
vn 0.4030 -0.2528 -0.8796
vn -0.0760 -0.3690 0.9263
vn 0.1511 -0.4013 0.9034
vn -0.0761 -0.3690 0.9263
vn 0.1677 -0.4053 0.8987
vn 0.5733 -0.4013 0.7143
vn 0.5510 -0.4053 0.7295
vn 0.8010 -0.3973 0.4478
vn 0.8078 -0.4013 0.4318
vn 0.9166 -0.3973 0.0451
vn 0.9127 -0.3690 -0.1756
vn 0.3630 -0.4212 -0.8312
vn 0.4830 -0.4212 -0.7677
vn 0.5806 -0.4212 -0.6968
vn -0.2297 -0.3933 -0.8903
vn -0.0416 -0.3731 -0.9269
vn -0.2298 -0.3932 -0.8903
vn -0.6210 -0.2613 0.7390
vn 0.5057 0.6181 -0.6018
vn -0.2298 -0.3932 -0.8902
vn -0.5834 -0.3933 -0.7107
vn -0.2298 -0.3933 -0.8902
vn -0.5672 -0.3973 -0.7214
vn -0.8024 -0.4013 -0.4418
vn -0.8165 -0.4012 -0.4152
vn -0.9156 -0.4013 -0.0236
vn -0.9154 -0.4013 -0.0311
vn 0.6577 0.4758 -0.5839
vn -0.9098 -0.3731 0.1818
vn -0.9154 -0.4013 -0.0310
vn -0.9157 -0.4013 -0.0235
vn 0.7315 0.0808 -0.6771
vn 0.1284 -0.9914 -0.0242
vn 0.0329 -0.9954 -0.0902
vn -0.0024 -0.9908 -0.1350
vn 0.0831 -0.9954 -0.0479
vn 0.7157 -0.2486 -0.6526
vn -0.0478 -0.9972 0.0568
vn -0.0869 -0.9908 0.1034
vn 0.5643 0.6419 -0.5193
vn 0.6250 0.6585 -0.4193
vn 0.7216 0.4797 -0.4991
vn -0.9143 0.1199 0.3869
vn -0.7703 -0.2401 0.5907
vn -0.7244 0.4330 0.5364
vn -0.7037 -0.0546 0.7084
vn -0.6752 0.2990 0.6744
vn 0.8164 0.0851 -0.5711
vn 0.7971 -0.2528 -0.5484
vn 0.7656 -0.0022 0.6434
vn 0.6731 -0.4212 -0.6079
vn -0.7656 -0.0022 -0.6434
vn 0.7563 -0.4212 -0.5007
vn 0.6588 -0.4797 -0.5796
vn 0.7370 -0.4720 -0.4838
vn 0.5616 -0.4797 -0.6741
vn 0.0869 0.9908 -0.1034
vn 0.5617 -0.4797 -0.6741
vn -0.5040 -0.6215 0.5998
vn -0.4493 -0.2401 0.8605
vn -0.5040 -0.6215 0.5997
vn -0.7703 -0.2402 0.5907
vn -0.5767 -0.0546 0.8151
vn -0.5481 0.2990 0.7811
vn -0.6751 0.2990 0.6744
vn -0.4037 0.4331 0.8059
vn -0.7244 0.4331 0.5364
vn 0.4575 -0.4796 -0.7488
vn -0.4413 0.7277 0.5251
vn -0.4413 0.7276 0.5252
vn -0.4036 0.4331 0.8059
vn 0.3497 -0.4720 -0.8093
vn -0.5481 0.2990 0.7812
vn -0.5767 -0.0545 0.8152
vn -0.2237 0.1199 0.9673
vn -0.4036 0.4330 0.8060
vt 0.897542 -0.133501
vt 0.897542 -0.022549
vt 0.551274 -0.133501
vt -0.101521 -0.712807
vt 0.551274 -0.022549
vt 0.897542 0.120232
vt 0.551274 0.120232
vt 0.897542 0.671400
vt 0.551274 0.671400
vt 0.897542 0.772574
vt 0.551274 0.772574
vt 0.897542 0.883527
vt 0.551274 0.883527
vt -0.334216 1.486679
vt 1.537869 1.486679
vt 0.897542 1.465027
vt 0.897542 1.567698
vt 0.551274 1.465027
vt 0.551274 1.567698
vt 0.516112 0.999966
vt 0.516112 0.955167
vt 0.625008 0.999966
vt 0.625008 0.955167
vt 0.516112 0.781754
vt 0.625008 0.781754
vt 0.516112 0.750025
vt 0.625008 0.750025
vt 0.102441 1.465027
vt 0.102441 1.567698
vt 0.001239 1.465027
vt 0.001239 1.567698
vt -0.549964 1.465027
vt -0.549964 1.567698
vt -0.692659 1.465027
vt -0.692659 1.567698
vt 1.692643 0.772574
vt 1.692643 0.883527
vt 1.549947 0.772574
vt 1.549947 0.883527
vt 0.998744 0.772574
vt 0.998744 0.883527
vt 0.998744 1.465027
vt 1.549947 1.465027
vt 1.549947 1.567698
vt -0.334216 -0.244952
vt -0.334216 0.002395
vt 1.692643 1.567698
vt 1.692643 1.465027
vt 0.998744 1.567698
vt -0.334216 1.239332
vt 1.282576 0.991984
vt 1.282576 0.744537
vt 1.103549 0.991984
vt 0.897542 -0.817673
vt 0.897542 -0.715102
vt 0.551274 -0.817673
vt 0.551274 -0.715102
vt 1.103549 1.239332
vt 1.282576 1.239332
vt 1.537869 0.991984
vt -0.334216 0.744537
vt 1.537869 0.744537
vt -0.334216 0.991984
vt 0.102441 0.772574
vt 0.102441 0.883527
vt 0.001239 0.772574
vt 0.001239 0.883527
vt -0.549964 0.772574
vt -0.549964 0.883527
vt -0.692659 0.772574
vt -0.692659 0.883527
vt 1.537869 1.239332
vt 0.102441 -0.715102
vt 0.102441 -0.133501
vt 1.537869 0.497190
vt 1.282479 0.497190
vt 0.102441 0.671400
vt 0.102441 0.120232
vt 0.102441 -0.022549
vt -0.051261 1.239332
vt -0.051261 0.991984
vt 0.102441 -0.817673
vt 1.103549 0.744537
vt 1.103549 0.497190
vt 1.282576 0.249842
vt -0.334216 0.497190
vt -0.334216 0.249842
vt 0.374975 0.999966
vt 0.374975 0.955167
vt 0.374975 0.781754
vt 0.374975 0.750025
vt 1.537869 0.249842
vt 1.537869 0.002395
vt 1.282576 0.002395
vt -0.051261 0.744537
vt -0.051261 0.497190
vt 1.103549 0.249842
vt 1.103549 0.002395
vt 2.098716 1.792396
vt 1.595824 1.792396
vt 2.125404 -0.382944
vt 1.595824 -0.501280
vt 1.537869 -0.244952
vt 0.004843 2.451723
vt 1.282479 -0.244952
vt 1.103549 -0.244952
vt 0.004843 1.870222
vt -0.051261 0.249842
vt -0.051261 0.002395
vt -1.066200 1.258289
vt -0.051261 -0.244952
vt 1.127510 0.275585
vt 1.017542 0.822263
vt 0.557313 -0.594073
vt -0.102690 -0.334153
vt 0.528092 1.766055
vt 0.609813 -0.488109
vt -0.415451 1.792396
vt -0.415451 -0.501280
vt 0.542508 0.995576
vt 0.002311 0.429241
s 1
f 1/1/1 2/2/2 3/3/1
f 248/4/3 250/4/4 249/4/4
f 3/3/1 2/2/2 4/5/5
f 2/2/2 5/6/6 4/5/5
f 4/5/5 5/6/6 6/7/7
f 5/6/6 7/8/8 6/7/7
f 6/7/7 7/8/8 8/9/9
f 7/8/8 9/10/10 8/9/9
f 8/9/9 9/10/10 10/11/11
f 9/10/10 11/12/12 10/11/11
f 10/11/11 11/12/12 12/13/12
f 247/4/13 248/4/3 249/4/4
f 244/14/14 246/14/15 245/15/15
f 243/15/16 244/14/14 245/15/15
f 242/14/17 244/14/14 243/15/16
f 13/16/18 15/17/19 14/18/18
f 14/18/18 15/17/19 16/19/20
f 241/15/21 242/14/17 243/15/16
f 240/14/22 242/14/17 241/15/21
f 239/15/22 240/14/22 241/15/21
f 238/14/23 240/14/22 239/15/22
f 17/20/24 19/21/25 18/22/26
f 18/22/26 19/21/25 20/23/27
f 19/21/25 21/24/28 20/23/27
f 20/23/27 21/24/28 22/25/29
f 21/24/28 23/26/30 22/25/29
f 22/25/29 23/26/30 24/27/31
f 237/15/23 238/14/23 239/15/22
f 234/14/32 236/14/33 235/14/32
f 233/15/32 234/14/32 235/14/32
f 230/4/34 232/4/35 231/4/35
f 25/28/36 27/29/37 26/30/38
f 229/4/39 230/4/34 231/4/35
f 27/29/37 28/31/40 26/30/38
f 26/30/38 28/31/40 29/32/41
f 28/31/40 30/33/42 29/32/41
f 29/32/41 30/33/42 31/34/43
f 30/33/42 32/35/44 31/34/43
f 228/4/45 230/4/34 229/4/39
f 227/4/46 228/4/45 229/4/39
f 226/4/47 228/4/45 227/4/46
f 224/4/48 226/4/47 227/4/46
f 33/36/49 34/37/50 35/38/51
f 34/37/50 36/39/52 35/38/51
f 35/38/51 36/39/52 37/40/53
f 36/39/52 38/41/54 37/40/53
f 37/40/53 38/41/54 39/10/55
f 225/4/56 226/4/47 224/4/48
f 39/10/55 38/41/54 40/12/57
f 223/4/56 225/4/56 224/4/48
f 40/12/57 38/41/54 41/42/58
f 38/41/54 42/43/59 41/42/58
f 41/42/58 42/43/59 43/44/60
f 220/45/61 221/46/62 222/45/62
f 43/44/60 42/43/59 44/47/63
f 219/46/64 221/46/62 220/45/61
f 44/47/63 42/43/59 45/48/65
f 42/43/59 36/39/52 45/48/65
f 45/48/65 36/39/52 34/37/50
f 218/45/66 219/46/64 220/45/61
f 217/46/67 219/46/64 218/45/66
f 216/45/68 217/46/67 218/45/66
f 215/46/69 217/46/67 216/45/68
f 38/41/54 36/39/52 42/43/59
f 214/45/70 215/46/69 216/45/68
f 213/46/71 215/46/69 214/45/70
f 212/45/72 213/46/71 214/45/70
f 211/46/72 213/46/71 212/45/72
f 43/44/60 46/49/73 41/42/58
f 46/49/73 47/16/74 41/42/58
f 41/42/58 47/16/74 40/12/57
f 208/14/70 209/50/72 210/14/72
f 207/50/75 209/50/72 208/14/70
f 206/14/68 207/50/75 208/14/70
f 205/50/69 207/50/75 206/14/68
f 47/16/74 46/49/73 48/17/76
f 204/14/77 205/50/69 206/14/68
f 203/50/67 205/50/69 204/14/77
f 202/14/78 203/50/67 204/14/77
f 201/50/64 203/50/67 202/14/78
f 49/12/79 50/16/80 51/13/79
f 50/16/80 52/18/79 51/13/79
f 200/14/62 201/50/64 202/14/78
f 199/50/81 201/50/64 200/14/62
f 195/15/82 198/14/83 196/50/84
f 192/51/85 186/52/86 187/53/87
f 53/54/88 54/55/89 55/56/90
f 54/55/89 56/57/89 55/56/90
f 188/58/91 192/51/85 187/53/87
f 190/59/92 192/51/85 188/58/91
f 193/60/93 185/61/94 184/62/95
f 197/63/94 185/61/94 193/60/93
f 57/64/96 58/65/97 59/66/98
f 58/65/97 60/67/99 59/66/98
f 59/66/98 60/67/99 61/68/100
f 60/67/99 62/69/101 61/68/100
f 61/68/100 62/69/101 63/70/102
f 62/69/101 64/71/103 63/70/102
f 194/72/104 197/63/94 193/60/93
f 196/50/84 197/63/94 194/72/104
f 195/15/82 196/50/84 194/72/104
f 191/15/105 195/15/82 194/72/104
f 65/55/106 66/1/106 67/57/106
f 66/1/106 68/3/107 67/57/106
f 190/59/92 191/15/105 194/72/104
f 193/60/93 190/59/92 194/72/104
f 192/51/85 190/59/92 193/60/93
f 184/62/95 192/51/85 193/60/93
f 69/57/108 70/3/108 71/73/108
f 70/3/108 72/74/108 71/73/108
f 186/52/86 192/51/85 184/62/95
f 182/75/95 186/52/86 184/62/95
f 181/76/86 186/52/86 182/75/95
f 189/15/109 191/15/105 190/59/92
f 73/65/110 74/64/111 75/13/112
f 188/58/91 189/15/109 190/59/92
f 75/13/112 74/64/111 76/11/113
f 74/64/111 77/77/114 76/11/113
f 76/11/113 77/77/114 78/9/115
f 77/77/114 79/78/116 78/9/115
f 78/9/115 79/78/116 80/7/117
f 79/78/116 81/79/118 80/7/117
f 80/7/117 81/79/118 82/5/118
f 81/79/118 83/74/119 82/5/118
f 82/5/118 83/74/119 84/3/119
f 154/15/120 189/15/109 188/58/91
f 152/80/121 154/15/120 188/58/91
f 187/53/87 152/80/121 188/58/91
f 155/81/122 152/80/121 187/53/87
f 85/56/123 87/57/124 86/82/125
f 86/82/125 87/57/124 88/73/124
f 180/83/87 155/81/122 187/53/87
f 186/52/86 180/83/87 187/53/87
f 181/76/86 180/83/87 186/52/86
f 179/84/87 180/83/87 181/76/86
f 89/13/126 91/18/126 90/65/126
f 90/65/126 91/18/126 92/28/126
f 178/85/85 179/84/87 181/76/86
f 183/86/127 184/62/95 185/61/94
f 182/75/95 184/62/95 183/86/127
f 177/87/94 182/75/95 183/86/127
f 93/88/128 95/89/129 94/20/130
f 94/20/130 95/89/129 96/21/131
f 95/89/129 97/90/132 96/21/131
f 96/21/131 97/90/132 98/24/133
f 97/90/132 99/91/134 98/24/133
f 98/24/133 99/91/134 100/26/135
f 176/92/93 182/75/95 177/87/94
f 181/76/86 182/75/95 176/92/93
f 178/85/85 181/76/86 176/92/93
f 173/93/136 178/85/85 176/92/93
f 101/18/137 103/19/138 102/28/137
f 102/28/137 103/19/138 104/29/139
f 171/94/140 178/85/85 173/93/136
f 157/95/122 155/81/122 180/83/87
f 179/84/87 157/95/122 180/83/87
f 159/96/122 157/95/122 179/84/87
f 105/74/141 107/74/142 106/73/143
f 106/73/143 107/74/142 108/73/144
f 169/97/87 159/96/122 179/84/87
f 178/85/85 169/97/87 179/84/87
f 171/94/140 169/97/87 178/85/85
f 168/98/145 169/97/87 171/94/140
f 109/99/146 111/100/147 110/101/146
f 110/101/146 111/100/147 112/102/147
f 175/46/148 176/92/93 177/87/94
f 173/93/136 176/92/93 175/46/148
f 174/45/149 173/93/136 175/46/148
f 172/103/150 173/93/136 174/45/149
f 113/104/151 115/104/152 114/104/151
f 114/104/151 115/104/152 116/104/153
f 115/104/152 117/104/154 116/104/153
f 116/104/153 117/104/154 118/104/155
f 171/94/140 173/93/136 172/103/150
f 170/105/156 171/94/140 172/103/150
f 168/98/145 171/94/140 170/105/156
f 167/106/157 168/98/145 170/105/156
f 119/107/158 121/107/158 120/107/158
f 120/107/158 121/107/158 122/107/158
f 161/108/122 159/96/122 169/97/87
f 168/98/145 161/108/122 169/97/87
f 163/109/159 161/108/122 168/98/145
f 167/106/157 163/109/159 168/98/145
f 123/110/160 125/110/160 124/110/160
f 124/110/160 125/110/160 126/110/160
f 165/111/161 163/109/159 167/106/157
f 164/46/162 165/111/161 166/45/163
f 163/109/159 165/111/161 164/46/162
f 162/87/164 163/109/159 164/46/162
f 127/112/165 129/113/165 128/114/165
f 128/114/165 129/113/165 130/115/165
f 161/108/122 163/109/159 162/87/164
f 160/86/164 161/108/122 162/87/164
f 159/96/122 161/108/122 160/86/164
f 158/61/166 159/96/122 160/86/164
f 131/100/167 133/100/168 132/102/169
f 132/102/169 133/100/168 134/102/170
f 133/100/168 135/100/171 134/102/170
f 134/102/170 135/100/171 136/102/154
f 135/100/171 137/116/172 136/102/154
f 136/102/154 137/116/172 138/117/173
f 137/116/172 139/118/174 138/117/173
f 138/117/173 139/118/174 140/119/175
f 157/95/122 159/96/122 158/61/166
f 156/63/164 157/95/122 158/61/166
f 155/81/122 157/95/122 156/63/164
f 151/50/176 155/81/122 156/63/164
f 141/113/177 143/120/175 142/115/178
f 142/115/178 143/120/175 144/121/179
f 152/80/121 155/81/122 151/50/176
f 152/80/121 153/15/180 154/15/120
f 151/50/176 153/15/180 152/80/121
f 148/107/168 149/107/181 150/107/182
f 145/107/183 147/107/184 146/107/183
f 146/107/183 147/107/184 148/107/168
f 147/107/184 149/107/181 148/107/168
