# Blender 4.3.0
# www.blender.org
mtllib swordeco33.mtl
o sworddeco3.001
v 48.518002 31.479221 5.534523
v 48.663074 31.312340 5.585355
v 48.563381 31.393682 5.264836
v 48.705826 31.233799 5.337677
v 48.618317 31.222881 5.003338
v 48.759506 31.077095 5.097596
v 48.988560 29.145411 6.009345
v 48.631672 31.320982 5.846747
v 48.478580 31.489243 5.817934
v 48.446404 31.416641 6.125355
v 48.600727 31.254993 6.129107
v 48.426048 31.260036 6.429470
v 48.582779 31.112602 6.409154
v 48.421432 31.028044 6.716794
v 48.577091 30.900064 6.672608
v 48.405739 30.718027 6.987683
v 48.573978 30.616306 6.923671
v 48.421444 30.336525 7.231423
v 48.590244 30.267525 7.147760
v 48.449303 29.923244 7.423655
v 48.618229 29.888561 7.324474
v 48.487923 29.472389 7.566401
v 48.656956 29.475977 7.455761
v 48.534035 28.990036 7.659450
v 48.702854 29.034239 7.541663
v 48.587692 28.519018 7.696409
v 48.755283 28.602341 7.575559
v 48.649464 28.057186 7.671837
v 48.814995 28.180216 7.553334
v 48.734062 27.611580 7.583951
v 48.887691 27.771799 7.471393
v 48.801243 27.204895 7.435713
v 48.954437 27.399321 7.335526
v 48.890156 26.849701 7.216487
v 49.028507 27.074852 7.132358
v 48.995846 26.567062 6.901271
v 49.112659 26.816849 6.840161
v 49.187519 26.671228 6.466409
v 49.234447 26.681299 6.061464
v 49.082787 26.408716 6.495806
v 49.123684 26.421774 6.053602
v 49.247181 26.825983 5.689102
v 49.127197 26.578882 5.646818
v 49.252239 27.061924 5.378515
v 49.128044 26.837173 5.308258
v 49.247910 27.365276 5.115062
v 49.124283 27.169941 5.021830
v 49.220459 27.720573 4.886457
v 49.093067 27.557196 4.772538
v 49.193775 28.107889 4.710884
v 49.082787 26.408716 6.495806
v 49.066715 27.980335 4.581758
v 49.154701 28.523479 4.584621
v 49.108181 28.966661 4.503719
v 49.054455 29.396812 4.475334
v 48.976715 28.918577 4.356112
v 48.921703 29.388447 4.325666
v 48.996723 29.810431 4.502552
v 48.861633 29.840233 4.355204
v 48.931686 30.212923 4.584728
v 48.793156 30.279285 4.444371
v 48.878704 30.562326 4.718466
v 48.743752 30.661411 4.591037
v 48.817051 30.849022 4.887379
v 49.027744 28.434845 4.444764
v 48.679707 30.974060 4.775017
vn -0.0262 0.9842 -0.1753
vn 0.9589 0.2655 0.0998
vn 0.0130 0.9004 -0.4348
vn 0.9650 0.2544 0.0632
vn 0.0602 0.7638 -0.6426
vn 0.9707 0.2383 0.0305
vn 0.9830 0.1330 0.1264
vn 0.9541 0.2652 0.1393
vn -0.0623 0.9928 0.1020
vn -0.0878 0.9335 0.3477
vn 0.9480 0.2662 0.1743
vn -0.1052 0.8338 0.5420
vn 0.9422 0.2590 0.2126
vn -0.1112 0.7123 0.6930
vn 0.9328 0.2508 0.2590
vn -0.1117 0.5888 0.8005
vn 0.9276 0.2341 0.2912
vn -0.1011 0.4792 0.8719
vn 0.9228 0.2269 0.3115
vn -0.0925 0.3562 0.9298
vn 0.9223 0.2019 0.3296
vn -0.0763 0.2353 0.9689
vn 0.9232 0.1736 0.3428
vn -0.0655 0.1246 0.9900
vn 0.9245 0.1541 0.3486
vn -0.0398 0.0031 0.9992
vn 0.9304 0.1248 0.3446
vn -0.0096 -0.1349 0.9908
vn 0.9357 0.1034 0.3374
vn 0.0202 -0.2642 0.9643
vn 0.9455 0.0765 0.3166
vn 0.0661 -0.4250 0.9028
vn 0.9565 0.0507 0.2874
vn 0.1301 -0.6161 0.7768
vn 0.9633 0.0431 0.2648
vn 0.2075 -0.8081 0.5512
vn 0.9750 0.0317 0.2199
vn 0.9888 0.0178 0.1479
vn 0.9971 0.0087 0.0757
vn 0.2779 -0.9383 0.2059
vn 0.3175 -0.9330 -0.1695
vn 0.9997 0.0032 0.0261
vn 0.3198 -0.8290 -0.4588
vn 1.0000 0.0011 -0.0010
vn 0.3041 -0.6935 -0.6532
vn 0.9991 0.0203 -0.0376
vn 0.2898 -0.5654 -0.7722
vn 0.9972 0.0341 -0.0662
vn 0.2716 -0.4501 -0.8507
vn 0.9954 0.0526 -0.0807
vn 0.2778 -0.9383 0.2058
vn 0.2534 -0.3248 -0.9112
vn 0.9927 0.0752 -0.0945
vn 0.9901 0.0994 -0.0995
vn 0.9871 0.1290 -0.0949
vn 0.2150 -0.0986 -0.9716
vn 0.2052 0.0233 -0.9784
vn 0.9832 0.1614 -0.0856
vn 0.1815 0.1617 -0.9700
vn 0.9823 0.1732 -0.0707
vn 0.1539 0.2872 -0.9454
vn 0.9795 0.1971 -0.0409
vn 0.1257 0.4384 -0.8900
vn 0.9749 0.2228 -0.0023
vn 0.2352 -0.2092 -0.9492
vn 0.0967 0.5988 -0.7950
vt 0.479485 0.567023
vt 0.483137 0.567023
vt 0.480094 0.571765
vt 0.483746 0.571278
vt 0.482042 0.576629
vt 0.485571 0.575656
vt 0.519288 0.567144
vt 0.483746 0.562888
vt 0.480094 0.562281
vt 0.482042 0.557417
vt 0.485571 0.558511
vt 0.485450 0.552796
vt 0.488614 0.554377
vt 0.490075 0.548662
vt 0.492753 0.550729
vt 0.495796 0.544893
vt 0.497987 0.547568
vt 0.502734 0.541974
vt 0.504195 0.545014
vt 0.510037 0.540029
vt 0.510889 0.543312
vt 0.517949 0.539056
vt 0.517827 0.542461
vt 0.526104 0.539056
vt 0.525252 0.542339
vt 0.533894 0.539907
vt 0.532312 0.543190
vt 0.541441 0.541731
vt 0.539006 0.544893
vt 0.548501 0.544893
vt 0.545336 0.547446
vt 0.554708 0.548662
vt 0.550935 0.550851
vt 0.559821 0.553526
vt 0.555560 0.555107
vt 0.563472 0.559727
vt 0.558969 0.560578
vt 0.560308 0.567144
vt 0.558847 0.573589
vt 0.565055 0.567387
vt 0.563472 0.574561
vt 0.555560 0.579182
vt 0.559821 0.580763
vt 0.550813 0.583438
vt 0.554587 0.585626
vt 0.545214 0.586721
vt 0.548379 0.589396
vt 0.538885 0.589396
vt 0.541319 0.592436
vt 0.532190 0.590976
vt 0.565055 0.566901
vt 0.533894 0.594259
vt 0.525130 0.591828
vt 0.517827 0.591706
vt 0.510767 0.590855
vt 0.517827 0.595111
vt 0.510037 0.594138
vt 0.504195 0.589153
vt 0.502734 0.592071
vt 0.497987 0.586599
vt 0.495796 0.589153
vt 0.492753 0.583316
vt 0.490075 0.585383
vt 0.488614 0.579668
vt 0.525982 0.595111
vt 0.485450 0.581371
s 1
f 1/1/1 2/2/2 3/3/3
f 2/2/2 4/4/4 3/3/3
f 3/3/3 4/4/4 5/5/5
f 5/5/5 4/4/4 6/6/6
f 6/6/6 4/4/4 7/7/7
f 4/4/4 2/2/2 7/7/7
f 7/7/7 2/2/2 8/8/8
f 2/2/2 9/9/9 8/8/8
f 9/9/9 10/10/10 8/8/8
f 8/8/8 10/10/10 11/11/11
f 10/10/10 12/12/12 11/11/11
f 11/11/11 12/12/12 13/13/13
f 12/12/12 14/14/14 13/13/13
f 13/13/13 14/14/14 15/15/15
f 14/14/14 16/16/16 15/15/15
f 15/15/15 16/16/16 17/17/17
f 16/16/16 18/18/18 17/17/17
f 17/17/17 18/18/18 19/19/19
f 18/18/18 20/20/20 19/19/19
f 20/20/20 21/21/21 19/19/19
f 21/21/21 7/7/7 19/19/19
f 19/19/19 7/7/7 17/17/17
f 17/17/17 7/7/7 15/15/15
f 15/15/15 7/7/7 13/13/13
f 13/13/13 7/7/7 11/11/11
f 7/7/7 8/8/8 11/11/11
f 9/9/9 2/2/2 1/1/1
f 20/20/20 22/22/22 21/21/21
f 21/21/21 22/22/22 23/23/23
f 22/22/22 24/24/24 23/23/23
f 23/23/23 24/24/24 25/25/25
f 24/24/24 26/26/26 25/25/25
f 25/25/25 26/26/26 27/27/27
f 26/26/26 28/28/28 27/27/27
f 27/27/27 28/28/28 29/29/29
f 28/28/28 30/30/30 29/29/29
f 29/29/29 30/30/30 31/31/31
f 30/30/30 32/32/32 31/31/31
f 31/31/31 32/32/32 33/33/33
f 32/32/32 34/34/34 33/33/33
f 34/34/34 35/35/35 33/33/33
f 35/35/35 7/7/7 33/33/33
f 33/33/33 7/7/7 31/31/31
f 31/31/31 7/7/7 29/29/29
f 29/29/29 7/7/7 27/27/27
f 27/27/27 7/7/7 25/25/25
f 25/25/25 7/7/7 23/23/23
f 7/7/7 21/21/21 23/23/23
f 34/34/34 36/36/36 35/35/35
f 36/36/36 37/37/37 35/35/35
f 35/35/35 37/37/37 7/7/7
f 37/37/37 38/38/38 7/7/7
f 7/7/7 38/38/38 39/39/39
f 38/38/38 40/40/40 39/39/39
f 40/40/40 41/41/41 39/39/39
f 39/39/39 41/41/41 42/42/42
f 41/41/41 43/43/43 42/42/42
f 42/42/42 43/43/43 44/44/44
f 43/43/43 45/45/45 44/44/44
f 44/44/44 45/45/45 46/46/46
f 45/45/45 47/47/47 46/46/46
f 46/46/46 47/47/47 48/48/48
f 47/47/47 49/49/49 48/48/48
f 49/49/49 50/50/50 48/48/48
f 50/50/50 7/7/7 48/48/48
f 48/48/48 7/7/7 46/46/46
f 46/46/46 7/7/7 44/44/44
f 44/44/44 7/7/7 42/42/42
f 7/7/7 39/39/39 42/42/42
f 36/36/36 51/51/51 37/37/37
f 51/51/51 38/38/38 37/37/37
f 49/49/49 52/52/52 50/50/50
f 52/52/52 53/53/53 50/50/50
f 50/50/50 53/53/53 7/7/7
f 53/53/53 54/54/54 7/7/7
f 7/7/7 54/54/54 55/55/55
f 54/54/54 56/56/56 55/55/55
f 56/56/56 57/57/57 55/55/55
f 55/55/55 57/57/57 58/58/58
f 57/57/57 59/59/59 58/58/58
f 58/58/58 59/59/59 60/60/60
f 59/59/59 61/61/61 60/60/60
f 60/60/60 61/61/61 62/62/62
f 61/61/61 63/63/63 62/62/62
f 63/63/63 64/64/64 62/62/62
f 64/64/64 7/7/7 62/62/62
f 62/62/62 7/7/7 60/60/60
f 60/60/60 7/7/7 58/58/58
f 7/7/7 55/55/55 58/58/58
f 52/52/52 65/65/65 53/53/53
f 53/53/53 65/65/65 54/54/54
f 65/65/65 56/56/56 54/54/54
f 63/63/63 66/66/66 64/64/64
f 66/66/66 6/6/6 64/64/64
f 64/64/64 6/6/6 7/7/7
f 66/66/66 5/5/5 6/6/6
