# Blender 4.5.5 LTS
# www.blender.org
mtllib model_6.mtl
o model_6
v 9.906174 9.822526 -2.175469
v 11.202592 9.278278 -3.104185
v 8.398383 10.217664 -2.477670
v 10.004814 9.274550 -4.386697
v 7.214697 10.254941 -3.229488
v 8.243377 9.416204 -5.027953
v 10.991219 8.748942 -5.801883
v 12.668107 8.812314 -4.158203
v 6.256475 11.209237 -1.777448
v 8.384292 10.579253 -0.885586
v 10.047089 9.882169 -0.981406
v 11.822618 9.278278 -1.386798
v 13.316317 8.603561 -1.843785
v 14.598643 7.406963 -2.197581
v 14.330905 7.395780 -5.477569
v 12.076264 7.403235 -7.371854
v 8.863402 8.644566 -6.538959
v 8.905677 7.421874 -7.497158
v 6.989233 8.420902 -6.767452
v 7.271063 7.440512 -7.460304
v 5.086881 8.301615 -6.929609
v 5.453259 7.485245 -7.482416
v 2.916790 8.241971 -6.981204
v 3.240894 7.447968 -7.526640
v 0.521235 8.253155 -6.981204
v 0.774881 7.466606 -7.489787
v -2.113876 8.215878 -6.878014
v -2.113876 7.410690 -7.349742
v -4.875810 8.331437 -6.811677
v -5.228097 7.421874 -7.452933
v -7.609561 8.525278 -6.693745
v -8.440960 7.410690 -7.416079
v -10.089665 8.644567 -6.222016
v -11.329717 7.418146 -7.113878
v -11.992018 8.693027 -5.212222
v -13.499808 7.403235 -6.000893
v -12.922056 8.577467 -3.590655
v -14.176200 7.406963 -4.121349
v -13.119337 8.432086 -1.688999
v -14.148017 7.414419 -1.924863
v -13.133429 8.488002 0.249511
v -14.176200 7.414419 0.360073
v -13.077063 8.476819 2.099572
v -14.148017 7.414419 2.409144
v -12.992514 8.540190 3.831701
v -14.105742 7.414419 4.170756
v -12.203390 8.622200 5.438526
v -13.415259 7.414419 6.219827
v -10.188306 8.689299 6.286164
v -11.682005 7.414419 7.185397
v -7.581378 8.510369 6.617848
v -8.426868 7.433058 7.436002
v -4.833536 8.331439 6.838971
v -5.073091 7.429330 7.436002
v -1.958869 8.282978 7.067464
v -1.930686 7.459152 7.539193
v 0.901705 8.163692 7.141172
v 1.000345 7.429330 7.561305
v 3.579090 8.238246 7.052723
v 3.860920 7.440513 7.553935
v 6.059194 8.234518 6.824229
v 6.481939 7.433058 7.421261
v 8.327926 8.398538 6.632589
v 8.962043 7.414419 7.340182
v 10.469833 8.525279 6.205085
v 11.695794 7.403236 7.377036
v 13.471323 7.403236 6.271422
v 12.076264 8.629655 5.025764
v 14.189989 7.406964 3.927521
v 12.964029 8.644567 3.035658
v 13.386774 8.584923 0.551712
v 14.669101 7.414419 0.463263
v 6.453756 9.472120 -5.492311
v 11.836709 9.241001 0.514858
v 9.877991 9.960451 0.478005
v 8.088370 10.821555 0.433780
v 6.594671 11.481361 -0.583385
v 4.340031 14.053488 -0.797137
v 3.973652 13.926745 -1.202529
v 5.129155 11.369530 -2.462929
v 5.763272 10.284763 -3.804407
v 4.678227 9.386382 -5.890332
v 2.705417 9.241001 -6.163050
v 0.521235 9.263368 -6.148308
v -1.860229 9.244729 -6.081972
v -4.467156 9.196269 -6.059859
v -6.933169 9.319283 -5.728175
v -9.046894 9.263368 -5.153256
v -10.639234 9.177630 -4.379326
v -11.456540 9.349105 -3.126297
v -11.738371 9.557858 -1.526842
v -11.696096 9.632412 0.205287
v -11.526998 9.520580 1.848966
v -11.273351 9.293189 3.323118
v -10.611051 9.103076 4.472957
v -8.962345 9.203724 5.077359
v -6.707705 9.311828 5.431156
v -4.213510 9.442298 5.674391
v -1.648857 9.531764 5.924996
v 0.817156 9.528036 6.146119
v 3.212711 9.490759 6.065041
v 5.439168 9.431115 5.814435
v 7.341520 9.323011 5.335336
v 9.088866 9.110531 4.856236
v 10.272552 9.080709 3.824330
v 11.160317 9.222363 2.335436
v 9.398879 9.982818 1.900561
v 8.722487 9.859803 3.094625
v 8.102462 9.680872 3.949633
v 6.397390 10.210209 3.846442
v 4.847325 10.221392 4.281317
v 2.959064 10.243758 4.502439
v 0.958071 10.333223 4.502439
v -1.141562 10.273580 4.310800
v -3.480752 10.016367 4.089677
v -5.904490 9.733061 4.067564
v -2.677536 11.518639 2.645008
v -0.451079 11.943599 3.175703
v 1.253993 11.921232 3.485275
v 2.888607 11.820583 3.426308
v 4.593678 11.559643 3.124107
v 7.073782 10.732089 2.711345
v 7.693808 10.870015 1.635214
v 6.256475 11.939871 0.478004
v 4.692318 14.213779 -0.104286
v 5.396894 12.070341 2.224874
v 5.918279 12.122529 1.384608
v 4.720501 14.310700 0.632790
v 3.480449 14.169047 2.062718
v 4.044109 14.247330 1.745775
v 4.452763 14.295790 1.274046
v 3.832737 14.765483 1.023440
v 4.030018 14.765483 0.492746
v 4.044109 14.676017 -0.074803
v 3.875011 14.541820 -0.561273
v 3.564998 14.426260 -0.929811
v 3.550907 13.729177 -1.585809
v 3.889103 11.641653 -2.846208
v 4.213208 10.307129 -4.180316
v 2.578593 10.295946 -4.438293
v 0.774881 10.303402 -4.556225
v -1.141562 10.336951 -4.453034
v -3.283470 10.281035 -4.320360
v -5.636751 10.161748 -4.113979
v -8.074580 9.800159 -3.988676
v -9.554188 9.591407 -3.708587
v -9.681011 9.829981 -2.779871
v -9.695103 10.105832 -1.357315
v -9.610554 10.154293 0.175803
v -9.568279 9.949268 1.657326
v -9.568279 9.598863 2.939838
v -9.511913 9.408749 3.802217
v -8.088672 9.531764 3.993857
v -5.143548 10.493515 2.748199
v -7.609561 9.979090 2.844019
v -7.299548 10.538248 1.598360
v -7.285457 10.981847 0.197916
v -7.257274 11.015396 -1.246753
v -7.285457 10.571797 -2.625085
v -3.988045 11.831767 -2.462929
v -1.888412 12.021880 -3.008365
v -0.267889 12.029336 -3.340049
v 1.225809 11.913776 -3.376903
v 2.606776 11.813128 -3.155780
v 2.747691 13.650894 -1.983829
v 3.550907 14.687201 1.414091
v 1.803561 13.714266 -2.212323
v 0.859430 13.889468 -2.234435
v -0.000151 14.046033 -1.969088
v -0.648360 14.131770 -1.416281
v 0.591692 14.400166 -1.475247
v 1.155352 14.325611 -1.740595
v 1.831744 14.273423 -1.740595
v 2.536319 14.280879 -1.571067
v 1.775378 14.590280 -1.313090
v 1.338542 14.534364 -1.408910
v 1.084895 14.594007 -1.136192
v 3.142253 14.329339 -1.268866
v 3.254986 14.750571 -0.634981
v 3.508632 14.758027 -0.406487
v 3.522724 14.862403 -0.089544
v 2.324946 14.657378 -1.143563
v 1.592188 14.728206 -0.915069
v 2.846332 14.720750 -0.900328
v 3.085887 14.922047 -0.259072
v 2.930881 15.011512 0.168432
v 3.438175 14.951868 0.352701
v 3.297260 14.959324 0.794947
v 3.114070 14.884769 1.156114
v 3.156345 14.597735 1.686809
v 2.719508 14.113132 2.269099
v 1.803561 14.068398 2.269099
v 0.901705 13.990117 1.981639
v 0.013941 13.747815 1.509911
v -4.100778 11.749757 1.657326
v -4.453065 12.331282 0.271623
v 2.113574 14.843764 -0.701317
v 2.620868 14.910864 -0.480195
v -0.380621 13.826097 0.824430
v 0.662149 14.280879 1.111890
v 1.225809 14.429988 1.502540
v 1.902202 14.534364 1.753146
v 2.592685 14.564185 1.804741
v 2.944973 14.791576 1.406720
v 2.564502 14.810215 1.384608
v 2.014934 14.802759 1.274046
v 1.451273 14.698383 1.060294
v 2.155849 14.948141 0.831801
v 2.663142 14.959324 1.001328
v 2.789966 15.026423 0.603307
v 2.437679 14.996601 -0.037949
v 1.944476 14.914591 -0.251701
v 1.394907 14.776666 -0.480195
v 0.831248 14.608918 -0.723430
v 0.183039 14.403893 -1.018260
v -0.887915 14.060944 -0.649722
v -4.382607 12.413291 -1.106709
v -0.775183 13.911835 0.116837
v 0.253496 14.183958 0.654903
v 0.986254 14.534364 0.787576
v 1.648554 14.851220 0.625419
v 2.296763 15.011512 0.404297
v 1.803561 14.910864 0.190545
v 1.127169 14.668562 0.404297
v 0.648058 14.407621 0.551712
v 0.042124 14.213779 0.131579
v 0.633967 14.463537 0.212657
v 1.253993 14.743116 -0.030578
v 0.676241 14.538092 -0.244330
v -0.000151 14.318156 -0.443341
vn 0.2975 0.9399 -0.1674
vn 0.2739 0.9506 -0.1458
vn 0.2756 0.9263 -0.2570
vn 0.1895 0.9441 -0.2697
vn 0.2116 0.9050 -0.3690
vn -0.3959 0.9066 0.1458
vn -0.3190 0.9475 0.0197
vn -0.3439 0.9362 0.0720
vn 0.1354 0.9128 -0.3852
vn -0.3259 0.9394 0.1069
vn 0.2259 0.8564 -0.4643
vn -0.3612 0.9065 0.2189
vn 0.4420 0.8688 -0.2231
vn -0.3867 0.8806 0.2739
vn -0.4171 0.9035 -0.0981
vn -0.2647 0.9563 -0.1242
vn 0.4637 0.7730 -0.4330
vn 0.3944 0.9066 -0.1502
vn 0.3455 0.9363 -0.0633
vn 0.3473 0.9372 -0.0328
vn -0.2720 0.9593 -0.0764
vn 0.5551 0.8308 -0.0415
vn 0.6557 0.7531 -0.0546
vn -0.2319 0.9678 -0.0982
vn 0.4957 0.8184 -0.2907
vn 0.2816 0.7983 -0.5324
vn 0.0886 0.7971 -0.5973
vn 0.0698 0.6856 -0.7247
vn 0.0397 0.7221 -0.6907
vn 0.0151 0.5918 -0.8059
vn 0.0340 0.6559 -0.7541
vn 0.0170 0.5740 -0.8187
vn 0.0113 0.6128 -0.7901
vn 0.0019 0.5599 -0.8286
vn -0.0207 0.5881 -0.8085
vn -0.0246 0.5374 -0.8429
vn -0.0114 0.5848 -0.8111
vn -0.0132 0.5304 -0.8476
vn -0.0019 0.6198 -0.7848
vn 0.0057 0.5526 -0.8334
vn -0.0566 0.6931 -0.7186
vn -0.0697 0.6055 -0.7928
vn -0.1741 0.7775 -0.6043
vn -0.2445 0.7087 -0.6617
vn -0.3705 0.8377 -0.4013
vn -0.4674 0.7794 -0.4172
vn -0.5613 0.8162 -0.1372
vn -0.6290 0.7636 -0.1458
vn -0.6457 0.7629 -0.0328
vn -0.6963 0.7177 -0.0109
vn -0.6574 0.7534 0.0109
vn -0.7124 0.7017 0.0022
vn -0.6181 0.7845 0.0502
vn -0.7070 0.7070 0.0153
vn -0.5421 0.8283 0.1415
vn -0.6668 0.7308 0.1458
vn -0.3757 0.8466 0.3771
vn -0.4860 0.7614 0.4291
vn -0.1258 0.8026 0.5832
vn -0.2227 0.7098 0.6683
vn -0.0396 0.7370 0.6747
vn -0.0433 0.6183 0.7847
vn -0.0452 0.6748 0.7366
vn -0.0282 0.5664 0.8237
vn -0.0264 0.5150 0.8568
vn -0.0038 0.5778 0.8161
vn -0.0000 0.5082 0.8613
vn 0.0433 0.5975 0.8007
vn 0.0376 0.5550 0.8310
vn 0.0715 0.6660 0.7425
vn 0.0395 0.5942 0.8033
vn 0.0772 0.7657 0.6385
vn 0.0395 0.6622 0.7483
vn 0.1521 0.8577 0.4911
vn 0.2253 0.7961 0.5617
vn 0.4404 0.8256 0.3527
vn 0.3448 0.8952 0.2823
vn 0.6168 0.7700 0.1631
vn 0.4923 0.8602 0.1329
vn -0.1615 0.9790 -0.1242
vn 0.5603 0.8270 0.0459
vn 0.6793 0.7327 0.0415
vn -0.2393 0.9709 -0.0022
vn -0.3824 0.9183 0.1025
vn -0.4419 0.8760 0.1932
vn 0.0886 0.8644 -0.4949
vn -0.4193 0.8669 0.2697
vn -0.4334 0.8763 0.2103
vn -0.3009 0.9455 0.1242
vn -0.1205 0.9925 0.0197
vn 0.3528 0.9343 0.0502
vn -0.4133 0.8967 -0.1588
vn -0.0491 0.9916 -0.1198
vn 0.0264 0.9967 0.0764
vn 0.3807 0.9228 0.0589
vn -0.0245 0.9694 0.2444
vn -0.1690 0.9682 0.1846
vn 0.4647 0.8854 0.0110
vn 0.5884 0.7707 -0.2444
vn 0.6103 0.5997 -0.5176
vn -0.3483 0.8939 0.2823
vn 0.4465 0.5650 -0.6939
vn 0.3630 0.6942 -0.6215
vn 0.1763 0.8741 -0.4527
vn 0.0528 0.8106 -0.5832
vn -0.4504 0.8304 0.3280
vn 0.0189 0.7722 -0.6351
vn -0.0094 0.7583 -0.6519
vn -0.0246 0.7636 -0.6452
vn -0.0321 0.7961 -0.6043
vn -0.0773 0.8611 -0.5025
vn -0.1467 0.9094 -0.3892
vn -0.2245 0.9352 -0.2739
vn -0.3542 0.9193 -0.1717
vn -0.4273 0.9009 -0.0764
vn -0.4307 0.9019 0.0328
vn -0.3721 0.9204 0.1199
vn -0.2881 0.9428 0.1675
vn -0.1800 0.9580 0.2231
vn -0.0886 0.9390 0.3322
vn -0.0679 0.9007 0.4291
vn -0.0829 0.8606 0.5025
vn -0.0659 0.8147 0.5761
vn -0.0038 0.7752 0.6317
vn 0.0528 0.7761 0.6283
vn 0.0959 0.8041 0.5867
vn 0.1446 0.8633 0.4835
vn 0.1671 0.9283 0.3322
vn 0.2169 0.9503 0.2231
vn 0.2973 0.9442 0.1415
vn -0.3676 0.8124 0.4526
vn 0.3732 0.9046 0.2061
vn -0.3991 0.8872 0.2316
vn -0.3666 0.9160 0.1631
vn 0.3234 0.8829 0.3404
vn -0.3666 0.9160 -0.1631
vn 0.2587 0.8841 0.3892
vn 0.2383 0.8311 0.5025
vn -0.2861 0.8756 -0.3892
vn 0.1296 0.8121 0.5689
vn -0.2816 0.8080 -0.5176
vn 0.0716 0.7774 0.6250
vn -0.0283 0.7691 0.6385
vn -0.1295 0.7994 0.5867
vn -0.1631 0.8600 0.4835
vn -0.1316 0.9249 0.3568
vn -0.3490 0.8005 -0.4873
vn -0.1615 0.9016 -0.4013
vn -0.1746 0.9493 -0.2613
vn -0.1149 0.9584 -0.2613
vn -0.0434 0.9571 -0.2865
vn -0.2823 0.7394 0.6112
vn -0.2328 0.6384 0.7336
vn -0.0620 0.5418 0.8382
vn 0.1157 0.5216 0.8453
vn 0.2789 0.5910 0.7569
vn 0.0434 0.9595 -0.2782
vn 0.3828 0.7987 0.4643
vn 0.4683 0.8538 0.2274
vn 0.7011 0.7118 0.0415
vn 0.7543 0.6143 -0.2317
vn 0.0848 0.9924 -0.0895
vn 0.1839 0.9707 0.1545
vn 0.1259 0.9362 0.3281
vn 0.4907 0.6344 0.5973
vn 0.6517 0.6877 0.3198
vn 0.7899 0.6038 0.1069
vn 0.0697 0.8870 0.4565
vn -0.0546 0.8997 0.4330
vn -0.1984 0.9080 0.3690
vn 0.3087 0.4978 0.8105
vn -0.3682 0.8186 0.4409
vn -0.1851 0.8013 0.5689
vn 0.5268 0.5415 0.6551
vn 0.7073 0.5848 0.3973
vn 0.4004 0.8718 0.2823
vn 0.4778 0.8780 0.0284
vn 0.4914 0.8334 -0.2528
vn 0.4484 0.7590 -0.4720
vn 0.3619 0.7098 -0.6043
vn 0.3389 0.5391 -0.7710
vn 0.1554 0.7706 0.6181
vn 0.2756 0.6282 -0.7276
vn 0.1280 0.8223 -0.5544
vn 0.0735 0.7744 -0.6284
vn 0.0208 0.7436 -0.6683
vn -0.0472 0.7424 -0.6683
vn -0.0980 0.7881 -0.6078
vn -0.1522 0.8511 -0.5025
vn -0.1892 0.9066 -0.3771
vn 0.1193 0.4940 0.8612
vn -0.2042 0.9335 -0.2948
vn -0.2482 0.9374 -0.2444
vn -0.0900 0.5490 0.8310
vn -0.2849 0.9526 -0.1068
vn -0.2793 0.9572 0.0764
vn -0.2207 0.9524 0.2103
vn -0.1633 0.9525 0.2571
vn -0.1316 0.9639 0.2316
vn -0.1185 0.9544 0.2739
vn -0.2238 0.8305 0.5101
vn -0.2806 0.6465 0.7094
vn -0.3657 0.7339 0.5725
vn -0.1910 0.9046 0.3812
vn -0.2913 0.8843 0.3649
vn -0.3455 0.8242 0.4488
vn -0.1920 0.6618 -0.7247
vn -0.0679 0.5738 -0.8161
vn 0.0773 0.5545 -0.8286
vn 0.1894 0.5829 -0.7901
vn 0.2591 0.5244 -0.8111
vn 0.1429 0.9602 -0.2401
vn 0.1892 0.8458 -0.4987
vn 0.1017 0.8519 -0.5138
vn 0.2392 0.9703 -0.0371
vn 0.2941 0.8222 0.4873
vn 0.1366 0.5279 -0.8382
vn -0.0378 0.5766 -0.8161
vn -0.2176 0.6671 -0.7125
vn 0.0019 0.7807 -0.6250
vn 0.1369 0.6945 -0.7063
vn 0.2316 0.6689 -0.7063
vn 0.0321 0.8662 -0.4987
vn -0.0453 0.8886 -0.4565
vn 0.2848 0.9352 -0.2103
vn 0.3041 0.6725 -0.6747
vn 0.3128 0.8700 -0.3812
vn 0.2568 0.8539 -0.4526
vt 0.617085 0.029242
vt 0.659843 -0.037588
vt 0.638348 0.101809
vt 0.728755 0.015280
vt 0.684173 0.155345
vt 0.497979 0.489722
vt 0.510130 0.463488
vt 0.517594 0.487054
vt 0.771079 0.097407
vt 0.525116 0.514889
vt 0.793703 -0.040434
vt 0.499368 0.514845
vt 0.706102 -0.112245
vt 0.498587 0.549527
vt 0.534316 0.551084
vt 0.550082 0.505196
vt 0.609939 0.208614
vt 0.555521 0.107412
vt 0.556534 0.024396
vt 0.573863 -0.064179
vt 0.537787 0.479584
vt 0.593738 -0.142704
vt 0.611038 -0.226342
vt 0.528616 0.457085
vt 0.772208 -0.213537
vt 0.877079 -0.114157
vt 0.845574 0.055877
vt 0.917263 0.037557
vt 0.880580 0.144540
vt 0.933985 0.119462
vt 0.909626 0.239651
vt 0.952587 0.213150
vt 0.929964 0.353392
vt 0.973677 0.331471
vt 0.935807 0.483408
vt 0.980331 0.469579
vt 0.924698 0.625162
vt 0.969048 0.629698
vt 0.896839 0.766294
vt 0.946049 0.792484
vt 0.860821 0.898889
vt 0.915007 0.951224
vt 0.817715 1.013831
vt 0.873781 1.089199
vt 0.760433 1.098181
vt 0.806519 1.188623
vt 0.682929 1.142735
vt 0.714000 1.221883
vt 0.591771 1.157897
vt 0.605657 1.226729
vt 0.497603 1.158831
vt 0.493351 1.230109
vt 0.408065 1.157053
vt 0.392298 1.229175
vt 0.325267 1.151228
vt 0.304813 1.225529
vt 0.247763 1.116100
vt 0.202979 1.192180
vt 0.198437 1.025481
vt 0.143210 1.113344
vt 0.158166 0.904180
vt 0.101955 0.957316
vt 0.120470 0.771185
vt 0.071347 0.790794
vt 0.089284 0.624184
vt 0.043921 0.627208
vt 0.072504 0.471269
vt 0.032378 0.465489
vt 0.088271 0.326580
vt 0.045975 0.305815
vt 0.118735 0.197587
vt 0.076352 0.167440
vt 0.155187 0.087002
vt 0.105224 0.044316
vt 0.194445 -0.012777
vt 0.131782 -0.087123
vt 0.194589 -0.167960
vt 0.259537 -0.084277
vt 0.309644 -0.202509
vt 0.357234 -0.122339
vt 0.520169 0.435830
vt 0.477613 -0.143860
vt 0.480043 -0.226876
vt 0.502637 0.441522
vt 0.491962 0.468734
vt 0.483225 0.489277
vt 0.807965 0.182291
vt 0.476600 0.506218
vt 0.475125 0.474648
vt 0.484874 0.447258
vt 0.495433 0.422091
vt 0.480129 -0.063467
vt 0.560960 0.708623
vt 0.512473 0.416577
vt 0.488664 0.403415
vt 0.483051 0.034178
vt 0.473013 0.407684
vt 0.478452 0.426715
vt 0.487391 0.125198
vt 0.544296 0.196831
vt 0.548405 0.333116
vt 0.466561 0.454150
vt 0.568048 0.346189
vt 0.653189 0.260683
vt 0.724994 0.222443
vt 0.842913 0.268953
vt 0.458924 0.487677
vt 0.870657 0.369177
vt 0.874331 0.483363
vt 0.864842 0.607821
vt 0.845835 0.739260
vt 0.807821 0.857359
vt 0.767434 0.956249
vt 0.723171 1.029883
vt 0.659525 1.064610
vt 0.581848 1.073770
vt 0.499108 1.070968
vt 0.419781 1.067722
vt 0.347774 1.062075
vt 0.288728 1.035619
vt 0.250974 0.959406
vt 0.219180 0.853179
vt 0.191610 0.731567
vt 0.166903 0.603419
vt 0.151831 0.476071
vt 0.159902 0.351703
vt 0.185361 0.239517
vt 0.220916 0.145652
vt 0.254590 0.060679
vt 0.311814 0.006432
vt 0.389115 -0.032431
vt 0.465375 0.534231
vt 0.410408 0.057122
vt 0.492454 0.714670
vt 0.495665 0.855624
vt 0.346038 0.086914
vt 0.569147 0.852467
vt 0.297667 0.113415
vt 0.295758 0.198432
vt 0.641531 0.858737
vt 0.260868 0.273489
vt 0.635889 0.697151
vt 0.236827 0.368332
vt 0.234455 0.471002
vt 0.247358 0.577807
vt 0.267262 0.692438
vt 0.282363 0.809292
vt 0.568337 0.538189
vt 0.570044 0.487321
vt 0.555406 0.468423
vt 0.546437 0.448681
vt 0.538279 0.428538
vt 0.356627 0.646639
vt 0.331747 0.540412
vt 0.314881 0.458196
vt 0.317166 0.378382
vt 0.337157 0.293631
vt 0.529976 0.409196
vt 0.364380 0.171664
vt 0.424179 0.144540
vt 0.487507 0.217818
vt 0.515916 0.323779
vt 0.505270 0.397902
vt 0.481778 0.384384
vt 0.467342 0.390343
vt 0.395017 0.261172
vt 0.440408 0.236938
vt 0.486263 0.325557
vt 0.456667 0.395634
vt 0.457361 0.410619
vt 0.460486 0.431384
vt 0.424265 0.369711
vt 0.445847 0.463132
vt 0.439049 0.435030
vt 0.441508 0.350458
vt 0.460775 0.335117
vt 0.472897 0.363041
vt 0.438933 0.408084
vt 0.493061 0.355882
vt 0.515164 0.353481
vt 0.535386 0.358106
vt 0.551500 0.368466
vt 0.587778 0.361485
vt 0.444343 0.386341
vt 0.677230 0.321511
vt 0.756585 0.297722
vt 0.779382 0.380027
vt 0.788004 0.471625
vt 0.778023 0.569314
vt 0.758582 0.674074
vt 0.730722 0.786837
vt 0.711888 0.903736
vt 0.415124 0.400347
vt 0.692737 0.973990
vt 0.645552 0.976391
vt 0.411739 0.437920
vt 0.574210 0.973679
vt 0.498326 0.970344
vt 0.424410 0.972656
vt 0.359751 0.978303
vt 0.316674 0.979771
vt 0.299577 0.912362
vt 0.349510 0.767317
vt 0.420099 0.475849
vt 0.434536 0.515912
vt 0.356656 0.883993
vt 0.421951 0.862872
vt 0.415905 0.707378
vt 0.671791 0.601418
vt 0.693402 0.524894
vt 0.701734 0.453261
vt 0.693923 0.385274
vt 0.607190 0.394078
vt 0.521933 0.391588
vt 0.547594 0.399191
vt 0.556997 0.419245
vt 0.498587 0.378871
vt 0.456696 0.372912
vt 0.614481 0.434852
vt 0.608753 0.474960
vt 0.593073 0.510665
vt 0.582716 0.464155
vt 0.584741 0.436631
vt 0.579099 0.408395
vt 0.563766 0.440588
vt 0.567209 0.457752
vt 0.515598 0.374913
vt 0.566573 0.384118
vt 0.528414 0.373802
vt 0.537122 0.383762
s 1
f 1/1/1 2/2/2 3/3/3
f 2/2/2 4/4/4 3/3/3
f 3/3/3 4/4/4 5/5/5
f 227/6/6 228/7/7 229/8/8
f 5/5/5 4/4/4 6/9/9
f 230/10/10 227/6/6 229/8/8
f 6/9/9 4/4/4 7/11/11
f 226/12/12 227/6/6 230/10/10
f 7/11/11 4/4/4 8/13/13
f 4/4/4 2/2/2 8/13/13
f 218/14/14 226/12/12 230/10/10
f 216/15/15 218/14/14 230/10/10
f 215/16/16 216/15/15 230/10/10
f 229/8/8 215/16/16 230/10/10
f 5/5/5 9/17/17 3/3/3
f 9/17/17 10/18/18 3/3/3
f 3/3/3 10/18/18 1/1/1
f 10/18/18 11/19/19 1/1/1
f 1/1/1 11/19/19 2/2/2
f 11/19/19 12/20/20 2/2/2
f 214/21/21 215/16/16 229/8/8
f 12/20/20 13/22/22 2/2/2
f 2/2/2 13/22/22 8/13/13
f 13/22/22 14/23/23 8/13/13
f 213/24/24 214/21/21 229/8/8
f 14/23/23 15/25/25 8/13/13
f 8/13/13 15/25/25 7/11/11
f 15/25/25 16/26/26 7/11/11
f 7/11/11 16/26/26 17/27/27
f 16/26/26 18/28/28 17/27/27
f 17/27/27 18/28/28 19/29/29
f 18/28/28 20/30/30 19/29/29
f 19/29/29 20/30/30 21/31/31
f 20/30/30 22/32/32 21/31/31
f 21/31/31 22/32/32 23/33/33
f 22/32/32 24/34/34 23/33/33
f 23/33/33 24/34/34 25/35/35
f 24/34/34 26/36/36 25/35/35
f 25/35/35 26/36/36 27/37/37
f 26/36/36 28/38/38 27/37/37
f 27/37/37 28/38/38 29/39/39
f 28/38/38 30/40/40 29/39/39
f 29/39/39 30/40/40 31/41/41
f 30/40/40 32/42/42 31/41/41
f 31/41/41 32/42/42 33/43/43
f 32/42/42 34/44/44 33/43/43
f 33/43/43 34/44/44 35/45/45
f 34/44/44 36/46/46 35/45/45
f 35/45/45 36/46/46 37/47/47
f 36/46/46 38/48/48 37/47/47
f 37/47/47 38/48/48 39/49/49
f 38/48/48 40/50/50 39/49/49
f 39/49/49 40/50/50 41/51/51
f 40/50/50 42/52/52 41/51/51
f 41/51/51 42/52/52 43/53/53
f 42/52/52 44/54/54 43/53/53
f 43/53/53 44/54/54 45/55/55
f 44/54/54 46/56/56 45/55/55
f 45/55/55 46/56/56 47/57/57
f 46/56/56 48/58/58 47/57/57
f 47/57/57 48/58/58 49/59/59
f 48/58/58 50/60/60 49/59/59
f 49/59/59 50/60/60 51/61/61
f 50/60/60 52/62/62 51/61/61
f 51/61/61 52/62/62 53/63/63
f 52/62/62 54/64/64 53/63/63
f 53/63/63 54/64/64 55/65/62
f 54/64/64 56/66/65 55/65/62
f 55/65/62 56/66/65 57/67/66
f 56/66/65 58/68/67 57/67/66
f 57/67/66 58/68/67 59/69/68
f 58/68/67 60/70/69 59/69/68
f 59/69/68 60/70/69 61/71/70
f 60/70/69 62/72/71 61/71/70
f 61/71/70 62/72/71 63/73/72
f 62/72/71 64/74/73 63/73/72
f 63/73/72 64/74/73 65/75/74
f 64/74/73 66/76/75 65/75/74
f 228/7/7 213/24/24 229/8/8
f 66/76/75 67/77/76 65/75/74
f 65/75/74 67/77/76 68/78/77
f 67/77/76 69/79/78 68/78/77
f 68/78/77 69/79/78 70/80/79
f 212/81/80 213/24/24 228/7/7
f 70/80/79 69/79/78 71/82/81
f 69/79/78 72/83/82 71/82/81
f 71/82/81 72/83/82 13/22/22
f 72/83/82 14/23/23 13/22/22
f 223/84/83 212/81/80 228/7/7
f 224/85/84 223/84/83 228/7/7
f 227/6/6 224/85/84 228/7/7
f 225/86/85 224/85/84 227/6/6
f 7/11/11 17/27/27 6/9/9
f 17/27/27 73/87/86 6/9/9
f 6/9/9 73/87/86 5/5/5
f 226/12/12 225/86/85 227/6/6
f 219/88/87 226/12/12 218/14/14
f 225/86/85 226/12/12 219/88/87
f 220/89/88 225/86/85 219/88/87
f 73/87/86 17/27/27 19/29/29
f 224/85/84 225/86/85 220/89/88
f 221/90/89 224/85/84 220/89/88
f 223/84/83 224/85/84 221/90/89
f 222/91/90 223/84/83 221/90/89
f 13/22/22 12/20/20 71/82/81
f 12/20/20 74/92/91 71/82/81
f 71/82/81 74/92/91 70/80/79
f 217/93/92 218/14/14 216/15/15
f 211/94/93 212/81/80 223/84/83
f 222/91/90 211/94/93 223/84/83
f 210/95/94 211/94/93 222/91/90
f 74/92/91 12/20/20 75/96/95
f 209/97/96 210/95/94 222/91/90
f 12/20/20 11/19/19 75/96/95
f 208/98/97 209/97/96 222/91/90
f 11/19/19 10/18/18 75/96/95
f 75/96/95 10/18/18 76/99/98
f 221/90/89 208/98/97 222/91/90
f 76/99/98 10/18/18 77/100/99
f 10/18/18 9/17/17 77/100/99
f 77/100/99 9/17/17 78/101/100
f 207/102/101 208/98/97 221/90/89
f 78/101/100 9/17/17 79/103/102
f 220/89/88 207/102/101 221/90/89
f 79/103/102 9/17/17 80/104/103
f 9/17/17 5/5/5 80/104/103
f 80/104/103 5/5/5 81/105/104
f 5/5/5 73/87/86 81/105/104
f 81/105/104 73/87/86 82/106/105
f 73/87/86 19/29/29 82/106/105
f 200/107/106 207/102/101 220/89/88
f 19/29/29 21/31/31 82/106/105
f 82/106/105 21/31/31 83/108/107
f 21/31/31 23/33/33 83/108/107
f 83/108/107 23/33/33 84/109/108
f 23/33/33 25/35/35 84/109/108
f 84/109/108 25/35/35 85/110/109
f 25/35/35 27/37/37 85/110/109
f 85/110/109 27/37/37 86/111/110
f 27/37/37 29/39/39 86/111/110
f 86/111/110 29/39/39 87/112/111
f 29/39/39 31/41/41 87/112/111
f 87/112/111 31/41/41 88/113/112
f 31/41/41 33/43/43 88/113/112
f 88/113/112 33/43/43 89/114/113
f 33/43/43 35/45/45 89/114/113
f 89/114/113 35/45/45 90/115/114
f 35/45/45 37/47/47 90/115/114
f 90/115/114 37/47/47 91/116/115
f 37/47/47 39/49/49 91/116/115
f 91/116/115 39/49/49 92/117/116
f 39/49/49 41/51/51 92/117/116
f 92/117/116 41/51/51 93/118/117
f 41/51/51 43/53/53 93/118/117
f 93/118/117 43/53/53 94/119/118
f 43/53/53 45/55/55 94/119/118
f 94/119/118 45/55/55 95/120/119
f 45/55/55 47/57/57 95/120/119
f 95/120/119 47/57/57 96/121/120
f 47/57/57 49/59/59 96/121/120
f 96/121/120 49/59/59 97/122/121
f 49/59/59 51/61/61 97/122/121
f 97/122/121 51/61/61 98/123/122
f 51/61/61 53/63/63 98/123/122
f 98/123/122 53/63/63 99/124/123
f 53/63/63 55/65/62 99/124/123
f 99/124/123 55/65/62 100/125/124
f 55/65/62 57/67/66 100/125/124
f 100/125/124 57/67/66 101/126/125
f 57/67/66 59/69/68 101/126/125
f 101/126/125 59/69/68 102/127/126
f 59/69/68 61/71/70 102/127/126
f 102/127/126 61/71/70 103/128/127
f 61/71/70 63/73/72 103/128/127
f 103/128/127 63/73/72 104/129/128
f 63/73/72 65/75/74 104/129/128
f 104/129/128 65/75/74 105/130/129
f 65/75/74 68/78/77 105/130/129
f 105/130/129 68/78/77 106/131/130
f 68/78/77 70/80/79 106/131/130
f 219/88/87 200/107/106 220/89/88
f 70/80/79 74/92/91 106/131/130
f 199/132/131 200/107/106 219/88/87
f 74/92/91 75/96/95 106/131/130
f 106/131/130 75/96/95 107/133/132
f 75/96/95 76/99/98 107/133/132
f 218/14/14 199/132/131 219/88/87
f 196/134/133 199/132/131 218/14/14
f 217/93/92 196/134/133 218/14/14
f 157/135/134 196/134/133 217/93/92
f 107/133/132 108/136/135 106/131/130
f 158/137/136 157/135/134 217/93/92
f 106/131/130 108/136/135 105/130/129
f 108/136/135 109/138/137 105/130/129
f 105/130/129 109/138/137 104/129/128
f 109/138/137 110/139/138 104/129/128
f 104/129/128 110/139/138 103/128/127
f 159/140/139 158/137/136 217/93/92
f 103/128/127 110/139/138 102/127/126
f 110/139/138 111/141/140 102/127/126
f 160/142/141 159/140/139 217/93/92
f 111/141/140 112/143/142 102/127/126
f 102/127/126 112/143/142 101/126/125
f 216/15/15 160/142/141 217/93/92
f 101/126/125 112/143/142 100/125/124
f 112/143/142 113/144/143 100/125/124
f 100/125/124 113/144/143 99/124/123
f 113/144/143 114/145/144 99/124/123
f 99/124/123 114/145/144 98/123/122
f 114/145/144 115/146/145 98/123/122
f 98/123/122 115/146/145 97/122/121
f 115/146/145 116/147/146 97/122/121
f 97/122/121 116/147/146 96/121/120
f 170/148/147 160/142/141 216/15/15
f 215/16/16 170/148/147 216/15/15
f 171/149/148 170/148/147 215/16/16
f 214/21/21 171/149/148 215/16/16
f 108/136/135 110/139/138 109/138/137
f 177/150/149 171/149/148 214/21/21
f 183/151/150 177/150/149 214/21/21
f 213/24/24 183/151/150 214/21/21
f 197/152/151 183/151/150 213/24/24
f 116/147/146 115/146/145 117/153/152
f 115/146/145 114/145/144 117/153/152
f 117/153/152 114/145/144 118/154/153
f 114/145/144 113/144/143 118/154/153
f 118/154/153 113/144/143 119/155/154
f 113/144/143 112/143/142 119/155/154
f 119/155/154 112/143/142 120/156/155
f 212/81/80 197/152/151 213/24/24
f 120/156/155 112/143/142 121/157/156
f 112/143/142 111/141/140 121/157/156
f 198/158/157 197/152/151 212/81/80
f 111/141/140 110/139/138 121/157/156
f 121/157/156 110/139/138 122/159/158
f 110/139/138 108/136/135 122/159/158
f 211/94/93 198/158/157 212/81/80
f 108/136/135 107/133/132 122/159/158
f 122/159/158 107/133/132 123/160/159
f 107/133/132 76/99/98 123/160/159
f 123/160/159 76/99/98 124/161/160
f 76/99/98 77/100/99 124/161/160
f 124/161/160 77/100/99 125/162/161
f 77/100/99 78/101/100 125/162/161
f 186/163/162 198/158/157 211/94/93
f 210/95/94 186/163/162 211/94/93
f 188/164/163 186/163/162 210/95/94
f 189/165/164 188/164/163 210/95/94
f 122/159/158 123/160/159 126/166/165
f 209/97/96 189/165/164 210/95/94
f 126/166/165 123/160/159 127/167/166
f 123/160/159 124/161/160 127/167/166
f 127/167/166 124/161/160 128/168/167
f 124/161/160 125/162/161 128/168/167
f 204/169/168 189/165/164 209/97/96
f 205/170/169 204/169/168 209/97/96
f 208/98/97 205/170/169 209/97/96
f 206/171/170 205/170/169 208/98/97
f 122/159/158 126/166/165 121/157/156
f 126/166/165 129/172/171 121/157/156
f 121/157/156 129/172/171 120/156/155
f 207/102/101 206/171/170 208/98/97
f 201/173/172 207/102/101 200/107/106
f 206/171/170 207/102/101 201/173/172
f 202/174/173 206/171/170 201/173/172
f 129/172/171 126/166/165 130/175/174
f 205/170/169 206/171/170 202/174/173
f 126/166/165 127/167/166 130/175/174
f 130/175/174 127/167/166 131/176/175
f 127/167/166 128/168/167 131/176/175
f 131/176/175 128/168/167 132/177/176
f 203/178/124 205/170/169 202/174/173
f 132/177/176 128/168/167 133/179/177
f 128/168/167 125/162/161 133/179/177
f 133/179/177 125/162/161 134/180/178
f 204/169/168 205/170/169 203/178/124
f 134/180/178 125/162/161 135/181/179
f 125/162/161 78/101/100 135/181/179
f 135/181/179 78/101/100 136/182/180
f 78/101/100 79/103/102 136/182/180
f 136/182/180 79/103/102 137/183/181
f 190/184/182 189/165/164 204/169/168
f 137/183/181 79/103/102 138/185/183
f 79/103/102 80/104/103 138/185/183
f 203/178/124 190/184/182 204/169/168
f 80/104/103 81/105/104 138/185/183
f 138/185/183 81/105/104 139/186/184
f 81/105/104 82/106/105 139/186/184
f 139/186/184 82/106/105 140/187/185
f 82/106/105 83/108/107 140/187/185
f 140/187/185 83/108/107 141/188/186
f 83/108/107 84/109/108 141/188/186
f 141/188/186 84/109/108 142/189/187
f 84/109/108 85/110/109 142/189/187
f 142/189/187 85/110/109 143/190/188
f 85/110/109 86/111/110 143/190/188
f 143/190/188 86/111/110 144/191/189
f 86/111/110 87/112/111 144/191/189
f 144/191/189 87/112/111 145/192/190
f 87/112/111 88/113/112 145/192/190
f 191/193/191 190/184/182 203/178/124
f 88/113/112 89/114/113 145/192/190
f 145/192/190 89/114/113 146/194/192
f 202/174/173 191/193/191 203/178/124
f 146/194/192 89/114/113 147/195/193
f 89/114/113 90/115/114 147/195/193
f 192/196/194 191/193/191 202/174/173
f 90/115/114 91/116/115 147/195/193
f 147/195/193 91/116/115 148/197/195
f 91/116/115 92/117/116 148/197/195
f 148/197/195 92/117/116 149/198/196
f 92/117/116 93/118/117 149/198/196
f 149/198/196 93/118/117 150/199/197
f 93/118/117 94/119/118 150/199/197
f 150/199/197 94/119/118 151/200/198
f 94/119/118 95/120/119 151/200/198
f 151/200/198 95/120/119 152/201/199
f 95/120/119 96/121/120 152/201/199
f 152/201/199 96/121/120 153/202/200
f 96/121/120 116/147/146 153/202/200
f 153/202/200 116/147/146 154/203/201
f 116/147/146 117/153/152 154/203/201
f 201/173/172 192/196/194 202/174/173
f 193/204/202 192/196/194 201/173/172
f 200/107/106 193/204/202 201/173/172
f 194/205/203 193/204/202 200/107/106
f 152/201/199 153/202/200 151/200/198
f 153/202/200 155/206/204 151/200/198
f 151/200/198 155/206/204 150/199/197
f 155/206/204 156/207/205 150/199/197
f 150/199/197 156/207/205 149/198/196
f 156/207/205 157/135/134 149/198/196
f 149/198/196 157/135/134 148/197/195
f 157/135/134 158/137/136 148/197/195
f 148/197/195 158/137/136 147/195/193
f 158/137/136 159/140/139 147/195/193
f 147/195/193 159/140/139 146/194/192
f 199/132/131 194/205/203 200/107/106
f 146/194/192 159/140/139 145/192/190
f 159/140/139 160/142/141 145/192/190
f 145/192/190 160/142/141 144/191/189
f 195/208/206 194/205/203 199/132/131
f 144/191/189 160/142/141 143/190/188
f 160/142/141 161/209/207 143/190/188
f 143/190/188 161/209/207 142/189/187
f 161/209/207 162/210/208 142/189/187
f 142/189/187 162/210/208 141/188/186
f 162/210/208 163/211/209 141/188/186
f 141/188/186 163/211/209 140/187/185
f 163/211/209 164/212/210 140/187/185
f 140/187/185 164/212/210 139/186/184
f 196/134/133 195/208/206 199/132/131
f 139/186/184 164/212/210 138/185/183
f 164/212/210 165/213/211 138/185/183
f 138/185/183 165/213/211 137/183/181
f 198/158/157 186/163/162 185/214/212
f 184/215/213 198/158/157 185/214/212
f 197/152/151 198/158/157 184/215/213
f 182/216/214 183/151/150 197/152/151
f 154/203/201 155/206/204 153/202/200
f 184/215/213 182/216/214 197/152/151
f 186/163/162 188/164/163 187/217/215
f 156/207/205 196/134/133 157/135/134
f 195/208/206 196/134/133 156/207/205
f 131/176/175 166/218/216 130/175/174
f 166/218/216 129/172/171 130/175/174
f 155/206/204 195/208/206 156/207/205
f 154/203/201 195/208/206 155/206/204
f 117/153/152 195/208/206 154/203/201
f 194/205/203 195/208/206 117/153/152
f 166/218/216 131/176/175 132/177/176
f 193/204/202 194/205/203 117/153/152
f 118/154/153 193/204/202 117/153/152
f 192/196/194 193/204/202 118/154/153
f 119/155/154 192/196/194 118/154/153
f 165/213/211 164/212/210 167/219/217
f 191/193/191 192/196/194 119/155/154
f 164/212/210 163/211/209 167/219/217
f 167/219/217 163/211/209 168/220/218
f 163/211/209 162/210/208 168/220/218
f 168/220/218 162/210/208 169/221/219
f 162/210/208 161/209/207 169/221/219
f 169/221/219 161/209/207 170/148/147
f 161/209/207 160/142/141 170/148/147
f 120/156/155 191/193/191 119/155/154
f 129/172/171 191/193/191 120/156/155
f 190/184/182 191/193/191 129/172/171
f 166/218/216 190/184/182 129/172/171
f 170/148/147 171/149/148 169/221/219
f 189/165/164 190/184/182 166/218/216
f 169/221/219 171/149/148 168/220/218
f 171/149/148 172/222/220 168/220/218
f 168/220/218 172/222/220 167/219/217
f 172/222/220 173/223/221 167/219/217
f 167/219/217 173/223/221 174/224/222
f 132/177/176 189/165/164 166/218/216
f 174/224/222 173/223/221 175/225/223
f 173/223/221 176/226/224 175/225/223
f 175/225/223 176/226/224 177/150/149
f 188/164/163 189/165/164 132/177/176
f 177/150/149 176/226/224 171/149/148
f 133/179/177 188/164/163 132/177/176
f 171/149/148 176/226/224 172/222/220
f 176/226/224 173/223/221 172/222/220
f 187/217/215 188/164/163 133/179/177
f 181/227/225 187/217/215 133/179/177
f 186/163/162 187/217/215 181/227/225
f 185/214/212 186/163/162 181/227/225
f 167/219/217 174/224/222 165/213/211
f 174/224/222 178/228/226 165/213/211
f 165/213/211 178/228/226 137/183/181
f 180/229/227 185/214/212 181/227/225
f 137/183/181 178/228/226 136/182/180
f 178/228/226 179/230/228 136/182/180
f 136/182/180 179/230/228 135/181/179
f 179/230/228 180/229/227 135/181/179
f 135/181/179 180/229/227 134/180/178
f 180/229/227 181/227/225 134/180/178
f 134/180/178 181/227/225 133/179/177
f 179/230/228 185/214/212 180/229/227
f 184/215/213 185/214/212 179/230/228
f 178/228/226 184/215/213 179/230/228
f 182/216/214 184/215/213 178/228/226
f 174/224/222 175/225/223 182/216/214
f 182/216/214 175/225/223 183/151/150
f 175/225/223 177/150/149 183/151/150
f 174/224/222 182/216/214 178/228/226
